<svg width="133" height="143" viewBox="0 0 133 143" fill="none" xmlns="http://www.w3.org/2000/svg">
<path fill-rule="evenodd" clip-rule="evenodd" d="M87.6442 12.3443C89.6633 14.006 91.0369 16.098 91.7686 18.6205C90.8809 16.3128 89.4464 14.2506 87.4648 12.4339C87.5061 12.3624 87.5653 12.3326 87.6442 12.3443Z" fill="#354CE6"/>
<path fill-rule="evenodd" clip-rule="evenodd" d="M93.0227 27.9463C93.1662 31.3514 93.2271 34.7586 93.202 38.1676C93.2325 38.947 93.202 39.724 93.1124 40.4988C92.8667 36.286 92.8362 32.1019 93.0227 27.9463Z" fill="#3D4EE7"/>
<path fill-rule="evenodd" clip-rule="evenodd" d="M12.8658 28.125C12.8413 36.7027 12.9012 45.3101 13.0452 53.9474C13.0152 54.9037 12.9854 55.8602 12.9555 56.8165C12.9243 55.8869 12.8346 54.9903 12.6865 54.1267C12.6338 45.4572 12.6935 36.7898 12.8658 28.125Z" fill="#2E31A5"/>
<path fill-rule="evenodd" clip-rule="evenodd" d="M127.094 51.6163C129.92 52.0017 131.086 53.6156 130.591 56.458C130.44 57.1267 130.171 57.7246 129.784 58.2512C129.728 58.0292 129.638 58.0292 129.515 58.2512C129.233 58.8469 128.844 59.3551 128.349 59.7755C128.263 60.711 128.322 61.2789 128.528 61.479C128.708 61.479 128.887 61.479 129.066 61.479C129.09 61.8655 129 62.2241 128.797 62.555C128.677 62.0767 128.559 62.0767 128.439 62.555C128.252 62.4215 128.163 62.2422 128.17 62.017C128.129 59.7803 126.993 58.9135 124.763 59.4168C123.059 59.8651 121.445 60.5225 119.921 61.3894C118.632 61.4082 118.513 60.9898 119.562 60.1341C121.684 59.1317 123.897 58.4444 126.197 58.0719C126.943 58.0857 127.661 58.1754 128.349 58.3409C129.21 57.1321 129.599 55.7872 129.515 54.3061C129.104 53.1813 128.297 52.703 127.094 52.8716C126.369 52.9026 125.652 52.9923 124.942 53.1406C122.706 53.9 120.554 54.8563 118.486 56.0097C118.194 56.0983 117.895 56.1281 117.59 56.0994C117.624 55.0763 118.162 54.4487 119.204 54.2165C121.103 53.4043 123.014 52.6273 124.942 51.8853C125.645 51.678 126.362 51.5883 127.094 51.6163Z" fill="#21309E"/>
<path fill-rule="evenodd" clip-rule="evenodd" d="M26.312 10.3721C22.1583 12.9231 19.8569 16.7486 19.4081 21.8487C18.7553 37.8125 18.8748 53.7721 19.7667 69.7277C19.8978 73.0309 20.1965 76.3185 20.6633 79.5904C21.7853 86.0124 25.1028 90.1965 30.6157 92.1429C27.1718 91.8947 23.8843 91.0578 20.753 89.6324C19.9849 88.5344 19.178 87.4585 18.3321 86.4046C17.4805 83.4759 16.4643 80.6068 15.2837 77.7971C15.1009 77.5843 14.8917 77.405 14.656 77.2592C14.4767 77.3189 14.3571 77.4385 14.2974 77.6178C14.6867 78.1567 14.9557 78.7545 15.1043 79.411C15.6932 82.0664 16.5299 84.6367 17.6148 87.1219C18.3074 88.443 19.3536 89.3396 20.753 89.8117C18.5385 92.9732 15.4901 94.3181 11.6076 93.8465C8.78987 93.1217 7.17597 91.3284 6.76587 88.4668C6.79384 87.7251 7.00311 87.0378 7.39349 86.4046C7.96141 85.8367 8.52914 85.269 9.09705 84.701C3.32145 81.5491 0.601672 76.6775 0.937901 70.0863C1.95627 66.1064 4.07819 62.8487 7.30383 60.3133C8.96382 59.0422 10.6973 57.8766 12.5042 56.8165C12.6824 55.9278 12.7421 55.0311 12.6835 54.1266C12.8316 54.9903 12.9213 55.8869 12.9525 56.8165C12.9824 55.8601 13.0122 54.9036 13.0421 53.9473C12.8981 45.3101 12.8382 36.7026 12.8628 28.125C13.0271 19.9907 16.7928 14.2822 24.1601 10.9997C24.8648 10.7348 25.5821 10.5256 26.312 10.3721Z" fill="#2E31A5"/>
<path fill-rule="evenodd" clip-rule="evenodd" d="M93.3785 42.8301C93.3821 48.5106 93.3516 54.1891 93.2888 59.8657C96.0253 62.7657 99.0433 63.1243 102.345 60.9416C102.467 67.102 105.605 70.3298 111.759 70.625C118.064 70.0721 123.384 67.5019 127.719 62.9141C127.855 62.5887 128.004 62.2899 128.167 62.0175C128.16 62.2428 128.249 62.4221 128.436 62.5555C128.556 62.0772 128.674 62.0772 128.795 62.5555C128.997 62.2247 129.087 61.866 129.064 61.4796C128.884 61.4796 128.705 61.4796 128.526 61.4796C128.319 61.2794 128.26 60.7115 128.346 59.776C128.841 59.3557 129.23 58.8475 129.512 58.2518C129.636 58.0298 129.725 58.0298 129.781 58.2518C129.546 58.6671 129.307 59.0856 129.064 59.507C129.401 60.3151 129.49 61.1519 129.333 62.0175C128.531 63.7674 127.365 65.2319 125.836 66.4109C121.713 69.5026 117.081 71.2659 111.938 71.7009C110.522 71.6941 109.148 71.4549 107.814 70.9836C105.368 71.9611 102.829 72.4991 100.193 72.5975C97.4957 72.5665 95.0462 71.7895 92.8405 70.2663C92.8298 67.3106 92.9481 64.3218 93.1992 61.3002C92.9894 55.1131 93.0503 48.9564 93.3785 42.8301Z" fill="#2E31A5"/>
<path d="M124.913 51.7988L124.906 51.8018C122.979 52.5435 121.068 53.3191 119.17 54.1309C118.641 54.2505 118.23 54.4728 117.947 54.8027C117.662 55.1354 117.514 55.5698 117.496 56.0967L117.494 56.1807L117.578 56.1885C117.894 56.2182 118.205 56.1877 118.509 56.0957L118.518 56.0928L118.526 56.0879C120.587 54.9384 122.732 53.9848 124.96 53.2275C125.664 53.0807 126.375 52.9917 127.094 52.9609V52.9619L127.103 52.96C127.69 52.8777 128.17 52.9548 128.552 53.1807C128.93 53.4049 129.222 53.7831 129.422 54.3252C129.501 55.7604 129.128 57.0635 128.306 58.2393C127.629 58.0813 126.926 57.9959 126.195 57.9824H126.188L126.18 57.9834C123.871 58.3572 121.649 59.0468 119.521 60.0527L119.511 60.0576L119.502 60.0645C119.237 60.2803 119.041 60.4733 118.918 60.6416C118.798 60.8057 118.733 60.968 118.774 61.1143C118.817 61.2648 118.96 61.3557 119.146 61.4082C119.334 61.4616 119.594 61.4842 119.919 61.4795L119.941 61.4785L119.962 61.4678C121.479 60.6049 123.085 59.9493 124.781 59.5029C125.885 59.2544 126.693 59.3514 127.229 59.7607C127.761 60.1669 128.05 60.9013 128.074 61.9941C127.917 62.2599 127.773 62.5497 127.641 62.8633C123.325 67.4265 118.031 69.9829 111.755 70.5342C108.696 70.3862 106.4 69.5108 104.854 67.9199C103.307 66.3289 102.496 64.0093 102.434 60.9473C102.588 60.0076 102.736 59.0584 102.878 58.0996C103.794 56.384 104.512 54.5893 105.03 52.7158L105.032 52.709L105.033 52.7012C105.252 50.5623 105.371 48.4148 105.392 46.2588C105.801 45.4729 106.313 44.9822 106.923 44.7695C107.536 44.5556 108.265 44.6183 109.117 44.9727C110.549 45.7159 111.385 46.8675 111.628 48.4365L111.669 48.7559C111.7 50.1347 111.79 51.5097 111.938 52.8809L111.952 53.0107L112.067 52.9512C115.469 51.221 118.933 49.6379 122.461 48.2021C123.288 47.9133 124.057 47.852 124.769 48.0117C125.478 48.1709 126.137 48.5522 126.748 49.1602C127.184 49.9185 127.275 50.7039 127.023 51.5244C126.306 51.5043 125.603 51.5955 124.913 51.7988Z" fill="#5263F3" stroke="#2E31A5" stroke-width="0.179322"/>
<path fill-rule="evenodd" clip-rule="evenodd" d="M111.489 60.4037C112.328 60.3739 113.165 60.4039 113.999 60.4934C114.48 60.538 114.897 60.7173 115.254 61.0313C115.134 61.2704 114.955 61.4497 114.716 61.5693C113.642 61.5263 112.566 61.5263 111.489 61.5693C110.694 61.856 109.916 62.1847 109.157 62.5556C108.535 62.4146 108.474 62.1456 108.978 61.7486C109.755 61.152 110.59 60.7037 111.489 60.4037Z" fill="#2636B2"/>
<path fill-rule="evenodd" clip-rule="evenodd" d="M12.8603 66.5C13.0943 66.8402 13.2138 67.2587 13.219 67.7553C13.4783 70.8052 13.6874 73.8536 13.8466 76.9007C8.84047 73.8813 8.51177 70.4144 12.8603 66.5Z" fill="#F9F6F5"/>
<path fill-rule="evenodd" clip-rule="evenodd" d="M20.7525 89.633C20.7525 89.6927 20.7525 89.7526 20.7525 89.8123C19.353 89.3402 18.3069 88.4435 17.6143 87.1225C16.5294 84.6373 15.6927 82.067 15.1038 79.4116C14.9552 78.7551 14.6862 78.1573 14.2969 77.6184C14.3566 77.4391 14.4762 77.3195 14.6555 77.2598C14.8911 77.4056 15.1004 77.5849 15.2831 77.7977C16.4638 80.6073 17.48 83.4765 18.3316 86.4052C19.1775 87.4591 19.9844 88.535 20.7525 89.633Z" fill="#132938"/>
<path fill-rule="evenodd" clip-rule="evenodd" d="M87.638 12.3444C87.5591 12.3327 87.4999 12.3625 87.4587 12.434C89.4402 14.2508 90.8748 16.313 91.7624 18.6207C92.2968 20.1072 92.625 21.6614 92.7487 23.283C92.8527 24.837 92.9424 26.3912 93.0177 27.9454C92.8312 32.101 92.8617 36.2851 93.1073 40.4979C93.197 39.7231 93.2275 38.9461 93.197 38.1668C93.3745 39.6881 93.4355 41.2423 93.3763 42.8291C93.0482 48.9555 92.9872 55.1121 93.197 61.2993C92.9459 64.3209 92.8276 67.3096 92.8383 70.2654C92.3685 73.2836 91.9202 76.332 91.4934 79.4108C91.0236 82.8316 89.6177 85.7904 87.2794 88.2873C85.5113 89.6191 83.5387 90.5157 81.3617 90.9771C77.0473 91.6212 72.7435 92.1292 68.4506 92.5013C65.75 92.6602 63.0601 92.8395 60.3811 93.0393C55.1216 93.0393 49.8602 93.0393 44.6007 93.0393C41.8463 93.0049 39.0964 92.8853 36.3519 92.6806C34.4054 92.5849 32.4926 92.4056 30.6136 92.1427C25.1007 90.1963 21.7833 86.0122 20.6612 79.5901C20.1945 76.3182 19.8957 73.0307 19.7646 69.7274C18.8727 53.7719 18.7533 37.8122 19.406 21.8485C19.8548 16.7484 22.1563 12.9229 26.3099 10.3718C27.7475 9.89198 29.242 9.5631 30.7929 9.38557C33.8891 8.98802 36.9973 8.74898 40.1177 8.66829C52.3134 8.26947 64.5073 8.32937 76.6994 8.84761C79.4233 8.94875 82.0539 9.48671 84.5895 10.4615C85.6834 10.9936 86.7002 11.6212 87.638 12.3444Z" fill="#5263F3"/>
<path fill-rule="evenodd" clip-rule="evenodd" d="M42.8058 55.2034C43.4657 55.1739 44.1238 55.2036 44.7783 55.2931C47.7945 56.0647 50.843 56.6624 53.9238 57.0863C58.5288 57.4557 63.0728 57.0971 67.5522 56.0104C69.3186 55.5608 70.4842 56.1885 71.049 57.8933C71.0257 64.1848 68.4255 69.1161 63.2485 72.6873C57.5174 75.5974 52.1377 75.0594 47.1095 71.0734C43.2577 67.9123 41.165 63.8477 40.8333 58.8795C40.6287 57.1654 41.2869 55.9401 42.8058 55.2034Z" fill="#13293E"/>
<path fill-rule="evenodd" clip-rule="evenodd" d="M51.5966 64.8861C55.2601 64.7154 58.6081 65.642 61.6386 67.6656C62.5836 68.4609 63.3619 69.3875 63.9698 70.4451C61.3786 72.7828 58.3301 73.7093 54.8244 73.2246C50.8201 72.5622 47.6515 70.5896 45.3203 67.307C47.2193 65.9868 49.312 65.1799 51.5966 64.8861Z" fill="#E0615F"/>
<path fill-rule="evenodd" clip-rule="evenodd" d="M8.73679 86.2255C8.97385 86.195 9.18312 86.2547 9.36442 86.4048C10.3604 88.6555 11.8249 90.5384 13.7578 92.0535C11.8502 92.8532 10.2662 92.4049 9.00577 90.7085C7.86098 89.2381 7.77132 87.7438 8.73679 86.2255Z" fill="#5263F3"/>
<path fill-rule="evenodd" clip-rule="evenodd" d="M44.5988 93.04C49.8583 93.04 55.1196 93.04 60.3791 93.04C59.8645 104.291 59.1472 115.529 58.2272 126.753C51.951 126.54 45.6747 126.54 39.3984 126.753C41.1612 115.525 42.8934 104.288 44.5988 93.04Z" fill="#FCF9F6"/>
<path fill-rule="evenodd" clip-rule="evenodd" d="M68.4508 92.502C68.2607 102.366 68.0204 112.229 67.7335 122.09C70.5883 122.028 73.2781 122.655 75.803 123.973C77.6213 125.044 78.8766 126.568 79.5688 128.546C80.1157 130.962 79.2191 132.605 76.8789 133.477C71.3558 134.928 65.9152 134.629 60.5606 132.58C58.1936 131.312 57.4171 129.369 58.2294 126.752C59.1494 115.529 59.8666 104.291 60.3813 93.0399C63.0604 92.8402 65.7502 92.6608 68.4508 92.502Z" fill="#13283E"/>
<path fill-rule="evenodd" clip-rule="evenodd" d="M36.3566 92.6816C39.1011 92.8862 41.851 93.0059 44.6054 93.0403C42.9 104.288 41.1678 115.526 39.4051 126.753C39.7348 130.578 38.0015 132.82 34.2047 133.477C30.7773 134.25 27.3105 134.549 23.804 134.374C21.8909 134.234 20.0976 133.696 18.4244 132.76C17.2572 131.74 16.7789 130.455 16.9898 128.905C18.1253 126.005 20.1577 123.943 23.0868 122.718C23.853 122.443 24.63 122.204 25.4179 122.001C27.2743 121.88 29.1274 121.91 30.9769 122.09C32.9534 112.32 34.7466 102.517 36.3566 92.6816Z" fill="#13283E"/>
<path fill-rule="evenodd" clip-rule="evenodd" d="M58.2337 126.753C57.4214 129.369 58.1979 131.312 60.5649 132.581C65.9195 134.629 71.3601 134.928 76.8832 133.477C79.2234 132.605 80.12 130.962 79.5731 128.546C82.1696 128.987 84.7393 129.555 87.2839 130.249C88.8099 130.713 90.2445 131.371 91.5876 132.222C92.8142 133.354 92.755 134.43 91.4083 135.45C88.6503 136.932 85.722 137.948 82.6215 138.498C75.6387 139.916 68.5842 140.752 61.4615 141.009C49.5492 141.693 37.6535 141.454 25.7764 140.291C21.8731 139.81 17.9878 139.212 14.1205 138.498C11.175 137.935 8.36572 136.978 5.69238 135.629C4.02218 134.637 3.84286 133.442 5.15442 132.043C6.7043 131.047 8.37791 130.33 10.1754 129.891C12.287 129.394 14.4089 128.946 16.5414 128.546C16.7881 128.579 16.9375 128.698 16.9897 128.904C16.7788 130.454 17.257 131.739 18.4242 132.76C20.0975 133.696 21.8907 134.234 23.8039 134.374C27.3104 134.549 30.7772 134.25 34.2046 133.477C38.0014 132.82 39.7347 130.578 39.4049 126.753C45.6812 126.54 51.9575 126.54 58.2337 126.753Z" fill="#FEC74C"/>
<path fill-rule="evenodd" clip-rule="evenodd" d="M43.1532 24.6289C47.2197 24.7205 50.0589 26.6332 51.671 30.3672C53.6229 35.6117 53.0849 40.573 50.0571 45.2509C46.9663 48.6498 43.4098 49.2177 39.3874 46.9545C34.9905 43.7448 33.1675 39.4113 33.9181 33.9536C34.4394 30.8465 35.9037 28.3061 38.3115 26.3325C39.8144 25.3835 41.4283 24.8158 43.1532 24.6289Z" fill="#F7F5F2"/>
<path fill-rule="evenodd" clip-rule="evenodd" d="M68.0769 24.0908C72.2025 24.1364 75.2211 25.9895 77.1326 29.6498C79.2255 34.2439 79.1061 38.7866 76.774 43.2783C74.3748 47.0632 71.0574 48.2288 66.8216 46.7751C61.6756 43.5033 59.5537 38.811 60.4557 32.6983C61.2253 28.196 63.7658 25.3269 68.0769 24.0908Z" fill="#F7F5F2"/>
<ellipse cx="68.7993" cy="37.8085" rx="4.57271" ry="6.27627" fill="black"/>
<ellipse cx="46.561" cy="37.8085" rx="4.57271" ry="6.27627" fill="black"/>
<ellipse cx="69.7791" cy="35.2082" rx="1.07593" ry="1.34491" fill="white"/>
<ellipse cx="47.5486" cy="35.2082" rx="1.07593" ry="1.34491" fill="white"/>
<path d="M79.7693 74.5126C79.933 74.5332 80.5338 74.6088 80.7008 74.6297C81.0603 74.675 81.5833 74.7395 81.9427 74.7859C82.1923 74.8176 82.5468 74.8617 82.7965 74.8932C83.4528 74.9764 84.0807 75.053 84.7369 75.1372C85.4068 75.2231 86.0849 75.3059 86.755 75.391C88.069 75.5579 89.7878 75.769 91.1016 75.9375C90.9224 76.4338 90.3878 76.4955 89.9953 76.8545C89.8903 76.9516 89.7854 77.0486 89.6773 77.1486C89.5654 77.2502 89.4535 77.3519 89.3382 77.4566C89.1085 77.6686 88.8788 77.8806 88.6492 78.0926C88.4831 78.2453 88.4831 78.2453 88.3136 78.4011C87.9493 78.7377 87.5917 79.0806 87.2363 79.4264C86.6359 80.0093 86.0284 80.5844 85.4194 81.1583C84.1158 82.3877 82.8181 83.6232 81.5308 84.8694C81.0373 85.3444 80.5385 85.8137 80.0399 86.2834C79.4977 86.7947 78.958 87.3086 78.4181 87.8224C77.6184 88.5834 76.8169 89.3423 76.0131 90.0989C75.4955 90.5906 75.5119 91.2267 75.0033 91.7276L74.5726 91.7795C74.5726 91.7795 74.0903 91.8249 74.0375 91.8182C74.1071 90.0682 74.192 88.3198 74.2695 86.57C74.2798 86.3379 74.29 86.1057 74.3001 85.8735C74.3931 83.7412 74.5201 81.6155 74.7593 79.494C74.7757 79.3322 74.792 79.1705 74.8088 79.0038C75.0067 77.4079 75.6377 76.2629 76.8874 75.2413C78.0855 74.4477 78.2849 74.4043 79.7693 74.5126Z" fill="#3537CD"/>
<path d="M80.66 74.5151C80.8236 74.5359 81.4244 74.6124 81.5914 74.6336C81.9509 74.6794 82.4739 74.7447 82.8333 74.7916C83.0829 74.8237 83.4374 74.8683 83.6871 74.9002C84.3434 74.9843 84.9714 75.0619 85.6275 75.1471C86.2975 75.2339 86.9756 75.3178 87.6456 75.4038C88.9597 75.5727 90.6784 75.7863 91.9922 75.9568C91.8136 76.4538 91.2793 76.5148 90.8872 76.8741C90.7824 76.9712 90.6776 77.0682 90.5697 77.1682C90.4579 77.2699 90.3462 77.3716 90.231 77.4764C90.0016 77.6885 89.7722 77.9006 89.5429 78.1127C89.377 78.2655 89.377 78.2655 89.2078 78.4213C88.8439 78.7581 88.4868 79.1011 88.1318 79.4472C87.5323 80.0304 86.9256 80.6057 86.3174 81.1799C85.0155 82.4099 83.7196 83.646 82.434 84.8928C81.9412 85.3681 81.4431 85.8376 80.9452 86.3075C80.4036 86.8191 79.8646 87.3333 79.3255 87.8473C78.5269 88.6087 77.7265 89.368 76.9237 90.1249C76.4068 90.6169 75.8978 91.1168 75.3899 91.618C75.3 91.6998 75.2101 91.7817 75.1174 91.8661C75.0662 91.8596 75.015 91.853 74.9622 91.8463C75.0296 90.0932 75.1007 88.3403 75.176 86.5875C75.186 86.3549 75.1959 86.1223 75.2057 85.8897C75.296 83.7536 75.4204 81.6243 75.6569 79.4992C75.6731 79.3372 75.6892 79.1752 75.7058 79.0082C75.9017 77.4097 76.5311 76.2634 77.7794 75.2415C78.9763 74.448 79.1756 74.4048 80.66 74.5151Z" fill="#FCFCFD"/>
<path d="M42.2495 1.71762C43.7091 2.31395 44.7786 3.37133 45.4035 4.68004C45.6849 5.41416 45.7685 6.09372 45.8043 6.86785C45.8103 6.98844 45.8163 7.10904 45.8225 7.23329C45.8346 7.48788 45.8459 7.74251 45.8566 7.99716C45.8735 8.38087 45.8953 8.76416 45.9173 9.14762C46.0141 11.134 45.8883 12.9053 44.3423 14.4978C43.5688 15.1946 42.7166 15.6118 41.6158 15.7123C40.9187 15.7221 40.4129 15.5207 39.8752 15.1418C39.4804 14.6614 39.4764 14.2271 39.551 13.6419C39.8544 13.1496 40.1528 12.9179 40.7101 12.6791C41.2393 12.4441 41.4123 12.1848 41.6288 11.7083C41.8204 11.1265 41.8295 10.5678 41.8096 9.96816C41.8055 9.83809 41.8055 9.83809 41.8014 9.70539C41.7953 9.52224 41.7888 9.33911 41.782 9.15598C41.7723 8.87927 41.7653 8.60255 41.7584 8.32575C41.7245 7.26808 41.6882 6.25963 40.9794 5.36594C40.5004 5.13896 40.1534 5.20096 39.6125 5.26054C39.4835 5.3041 39.3544 5.34767 39.2214 5.39255C39.0096 5.87088 38.9564 6.29753 38.9589 6.80588C38.9588 6.98047 38.9588 6.98047 38.9587 7.15859C38.96 7.30407 38.9613 7.44954 38.9627 7.59943C38.9649 8.06498 38.9672 8.53053 38.9695 9.01019C37.7069 9.06063 36.4444 9.11108 35.1435 9.16306C35.1124 8.65786 35.0814 8.15266 35.0493 7.63215C35.0383 7.47625 35.0272 7.32035 35.0159 7.15972C34.9331 5.51339 35.41 4.01989 36.6209 2.73258C38.1446 1.35622 40.2754 1.05045 42.2495 1.71762Z" fill="#151F35"/>
<path d="M68.1319 1.26928C69.571 1.91345 70.605 3.00554 71.1864 4.33416C71.4435 5.07718 71.5046 5.75913 71.5148 6.53401C71.5168 6.65474 71.5188 6.77546 71.5209 6.89985C71.5246 7.1547 71.5275 7.40956 71.5298 7.66443C71.534 8.04849 71.5431 8.43229 71.5525 8.81626C71.5837 10.8047 71.3996 12.5709 69.8018 14.1116C69.0057 14.7825 68.1402 15.1713 67.0367 15.2354C66.3397 15.2223 65.8408 15.0043 65.3159 14.6078C64.9372 14.1146 64.9475 13.6804 65.0413 13.098C65.3609 12.616 65.6667 12.3942 66.2315 12.174C66.7683 11.9566 66.9497 11.7032 67.1818 11.234C67.3925 10.6589 67.42 10.1008 67.4199 9.50081C67.4202 9.37067 67.4202 9.37067 67.4204 9.23791C67.4204 9.05466 67.42 8.87141 67.4192 8.68816C67.4186 8.41128 67.4207 8.13448 67.423 7.8576C67.424 6.79939 67.421 5.79029 66.7421 4.8737C66.2708 4.63103 65.922 4.68155 65.3794 4.72325C65.249 4.76253 65.1185 4.80181 64.9841 4.84228C64.7567 5.31336 64.6894 5.73802 64.6751 6.24618C64.6693 6.42067 64.6693 6.42067 64.6633 6.59869C64.6598 6.74413 64.6563 6.88957 64.6528 7.03942C64.6396 7.50479 64.6265 7.97016 64.613 8.44963C63.3495 8.45839 62.0859 8.46715 60.7841 8.47617C60.7697 7.97021 60.7553 7.46426 60.7405 6.94298C60.7346 6.7868 60.7287 6.63062 60.7226 6.46971C60.6942 4.82154 61.2201 3.34459 62.4729 2.09794C64.0412 0.772615 66.1809 0.537327 68.1319 1.26928Z" fill="#151F35"/>
</svg>
