<svg width="21" height="21" viewBox="0 0 21 21" fill="none" xmlns="http://www.w3.org/2000/svg">
<g clip-path="url(#clip0_5143_9594)">
<path d="M5.4987 11.7031C4.10981 11.7031 1.33203 12.5365 1.33203 15.8698C1.33203 19.2031 4.10981 20.0365 5.4987 20.0365H15.4987C16.8876 20.0365 19.6654 19.2031 19.6654 15.8698C19.6654 12.5365 16.8876 11.7031 15.4987 11.7031" stroke="#131927" stroke-width="1.5" stroke-linecap="round" stroke-linejoin="round"/>
<path d="M10.5 10.8701C11.8807 10.8701 13 9.75083 13 8.37012C13 6.98941 11.8807 5.87012 10.5 5.87012C9.11929 5.87012 8 6.98941 8 8.37012C8 9.75083 9.11929 10.8701 10.5 10.8701Z" stroke="#131927" stroke-width="1.5" stroke-linecap="round" stroke-linejoin="round"/>
<path d="M16.332 8.37012L17.1654 8.37012" stroke="#131927" stroke-width="1.5" stroke-linecap="round" stroke-linejoin="round"/>
<path d="M10.5 2.53711V1.70378" stroke="#131927" stroke-width="1.5" stroke-linecap="round" stroke-linejoin="round"/>
<path d="M15.918 3.78711L15.0846 4.62044" stroke="#131927" stroke-width="1.5" stroke-linecap="round" stroke-linejoin="round"/>
<path d="M5.08203 3.78711L5.91536 4.62044" stroke="#131927" stroke-width="1.5" stroke-linecap="round" stroke-linejoin="round"/>
<path d="M3.83203 8.37012L4.66536 8.37012" stroke="#131927" stroke-width="1.5" stroke-linecap="round" stroke-linejoin="round"/>
</g>
<defs>
<clipPath id="clip0_5143_9594">
<rect width="20" height="20" fill="white" transform="translate(0.5 0.870117)"/>
</clipPath>
</defs>
</svg>
