<svg width="21" height="21" viewBox="0 0 21 21" fill="none" xmlns="http://www.w3.org/2000/svg">
<path d="M3 13.3701C5.06897 13.3701 6.62069 10.8701 6.62069 10.8701C6.62069 10.8701 8.17241 13.3701 10.2414 13.3701C12.3103 13.3701 14.3793 10.8701 14.3793 10.8701C14.3793 10.8701 16.4483 13.3701 18 13.3701" stroke="#131927" stroke-width="1.5" stroke-linecap="round" stroke-linejoin="round"/>
<path d="M3 17.5371C5.06897 17.5371 6.62069 15.0371 6.62069 15.0371C6.62069 15.0371 8.17241 17.5371 10.2414 17.5371C12.3103 17.5371 14.3793 15.0371 14.3793 15.0371C14.3793 15.0371 16.4483 17.5371 18 17.5371" stroke="#131927" stroke-width="1.5" stroke-linecap="round" stroke-linejoin="round"/>
<path d="M16.3346 9.20345C16.3346 5.98179 13.723 3.37012 10.5013 3.37012C7.27964 3.37012 4.66797 5.98179 4.66797 9.20345" stroke="#131927" stroke-width="1.5" stroke-linecap="round" stroke-linejoin="round"/>
</svg>
