<svg width="25" height="25" viewBox="0 0 25 25" fill="none" xmlns="http://www.w3.org/2000/svg">
<g clip-path="url(#clip0_5143_9154)">
<path d="M12.5 18.8672C15.8137 18.8672 18.5 16.1809 18.5 12.8672C18.5 9.55348 15.8137 6.86719 12.5 6.86719C9.18629 6.86719 6.5 9.55348 6.5 12.8672C6.5 16.1809 9.18629 18.8672 12.5 18.8672Z" stroke="#131927" stroke-width="1.5" stroke-linecap="round" stroke-linejoin="round"/>
<path d="M22.5 12.8672L23.5 12.8672" stroke="#131927" stroke-width="1.5" stroke-linecap="round" stroke-linejoin="round"/>
<path d="M12.5 2.86719V1.86719" stroke="#131927" stroke-width="1.5" stroke-linecap="round" stroke-linejoin="round"/>
<path d="M12.5 23.8672V22.8672" stroke="#131927" stroke-width="1.5" stroke-linecap="round" stroke-linejoin="round"/>
<path d="M20.5 20.8672L19.5 19.8672" stroke="#131927" stroke-width="1.5" stroke-linecap="round" stroke-linejoin="round"/>
<path d="M20.5 4.86719L19.5 5.86719" stroke="#131927" stroke-width="1.5" stroke-linecap="round" stroke-linejoin="round"/>
<path d="M4.5 20.8672L5.5 19.8672" stroke="#131927" stroke-width="1.5" stroke-linecap="round" stroke-linejoin="round"/>
<path d="M4.5 4.86719L5.5 5.86719" stroke="#131927" stroke-width="1.5" stroke-linecap="round" stroke-linejoin="round"/>
<path d="M1.5 12.8672L2.5 12.8672" stroke="#131927" stroke-width="1.5" stroke-linecap="round" stroke-linejoin="round"/>
</g>
<defs>
<clipPath id="clip0_5143_9154">
<rect width="24" height="24" fill="white" transform="translate(0.5 0.867188)"/>
</clipPath>
</defs>
</svg>
