<svg width="14" height="14" viewBox="0 0 14 14" fill="none" xmlns="http://www.w3.org/2000/svg">
<g clip-path="url(#clip0_4325_9014)">
<path d="M9.92512 10.1252C11.3001 12.0502 13.4719 10.6285 12.9501 8.7502C12.375 6.67964 11.9923 5.28272 11.7417 4.35816C11.4776 3.38381 10.5919 2.7002 9.58241 2.7002L4.21784 2.7002C3.20833 2.7002 2.32915 3.38761 2.08219 4.36645C1.70177 5.8743 1.3431 7.26093 0.929413 8.7502C0.407657 10.6285 2.57941 12.0502 3.95441 10.1252" stroke="#9B59B6" stroke-width="1.1" stroke-linecap="round" stroke-linejoin="round"/>
<path d="M10.2003 5.17517L10.2059 5.18017" stroke="#9B59B6" stroke-width="1.1" stroke-linecap="round" stroke-linejoin="round"/>
<path d="M9.37 4.3501L9.37556 4.3551" stroke="#9B59B6" stroke-width="1.1" stroke-linecap="round" stroke-linejoin="round"/>
<path d="M9.37 6.00012L9.37556 6.00512" stroke="#9B59B6" stroke-width="1.1" stroke-linecap="round" stroke-linejoin="round"/>
<path d="M8.55042 5.17517L8.55598 5.18017" stroke="#9B59B6" stroke-width="1.1" stroke-linecap="round" stroke-linejoin="round"/>
<path d="M4.15015 4.3501V6.0001" stroke="#9B59B6" stroke-width="1.1" stroke-linecap="round" stroke-linejoin="round"/>
<path d="M3.32495 5.17517H4.97495" stroke="#9B59B6" stroke-width="1.1" stroke-linecap="round" stroke-linejoin="round"/>
<path d="M4.7001 9.3001C5.30761 9.3001 5.8001 8.80761 5.8001 8.2001C5.8001 7.59258 5.30761 7.1001 4.7001 7.1001C4.09258 7.1001 3.6001 7.59258 3.6001 8.2001C3.6001 8.80761 4.09258 9.3001 4.7001 9.3001Z" stroke="#9B59B6" stroke-width="1.1" stroke-linecap="round" stroke-linejoin="round"/>
<path d="M9.1 9.3001C9.70751 9.3001 10.2 8.80761 10.2 8.2001C10.2 7.59258 9.70751 7.1001 9.1 7.1001C8.49249 7.1001 8 7.59258 8 8.2001C8 8.80761 8.49249 9.3001 9.1 9.3001Z" stroke="#9B59B6" stroke-width="1.1" stroke-linecap="round" stroke-linejoin="round"/>
</g>
<defs>
<clipPath id="clip0_4325_9014">
<rect width="13.2" height="13.2" fill="white" transform="translate(0.300049 0.500122)"/>
</clipPath>
</defs>
</svg>
