<svg width="14" height="14" viewBox="0 0 14 14" fill="none" xmlns="http://www.w3.org/2000/svg">
<g clip-path="url(#clip0_4325_9520)">
<path d="M4.04 4.3501H3.16C2.79549 4.3501 2.5 4.64559 2.5 5.0101V9.1901C2.5 9.55461 2.79549 9.8501 3.16 9.8501H4.04C4.40451 9.8501 4.7 9.55461 4.7 9.1901V5.0101C4.7 4.64559 4.40451 4.3501 4.04 4.3501Z" stroke="#E74C3C" stroke-width="1.1" stroke-linecap="round" stroke-linejoin="round"/>
<path d="M10.6401 4.3501H9.7601C9.39559 4.3501 9.1001 4.64559 9.1001 5.0101V9.1901C9.1001 9.55461 9.39559 9.8501 9.7601 9.8501H10.6401C11.0046 9.8501 11.3001 9.55461 11.3001 9.1901V5.0101C11.3001 4.64559 11.0046 4.3501 10.6401 4.3501Z" stroke="#E74C3C" stroke-width="1.1" stroke-linecap="round" stroke-linejoin="round"/>
<path d="M0.850098 8.0902V6.1102C0.850098 5.74569 1.14559 5.4502 1.5101 5.4502H1.8401C2.20461 5.4502 2.5001 5.74569 2.5001 6.11019V8.0902C2.5001 8.4547 2.20461 8.7502 1.8401 8.7502H1.5101C1.14559 8.7502 0.850098 8.4547 0.850098 8.0902Z" stroke="#E74C3C" stroke-width="1.1" stroke-linecap="round" stroke-linejoin="round"/>
<path d="M12.95 8.0902V6.1102C12.95 5.74569 12.6545 5.4502 12.29 5.4502H11.96C11.5954 5.4502 11.3 5.74569 11.3 6.11019V8.0902C11.3 8.4547 11.5954 8.7502 11.96 8.7502H12.29C12.6545 8.7502 12.95 8.4547 12.95 8.0902Z" stroke="#E74C3C" stroke-width="1.1" stroke-linecap="round" stroke-linejoin="round"/>
<path d="M4.69995 7.1001H9.09995" stroke="#E74C3C" stroke-width="1.1" stroke-linecap="round" stroke-linejoin="round"/>
</g>
<defs>
<clipPath id="clip0_4325_9520">
<rect width="13.2" height="13.2" fill="white" transform="translate(0.300049 0.500122)"/>
</clipPath>
</defs>
</svg>
