<svg width="24" height="24" viewBox="0 0 24 24" fill="none" xmlns="http://www.w3.org/2000/svg">
<g clip-path="url(#clip0_4335_3157)">
<path d="M2.5 12H5.5L8.5 3L14.5 21L17.5 12H20.5" stroke="#EEF3FF" stroke-width="1.5" stroke-linecap="round" stroke-linejoin="round"/>
<g clip-path="url(#clip1_4335_3157)">
<path d="M5.09422 18.405V19.62C5.09422 19.7347 5.1331 19.831 5.21086 19.9087C5.28862 19.9865 5.38474 20.0252 5.49922 20.025C5.6137 20.0247 5.70995 19.9858 5.78798 19.9083C5.86601 19.8308 5.90476 19.7347 5.90422 19.62V18.405H7.11922C7.23397 18.405 7.33022 18.3661 7.40798 18.2883C7.48574 18.2106 7.52449 18.1144 7.52422 18C7.52395 17.8855 7.48507 17.7894 7.40758 17.7116C7.33009 17.6338 7.23397 17.595 7.11922 17.595H5.90422V16.38C5.90422 16.2652 5.86534 16.1691 5.78758 16.0916C5.70982 16.0141 5.6137 15.9752 5.49922 15.975C5.38474 15.9747 5.28862 16.0136 5.21086 16.0916C5.1331 16.1696 5.09422 16.2657 5.09422 16.38V17.595H3.87922C3.76447 17.595 3.66835 17.6338 3.59086 17.7116C3.51337 17.7894 3.47449 17.8855 3.47422 18C3.47395 18.1144 3.51283 18.2107 3.59086 18.2887C3.66889 18.3667 3.76501 18.4055 3.87922 18.405H5.09422ZM5.49922 22.05C4.93897 22.05 4.41247 21.9436 3.91972 21.7308C3.42697 21.5181 2.99834 21.2296 2.63384 20.8653C2.26934 20.5011 1.98085 20.0725 1.76836 19.5795C1.55587 19.0864 1.44949 18.5599 1.44922 18C1.44895 17.44 1.55533 16.9135 1.76836 16.4205C1.98139 15.9274 2.26988 15.4988 2.63384 15.1346C2.9978 14.7703 3.42643 14.4819 3.91972 14.2691C4.41301 14.0563 4.93951 13.95 5.49922 13.95C6.05893 13.95 6.58543 14.0563 7.07872 14.2691C7.57201 14.4819 8.00063 14.7703 8.36459 15.1346C8.72855 15.4988 9.01718 15.9274 9.23048 16.4205C9.44378 16.9135 9.55003 17.44 9.54922 18C9.54841 18.5599 9.44203 19.0864 9.23008 19.5795C9.01813 20.0725 8.72963 20.5011 8.36459 20.8653C7.99955 21.2296 7.57093 21.5182 7.07872 21.7312C6.58651 21.9442 6.06001 22.0505 5.49922 22.05Z" fill="#EEF3FF"/>
</g>
</g>
<defs>
<clipPath id="clip0_4335_3157">
<rect width="24" height="24" fill="white"/>
</clipPath>
<clipPath id="clip1_4335_3157">
<rect width="8.1" height="8.1" fill="white" transform="translate(1.44922 13.9502)"/>
</clipPath>
</defs>
</svg>
