<svg width="14" height="14" viewBox="0 0 14 14" fill="none" xmlns="http://www.w3.org/2000/svg">
<path d="M5.585 1.2006C5.49124 1.19851 5.39968 1.22832 5.32619 1.28488C5.25269 1.34143 5.20189 1.42116 5.18258 1.51025L3.7732 7.91621L3.02029 8.64652L4.69053 10.2668L5.63445 9.35042C5.74438 9.24426 5.83157 9.11801 5.89098 8.97897C5.9504 8.83992 5.98086 8.69083 5.98061 8.5403V1.59126C5.98047 1.48877 5.93898 1.39042 5.86503 1.31728C5.79107 1.24414 5.69055 1.20264 5.585 1.2006ZM3.97348 1.25941C4.03194 0.994096 4.15927 0.747687 4.3434 0.543574C4.52753 0.33946 4.76233 0.184414 5.02553 0.093153C5.28873 0.00189183 5.57158 -0.0225565 5.84725 0.0221286C6.12291 0.0668137 6.38224 0.17915 6.60062 0.348473C6.81898 0.17898 7.07836 0.0665166 7.35412 0.0217739C7.62987 -0.0229688 7.91284 0.0014958 8.17611 0.0928422C8.43937 0.184189 8.67421 0.339381 8.85828 0.543669C9.04235 0.747956 9.16954 0.99455 9.22776 1.26001L10.5605 7.31852L13.2 9.8809L9.78162 13.1994L6.69149 10.1996C6.66058 10.1691 6.63008 10.1379 6.6 10.1059C6.57037 10.1379 6.53987 10.1691 6.50851 10.1996L3.41838 13.2L0 9.8815L2.63951 7.31852L3.97348 1.25941ZM8.01804 1.50965C7.99814 1.41417 7.94226 1.32933 7.86134 1.27173C7.78041 1.21413 7.68027 1.1879 7.58048 1.19818C7.4807 1.20846 7.38845 1.25451 7.32178 1.32731C7.25512 1.40012 7.21883 1.49445 7.22001 1.59186V8.5397C7.22001 8.84395 7.34425 9.13559 7.56617 9.34982L8.51009 10.2668L10.1791 8.64592L9.42742 7.91561L8.01804 1.50965Z" fill="#27AE60"/>
</svg>
