<svg width="36" height="36" viewBox="0 0 36 36" fill="none" xmlns="http://www.w3.org/2000/svg">
<path d="M4.5 22.5C8.22414 22.5 11.0172 18 11.0172 18C11.0172 18 13.8103 22.5 17.5345 22.5C21.2586 22.5 24.9828 18 24.9828 18C24.9828 18 28.7069 22.5 31.5 22.5" stroke="#04050C" stroke-width="2.25" stroke-linecap="round" stroke-linejoin="round"/>
<path d="M4.5 30C8.22414 30 11.0172 25.5 11.0172 25.5C11.0172 25.5 13.8103 30 17.5345 30C21.2586 30 24.9828 25.5 24.9828 25.5C24.9828 25.5 28.7069 30 31.5 30" stroke="#04050C" stroke-width="2.25" stroke-linecap="round" stroke-linejoin="round"/>
<path d="M28.5 15C28.5 9.20101 23.799 4.5 18 4.5C12.201 4.5 7.5 9.20101 7.5 15" stroke="#04050C" stroke-width="2.25" stroke-linecap="round" stroke-linejoin="round"/>
</svg>
