<svg xmlns="http://www.w3.org/2000/svg" width="44" height="44" fill="none" viewBox="0 0 44 44">
  <path fill="#FFC550" d="M22.048 7.677c-8.782 0-16.2 7.418-16.2 16.2s7.418 16.2 16.2 16.2c8.783 0 16.2-7.418 16.2-16.2s-7.417-16.2-16.2-16.2Zm0 28.8c-6.829 0-12.6-5.771-12.6-12.6 0-6.83 5.771-12.6 12.6-12.6 6.83 0 12.6 5.77 12.6 12.6 0 6.829-5.77 12.6-12.6 12.6Z"/>
  <path fill="#FFC550" d="M23.848 22.077v-7.2h-3.6v10.8h10.8v-3.6h-7.2ZM31.56 7.149l2.54-2.548L39.52 10l-2.543 2.55-5.417-5.4Zm-19.055 0-5.382 5.399-2.553-2.542 5.382-5.4 2.553 2.543Z"/>
</svg>
