<svg xmlns="http://www.w3.org/2000/svg" width="47" height="48" fill="none" viewBox="0 0 47 48">
  <path fill="#171D26" d="M37.234 13.403H6.645A5.098 5.098 0 0 0 1.547 18.5v20.507a5.098 5.098 0 0 0 5.098 5.098h30.589a5.098 5.098 0 0 0 5.098-5.098V18.501a5.098 5.098 0 0 0-5.098-5.098Z"/>
  <path fill="#5263F3" d="M39.422 3.887h-2.485c.254 2.836-.039 7.022-3.824 6.971-3.785.051-4.085-4.135-3.824-6.971H18.997c.255 2.836-.038 7.022-3.823 6.971-3.785.051-4.085-4.135-3.824-6.971-3.486-.485-7.672.968-7.615 5.098v25.49c0 2.804 2.294 5.099 5.098 5.099h30.589c2.804 0 5.098-2.294 5.098-5.099V8.985c0-2.804-2.294-5.098-5.098-5.098Z"/>
  <path fill="#fff" d="M33.75 37.496c-.198-9.54-.612-8.992 8.858-8.82l-8.858 8.82Z"/>
  <path fill="#171D26" d="M17.724 6.608c.05 3.307-5.15 3.307-5.099 0-.05-3.307 5.15-3.307 5.099 0Zm17.941-.172c.05 3.307-5.15 3.307-5.098 0-.051-3.308 5.149-3.308 5.098 0Z"/>
  <path fill="#fff" d="M31.927 23.004c-.044 10-15.25 10-15.294 0 .044-9.998 15.25-9.998 15.294 0Z"/>
  <path fill="#FFC550" d="M37.038 16.453 27.256 27.32c-.74.847-2.154.885-2.938.076-.771-1.274-6.832-5.525-5.959-7.392 1.498-3.703 4.678.376 6.124 1.822.612.638 1.734.612 2.314-.057l7.226-8.023c1.727-1.982 4.818.777 3.02 2.714h-.012l.007-.006Z"/>
</svg>
