<svg xmlns="http://www.w3.org/2000/svg" width="164" height="149" fill="none" viewBox="0 0 164 149">
  <g clip-path="url(#a)">
    <path fill="#F2F2F2" d="M109.382 52.07H54.675a3.546 3.546 0 0 1-3.542-3.543V5.559a2.598 2.598 0 0 1 2.595-2.595h56.557a2.64 2.64 0 0 1 2.639 2.64v42.923a3.545 3.545 0 0 1-3.542 3.542Z"/>
    <path fill="#fff" d="M58.107 48.527h47.837a3.435 3.435 0 0 0 3.435-3.435V12.129a3.435 3.435 0 0 0-3.435-3.435H58.107a3.435 3.435 0 0 0-3.435 3.435v32.963a3.435 3.435 0 0 0 3.435 3.435Z"/>
    <path fill="#CCC" d="M112.874 5.356H51.082V3.553A3.558 3.558 0 0 1 54.637 0h54.682a3.557 3.557 0 0 1 3.555 3.553v1.803Z"/>
    <path fill="#fff" d="M57.54 3.603a.92.92 0 1 0 0-1.84.92.92 0 0 0 0 1.84Zm3.493 0a.92.92 0 1 0 0-1.84.92.92 0 0 0 0 1.84Zm3.488 0a.92.92 0 1 0 0-1.84.92.92 0 0 0 0 1.84Z"/>
    <path fill="#6C63FF" d="M61.627 24.142h-2.369a.486.486 0 0 1-.485-.485v-2.37a.486.486 0 0 1 .485-.484h2.37a.486.486 0 0 1 .484.485v2.369a.486.486 0 0 1-.485.485Z"/>
    <path fill="#3F3D56" d="M61.627 30.28h-2.369a.486.486 0 0 1-.485-.485v-2.369a.485.485 0 0 1 .485-.485h2.37a.485.485 0 0 1 .484.485v2.37a.486.486 0 0 1-.485.484Z"/>
    <path fill="#CCC" d="M61.627 36.418h-2.369a.485.485 0 0 1-.485-.485v-2.369a.485.485 0 0 1 .485-.484h2.37a.485.485 0 0 1 .484.484v2.37a.485.485 0 0 1-.485.484Zm15.51-13.461H65.722a.484.484 0 0 1 0-.97h11.415a.485.485 0 1 1 0 .97Zm0 6.138H65.722a.485.485 0 0 1 0-.969h11.415a.484.484 0 1 1 0 .97Zm0 6.138H65.722a.485.485 0 0 1 0-.969h11.415a.483.483 0 0 1 .448.67.484.484 0 0 1-.448.3Z"/>
    <path fill="#6C63FF" d="M105.26 28.764A10.158 10.158 0 0 0 95.121 17.99v10.774h10.139Z"/>
    <path fill="#3F3D56" d="M94.354 29.688V18.915a10.158 10.158 0 1 0 10.138 10.773H94.354Z"/>
    <path fill="#CCC" d="M163.579 148.08H.426a.216.216 0 0 1-.215-.215.216.216 0 0 1 .215-.215h163.153a.215.215 0 0 1 0 .43Z"/>
    <path fill="#FFB8B8" d="M108.556 88.645c.072.097.136.2.191.307l10.758 1.21 1.565-2.114 3.499 1.944-3.08 5.135-13.18-3.46a2.293 2.293 0 0 1-3.361-3.102 2.29 2.29 0 0 1 3.608.08Zm-54.893-2.777a2.157 2.157 0 0 1-3.118-1.111l-7.67.16L45 81.543l6.957.366a2.17 2.17 0 0 1 1.706 3.959Z"/>
    <path fill="#3F3D56" d="M50.29 84.902a.968.968 0 0 1-.951.69l-14.037-.357-12.71-3.763a2.754 2.754 0 0 1-1.846-3.458 2.75 2.75 0 0 1 3.485-1.796l11.483 3.765 13.782 1.33a.971.971 0 0 1 .873.978l-.04 2.35a.968.968 0 0 1-.04.26Z"/>
    <path fill="#FFB8B8" d="M29.934 145.249h2.632l1.252-10.151h-3.884v10.151Z"/>
    <path fill="#2F2E41" d="M29.262 144.39h5.183a3.302 3.302 0 0 1 3.303 3.303v.107h-8.486v-3.41Z"/>
    <path fill="#FFB8B8" d="M22.207 145.249h2.632l1.252-10.151h-3.884v10.151Z"/>
    <path fill="#2F2E41" d="M21.535 144.39h5.183a3.303 3.303 0 0 1 3.303 3.303v.107h-8.486v-3.41Zm-1.094-40.167.629 37.288a.86.86 0 0 0 .936.841l3.08-.28a.86.86 0 0 0 .778-.789l1.803-23.259a.216.216 0 0 1 .07-.143.216.216 0 0 1 .359.151l.901 23.792a.858.858 0 0 0 .858.826h3.303a.858.858 0 0 0 .857-.806l2.312-37.835-13.739-3.435-2.147 3.649Z"/>
    <path fill="#FFB8B8" d="M30.405 70.255a5.273 5.273 0 1 0 0-10.545 5.273 5.273 0 0 0 0 10.545Z"/>
    <path fill="#3F3D56" d="m36.126 105.606-.016-.001-12.329-.189a.97.97 0 0 1-.946-.87l-.14-1.396a.107.107 0 0 0-.213 0l-.144 1.442a.966.966 0 0 1-.887.867l-.872.067a.962.962 0 0 1-1.017-.753.964.964 0 0 1 .009-.455l.75-2.861a38.972 38.972 0 0 0 .364-18.174l-.372-1.696a6.124 6.124 0 0 1 2.891-6.615l2.422-1.42 1.099-1.648a2.379 2.379 0 0 1 1.927-1.057c1.532-.033 4.161.247 4.655 2.489a6.118 6.118 0 0 1 4.14 5.89l-.356 25.427a.965.965 0 0 1-.965.953Z"/>
    <path fill="#2F2E41" d="M29.992 66.977c-.021.745-.539 1.177-1.174 1.567-.635.39-1.378.56-2.106.723a.644.644 0 0 1-.945-.563l-.667-2.539a16.064 16.064 0 0 1-.514-2.476c-.16-1.612.221-3.346 1.346-4.512 1.126-1.166 3.077-1.58 4.425-.681 1.6-2.044 8.914 2.471 7.11 3.892-.321.253-.812-.067-1.219-.098-.407-.03-.864.04-1.123.357-.338.413-.19 1.028-.33 1.544a1.441 1.441 0 0 1-1.821.933 4.955 4.955 0 0 1-.945-.607c-.312-.208-.707-.362-1.059-.23-.463.172-.628.74-.67 1.233-.07.492-.174.979-.308 1.457Z"/>
    <path fill="#000" d="m31.226 81.108.858 10.52 4.508 10.948-6.654-10.734 1.288-10.734Z" opacity=".2"/>
    <path fill="#F2F2F2" d="m86.686 138.711-47.05-27.913a3.547 3.547 0 0 1-1.24-4.854L60.32 68.99a2.598 2.598 0 0 1 3.556-.908l48.641 28.857a2.641 2.641 0 0 1 .924 3.618L91.54 137.472a3.545 3.545 0 0 1-4.854 1.239Z"/>
    <path fill="#fff" d="m44.397 109.504 41.142 24.409a3.436 3.436 0 0 0 4.707-1.202l16.819-28.349a3.436 3.436 0 0 0-1.202-4.707L64.721 75.247a3.434 3.434 0 0 0-4.707 1.201l-16.818 28.35a3.434 3.434 0 0 0 1.201 4.706Z"/>
    <path fill="#CCC" d="M113.526 100.319 60.383 68.791l.92-1.551a3.558 3.558 0 0 1 4.87-1.242l47.029 27.9a3.556 3.556 0 0 1 1.244 4.87l-.92 1.551Z"/>
    <path fill="#fff" d="M67.302 70.708a.92.92 0 1 0 0-1.84.92.92 0 0 0 0 1.84Zm3 1.781a.92.92 0 1 0 0-1.84.92.92 0 0 0 0 1.84Zm3.004 1.781a.92.92 0 1 0 0-1.84.92.92 0 0 0 0 1.84Z"/>
    <path fill="#E6E6E6" d="m101.7 105.701-.059.101.605.359.059-.101-.605-.359Zm-1.284-.624-1.222-.725.06-.101 1.222.725-.06.101Zm-2.444-1.45-1.221-.725.06-.101 1.221.725-.06.101Zm-2.444-1.45-1.222-.725.06-.101 1.222.725-.06.101Zm-2.444-1.45-1.221-.725.06-.1 1.221.724-.06.101Zm-2.443-1.45-1.222-.725.06-.1 1.221.725-.06.1Zm-2.444-1.45-1.222-.725.06-.1 1.222.725-.06.1Zm-2.444-1.45-1.222-.724.06-.101 1.222.725-.06.1Zm-2.444-1.45-1.222-.724.06-.101 1.222.725-.06.1Zm-2.444-1.45-1.222-.724.06-.101 1.222.725-.06.1Zm-2.444-1.45-1.222-.724.06-.101 1.222.725-.06.1Zm-2.444-1.45-1.222-.724.06-.101 1.222.725-.06.1Zm-2.444-1.45-1.222-.724.06-.1 1.222.724-.06.1Zm-2.444-1.449-1.222-.725.06-.1 1.222.724-.06.101Zm-2.444-1.45-1.222-.725.06-.1 1.222.724-.06.101Zm-2.444-1.45-1.222-.725.06-.1 1.222.724-.06.101Zm-2.444-1.45-1.222-.725.06-.1 1.222.724-.06.101Zm-2.987-1.91-.06.101.606.359.06-.1-.605-.36Zm15.509 21.876-.06.101.605.359.06-.101-.605-.359Zm-1.265-.613-1.203-.714.06-.101 1.203.714-.06.101Zm-2.407-1.429-1.204-.714.06-.101 1.204.715-.06.1Zm-2.408-1.428-1.204-.714.06-.1 1.204.713-.06.101Zm-2.407-1.428-1.204-.715.06-.1 1.203.714-.06.1Zm-2.408-1.429-1.204-.714.06-.1 1.204.713-.06.101Zm-2.408-1.428-1.204-.714.06-.101 1.204.714-.06.1ZM60.57 94.11l-1.204-.715.06-.1 1.203.714-.06.1Zm-2.408-1.429-1.204-.714.06-.1 1.204.713-.06.101Zm-2.954-1.887-.06.101.605.359.06-.1-.605-.36Zm6.645 9.938-.06.101.605.359.06-.101-.605-.359Zm-1.301-.634-1.238-.735.06-.1 1.238.734-.06.101Zm-2.477-1.47-1.239-.734.06-.101 1.239.735-.06.1Zm-2.477-1.47-1.239-.734.06-.1 1.239.734-.06.1Zm-3.023-1.928-.06.1.605.36.06-.101-.605-.36Zm4.785 13.072-.06.101.606.359.06-.101-.605-.359Zm-1.3-.634-1.239-.735.06-.101 1.239.735-.06.101Zm-2.477-1.47-1.239-.735.06-.1 1.239.734-.06.101Zm-2.477-1.469-1.239-.735.06-.101 1.239.735-.06.101Zm-3.023-1.929-.06.1.605.359.06-.101-.605-.358Z"/>
    <path fill="#6C63FF" d="m51.39 105.001 34.866 20.684a3.707 3.707 0 0 0 5.073-1.295l10.187-17.171-.07-.039-23.113 5.9-1.83-7.169a.876.876 0 0 0-.513-.598.937.937 0 0 0-.605-.034l-12.113 3.091-1.338-5.241a.878.878 0 0 0-.408-.545.89.89 0 0 0-.674-.097c-.081.022-7.963 2.11-9.461 2.514Z"/>
    <path fill="#3F3D56" d="m51.181 105.014-.029-.114 9.693-2.474a.997.997 0 0 1 1.212.719l1.311 5.138 12.045-3.075a.997.997 0 0 1 1.212.719l1.804 7.066 23.233-5.931.029.113-23.347 5.96-1.832-7.179a.873.873 0 0 0-.404-.539.888.888 0 0 0-.666-.095l-12.158 3.104-1.341-5.252a.881.881 0 0 0-1.07-.635l-9.692 2.475Zm11.245-3.052a.82.82 0 1 0 0-1.64.82.82 0 0 0 0 1.64Z"/>
    <path fill="#3F3D56" d="M76.852 104.524a.82.82 0 1 0 0-1.64.82.82 0 0 0 0 1.64Zm25.133 1.976a.82.82 0 1 0 0-1.64.82.82 0 0 0 0 1.64Z"/>
    <path fill="#FFB8B8" d="M37.647 106.653a2.165 2.165 0 0 1-.806-1.639 2.157 2.157 0 0 1 .738-1.671l-2.872-7.113 3.908.79 2.128 6.633a2.173 2.173 0 0 1-1.632 3.485 2.172 2.172 0 0 1-1.464-.485Z"/>
    <path fill="#3F3D56" d="M37.598 103.571a.972.972 0 0 1-.982-.644l-4.65-13.25-.993-13.218a2.751 2.751 0 1 1 5.493-.333l.556 12.072 3.649 13.357a.97.97 0 0 1-.604 1.164l-2.212.797a.981.981 0 0 1-.257.055Z"/>
    <path fill="#6C63FF" d="M123.803 91.83a.986.986 0 0 1-.239-.149l-4.324-3.642a.98.98 0 0 1-.283-1.106.98.98 0 0 1 .22-.338l3.924-3.94a.976.976 0 0 1 1.273-.102l2.967 2.155a.984.984 0 0 1 .311 1.215l-2.567 5.427a.985.985 0 0 1-1.282.48Z"/>
    <path fill="#FFB8B8" d="m140.666 143.345-2.582.702-3.939-9.626 3.811-1.037 2.71 9.961Z"/>
    <path fill="#2F2E41" d="m135.986 143.826 5.032-1.37.853 3.136-8.115 2.208-.015-.052a3.197 3.197 0 0 1 2.245-3.922Z"/>
    <path fill="#FFB8B8" d="m118.59 145.316-2.676-.001-1.273-10.322h3.95l-.001 10.323Z"/>
    <path fill="#2F2E41" d="M113.95 144.55h5.215v3.25h-8.411v-.054a3.2 3.2 0 0 1 3.196-3.196Z"/>
    <path fill="#FFB8B8" d="M122.623 77.16a5.362 5.362 0 1 0 0-10.724 5.362 5.362 0 0 0 0 10.724Z"/>
    <path fill="#2F2E41" d="M118.429 137.955h-3.658a.982.982 0 0 1-.981-.922c-1.09-17.324-.452-29.751 2.006-39.108.011-.04.024-.08.04-.12l.196-.49a.974.974 0 0 1 .912-.617h7.521a.979.979 0 0 1 .745.343l1.022 1.192c.02.023.038.046.056.072 4.607 6.423 8.735 18.981 13.515 35.86a.977.977 0 0 1-.645 1.205l-3.931 1.257a.988.988 0 0 1-1.184-.509l-10.199-21.154a.764.764 0 0 0-1.445.228l-2.997 21.914a.985.985 0 0 1-.973.849Z"/>
    <path fill="#6C63FF" d="M125.817 98.32h-.031l-9.135-.289a.98.98 0 0 1-.945-.863c-1.158-9.374 2.018-11.885 3.437-12.53a.755.755 0 0 0 .44-.598l.122-.983a.98.98 0 0 1 .194-.477c2.226-2.883 5.264-3.806 6.877-4.1a.983.983 0 0 1 1.147.841l.184 1.41a.772.772 0 0 0 .155.37c4.641 6.067-.529 15.025-1.613 16.759a.982.982 0 0 1-.832.46Z"/>
    <path fill="#2F2E41" d="M128.522 68.464a22.31 22.31 0 0 1-.879-3.704c-.058-.732.129-1.52.662-2.024.998-.946 2.693-.495 3.736.4 1.508 1.292 2.26 3.279 2.545 5.245.284 1.966.159 3.965.227 5.95.069 1.985.353 4.026 1.365 5.735 1.012 1.71 2.89 3.021 4.871 2.876a3.431 3.431 0 0 0 2.146-.91 2.49 2.49 0 0 0 .747-2.16c1.012 1.813.499 4.27-1.011 5.695-1.51 1.426-3.833 1.828-5.819 1.22-1.985-.609-3.619-2.135-4.595-3.967-.976-1.833-1.334-3.95-1.282-6.026.04-1.595.311-3.202.041-4.773-.269-1.572-1.253-3.168-2.804-3.538l.05-.019Z"/>
    <path fill="#2F2E41" d="M121.555 70.53c-.264.884-1.276 1.429-2.186 1.28a2.563 2.563 0 0 1-1.934-1.78 3.66 3.66 0 0 1 .286-2.683 4.17 4.17 0 0 1 2.392-2.13 3.431 3.431 0 0 1 3.12.498 1.146 1.146 0 0 1 .802-.839 2.2 2.2 0 0 1 1.204.018 4.963 4.963 0 0 1 2.76 2.008 8.071 8.071 0 0 1 1.251 3.225c.308 1.728.194 3.617-.777 5.08-.97 1.463-2.957 2.327-4.568 1.63-.1-.514.138-1.032.413-1.477.275-.445.602-.878.707-1.39.106-.513-.097-1.14-.592-1.308-.423-.143-.874.089-1.32.117a1.446 1.446 0 0 1-1.387-2.084l-.171-.164Z"/>
    <path fill="#FFB8B8" d="M107.968 92.618a2.2 2.2 0 0 1 .245.266l10.794-.84 1.138-2.371 3.802 1.25-2.056 5.623-13.596-.912a2.294 2.294 0 0 1-3.605.175 2.29 2.29 0 0 1 3.278-3.19Z"/>
    <path fill="#6C63FF" d="M123.89 94.668a.99.99 0 0 1-.258-.115l-4.78-3.02a.978.978 0 0 1-.442-.654.996.996 0 0 1 .183-.768l3.35-4.438a.976.976 0 0 1 1.247-.273l3.233 1.73a.98.98 0 0 1 .474 1.16l-1.803 5.727a.986.986 0 0 1-1.204.651Z"/>
  </g>
  <defs>
    <clipPath id="a">
      <path fill="#fff" d="M.21 0h163.582v148.08H.21z"/>
    </clipPath>
  </defs>
</svg>
