<svg width="24" height="25" viewBox="0 0 24 25" fill="none" xmlns="http://www.w3.org/2000/svg">
<g clip-path="url(#clip0_4333_120)">
<path d="M2.5 12.5H5.5L8.5 3.5L14.5 21.5L17.5 12.5H20.5" stroke="#EEF3FF" stroke-width="1.5" stroke-linecap="round" stroke-linejoin="round"/>
<g clip-path="url(#clip1_4333_120)">
<path d="M5.09422 18.9052V20.1202C5.09422 20.2349 5.1331 20.3312 5.21086 20.409C5.28862 20.4867 5.38474 20.5255 5.49922 20.5252C5.6137 20.5249 5.70995 20.486 5.78798 20.4086C5.86601 20.3311 5.90476 20.2349 5.90422 20.1202V18.9052H7.11922C7.23397 18.9052 7.33022 18.8663 7.40798 18.7886C7.48574 18.7108 7.52449 18.6147 7.52422 18.5002C7.52395 18.3857 7.48507 18.2896 7.40758 18.2118C7.33009 18.1341 7.23397 18.0952 7.11922 18.0952H5.90422V16.8802C5.90422 16.7654 5.86534 16.6693 5.78758 16.5918C5.70982 16.5143 5.6137 16.4755 5.49922 16.4752C5.38474 16.4749 5.28862 16.5138 5.21086 16.5918C5.1331 16.6699 5.09422 16.766 5.09422 16.8802V18.0952H3.87922C3.76447 18.0952 3.66835 18.1341 3.59086 18.2118C3.51337 18.2896 3.47449 18.3857 3.47422 18.5002C3.47395 18.6147 3.51283 18.7109 3.59086 18.789C3.66889 18.867 3.76501 18.9057 3.87922 18.9052H5.09422ZM5.49922 22.5502C4.93897 22.5502 4.41247 22.4438 3.91972 22.2311C3.42697 22.0183 2.99834 21.7298 2.63384 21.3656C2.26934 21.0013 1.98085 20.5727 1.76836 20.0797C1.55587 19.5867 1.44949 19.0602 1.44922 18.5002C1.44895 17.9402 1.55533 17.4137 1.76836 16.9207C1.98139 16.4277 2.26988 15.9991 2.63384 15.6348C2.9978 15.2706 3.42643 14.9821 3.91972 14.7693C4.41301 14.5566 4.93951 14.4502 5.49922 14.4502C6.05893 14.4502 6.58543 14.5566 7.07872 14.7693C7.57201 14.9821 8.00063 15.2706 8.36459 15.6348C8.72855 15.9991 9.01718 16.4277 9.23048 16.9207C9.44378 17.4137 9.55003 17.9402 9.54922 18.5002C9.54841 19.0602 9.44203 19.5867 9.23008 20.0797C9.01813 20.5727 8.72963 21.0013 8.36459 21.3656C7.99955 21.7298 7.57093 22.0184 7.07872 22.2315C6.58651 22.4445 6.06001 22.5507 5.49922 22.5502Z" fill="#EEF3FF"/>
</g>
</g>
<defs>
<clipPath id="clip0_4333_120">
<rect width="24" height="24" fill="white" transform="translate(0 0.5)"/>
</clipPath>
<clipPath id="clip1_4333_120">
<rect width="8.1" height="8.1" fill="white" transform="translate(1.44922 14.4502)"/>
</clipPath>
</defs>
</svg>
