<svg width="33" height="33" viewBox="0 0 33 33" fill="none" xmlns="http://www.w3.org/2000/svg">
<path d="M16.0501 29.8332C23.4139 29.8332 29.3835 23.8636 29.3835 16.4998C29.3835 9.13604 23.4139 3.1665 16.0501 3.1665C8.68633 3.1665 2.7168 9.13604 2.7168 16.4998C2.7168 23.8636 8.68633 29.8332 16.0501 29.8332Z" stroke="#5263F3" stroke-width="3" stroke-linecap="round" stroke-linejoin="round"/>
<path d="M16.0508 24.5C20.4691 24.5 24.0508 20.9183 24.0508 16.5C24.0508 12.0817 20.4691 8.5 16.0508 8.5C11.6325 8.5 8.05078 12.0817 8.05078 16.5C8.05078 20.9183 11.6325 24.5 16.0508 24.5Z" stroke="#5263F3" stroke-width="3" stroke-linecap="round" stroke-linejoin="round"/>
<path d="M16.0514 19.1668C17.5242 19.1668 18.7181 17.9729 18.7181 16.5002C18.7181 15.0274 17.5242 13.8335 16.0514 13.8335C14.5787 13.8335 13.3848 15.0274 13.3848 16.5002C13.3848 17.9729 14.5787 19.1668 16.0514 19.1668Z" stroke="#5263F3" stroke-width="3" stroke-linecap="round" stroke-linejoin="round"/>
</svg>
