<svg width="25" height="24" viewBox="0 0 25 24" fill="none" xmlns="http://www.w3.org/2000/svg">
<path d="M9.5 21H7.5C5.29086 21 3.5 19.2091 3.5 17V10.7076C3.5 9.30887 4.23061 8.01175 5.42679 7.28679L10.4268 4.25649C11.7011 3.48421 13.2989 3.48421 14.5732 4.25649L19.5732 7.28679C20.7694 8.01175 21.5 9.30887 21.5 10.7076V17C21.5 19.2091 19.7091 21 17.5 21H15.5M9.5 21V17C9.5 15.3431 10.8431 14 12.5 14V14C14.1569 14 15.5 15.3431 15.5 17V21M9.5 21H15.5" stroke="#04050C" stroke-width="2" stroke-linecap="round" stroke-linejoin="round"/>
</svg>
