<svg width="47" height="48" viewBox="0 0 47 48" fill="none" xmlns="http://www.w3.org/2000/svg">
<path d="M37.2337 13.4028H6.645C3.82938 13.4028 1.54688 15.6853 1.54688 18.501V39.0081C1.54688 41.8237 3.82938 44.1063 6.645 44.1063H37.2337C40.0494 44.1063 42.3319 41.8237 42.3319 39.0081V18.501C42.3319 15.6853 40.0494 13.4028 37.2337 13.4028Z" fill="#171D26"/>
<path d="M39.4218 3.88678H36.9365C37.1914 6.72261 36.8983 10.9094 33.1129 10.8585C29.3276 10.9094 29.028 6.72261 29.2893 3.88678H18.9975C19.2524 6.72261 18.9592 10.9094 15.1739 10.8585C11.3885 10.9094 11.089 6.72261 11.3503 3.88678C7.86445 3.40246 3.6776 4.85542 3.73496 8.9849V34.4755C3.73496 37.2795 6.02911 39.5736 8.83308 39.5736H39.4218C42.2258 39.5736 44.5199 37.2795 44.5199 34.4755V8.9849C44.5199 6.18093 42.2258 3.88678 39.4218 3.88678Z" fill="#5263F3"/>
<path d="M33.7498 37.4961C33.5523 27.9563 33.138 28.5043 42.6078 28.6764L33.7498 37.4961Z" fill="white"/>
<path d="M17.7235 6.608C17.7745 9.9154 12.5744 9.9154 12.6254 6.608C12.5744 3.30059 17.7745 3.30059 17.7235 6.608Z" fill="#171D26"/>
<path d="M35.6649 6.43563C35.7159 9.74304 30.5158 9.74304 30.5668 6.43563C30.5158 3.12823 35.7159 3.12823 35.6649 6.43563Z" fill="#171D26"/>
<path d="M31.9272 23.0044C31.8826 33.0031 16.6774 33.0031 16.6328 23.0044C16.6774 13.0057 31.8826 13.0057 31.9272 23.0044Z" fill="white"/>
<path d="M37.0375 16.4532L27.2555 27.3185C26.5162 28.1661 25.1015 28.2043 24.3176 27.395C23.5465 26.1205 17.4862 21.8699 18.3592 20.0027C19.8568 16.3002 23.0367 20.3787 24.4833 21.8253C25.0951 22.4626 26.2167 22.4371 26.7966 21.768L34.0232 13.7448C35.7502 11.7629 38.8409 14.5223 37.0439 16.4595H37.0311L37.0375 16.4532Z" fill="#FFC550"/>
</svg>
