<svg width="240" height="291" viewBox="0 0 240 291" fill="none" xmlns="http://www.w3.org/2000/svg">
<path d="M99.9843 234.594H22.8262V290.431H99.9843V234.594Z" fill="#EBEBEB"/>
<path d="M80.6614 290.041C80.5577 290.041 80.4688 277.592 80.4688 262.238C80.4688 246.883 80.5577 234.434 80.6614 234.434C80.7651 234.434 80.854 246.883 80.854 262.238C80.854 277.592 80.7651 290.041 80.6614 290.041Z" fill="#E0E0E0"/>
<path d="M93.447 277.721H87.5352V283.998H93.447V277.721Z" fill="#FAFAFA"/>
<path d="M55.1352 234.742H46.3711V246.656H55.1352V234.742Z" fill="#E0E0E0"/>
<path d="M55.1352 278.349H46.3711V290.263H55.1352V278.349Z" fill="#E0E0E0"/>
<path d="M240.001 220.595H142.707V291H240.001V220.595Z" fill="#EBEBEB"/>
<path d="M215.618 290.501C215.515 290.501 215.426 274.813 215.426 255.455C215.426 236.097 215.515 220.409 215.618 220.409C215.722 220.409 215.811 236.097 215.811 255.455C215.811 274.813 215.73 290.501 215.618 290.501Z" fill="#E0E0E0"/>
<path d="M231.745 274.973H224.285V282.883H231.745V274.973Z" fill="#FAFAFA"/>
<path d="M183.434 220.774H172.381V235.795H183.434V220.774Z" fill="#E0E0E0"/>
<path d="M183.434 275.767H172.381V290.788H183.434V275.767Z" fill="#E0E0E0"/>
<path d="M179.448 10.8093L173.24 10.8408L173.407 39.8255L179.615 39.794L179.448 10.8093Z" fill="#E0E0E0"/>
<path d="M135.533 10.8876L119.457 10.9692L119.549 26.9699L135.625 26.8883L135.533 10.8876Z" fill="#EBEBEB"/>
<path d="M151.535 10.8041L135.459 10.8857L135.551 26.8864L151.627 26.8048L151.535 10.8041Z" fill="#F5F5F5"/>
<path d="M119.477 15.3953C130.164 15.4787 140.857 15.4324 151.555 15.2563C151.6 15.2563 151.643 15.2394 151.675 15.2095C151.707 15.1795 151.725 15.1388 151.725 15.0964C151.725 15.054 151.707 15.0134 151.675 14.9834C151.643 14.9534 151.6 14.9366 151.555 14.9366C140.872 14.8809 130.159 14.9366 119.477 15.1242C119.444 15.1312 119.415 15.1484 119.394 15.1731C119.373 15.1977 119.361 15.2283 119.361 15.2598C119.361 15.2913 119.373 15.3218 119.394 15.3465C119.415 15.3711 119.444 15.3883 119.477 15.3953Z" fill="#E0E0E0"/>
<path d="M138.648 26.6212L109.438 26.7695L109.513 39.8092L138.723 39.6609L138.648 26.6212Z" fill="#EBEBEB"/>
<path d="M167.719 26.4738L138.508 26.6221L138.583 39.6617L167.794 39.5134L167.719 26.4738Z" fill="#F5F5F5"/>
<path d="M109.457 30.4107C128.859 30.6123 148.328 30.4107 167.738 30.1396C167.784 30.1396 167.827 30.1228 167.859 30.0928C167.891 30.0628 167.909 30.0222 167.909 29.9798C167.909 29.9374 167.891 29.8967 167.859 29.8667C167.827 29.8367 167.784 29.8199 167.738 29.8199C148.336 29.7226 128.859 29.7295 109.457 30.1327C109.417 30.1327 109.38 30.1473 109.352 30.1734C109.324 30.1995 109.309 30.2348 109.309 30.2717C109.309 30.3086 109.324 30.3439 109.352 30.37C109.38 30.3961 109.417 30.4107 109.457 30.4107Z" fill="#E0E0E0"/>
<path d="M211.696 39.8208H98.5254V44.4918H211.696V39.8208Z" fill="#E0E0E0"/>
<path d="M121.65 42.0698H117.057V58.0082H121.65V42.0698Z" fill="#E0E0E0"/>
<path d="M190.23 42.0698H185.637V58.0082H190.23V42.0698Z" fill="#E0E0E0"/>
<path d="M185.509 0.000711328L179.301 0.0322266L179.531 39.8949L185.739 39.8634L185.509 0.000711328Z" fill="#EBEBEB"/>
<path d="M195.204 7.42174L185.559 7.4707L185.745 39.7779L195.39 39.7289L195.204 7.42174Z" fill="#F5F5F5"/>
<path d="M195.139 13.6588C191.932 13.8713 188.714 13.8713 185.508 13.6588C188.714 13.4555 191.932 13.4555 195.139 13.6588Z" fill="#E0E0E0"/>
<path d="M195.14 12.3395C193.538 12.4917 191.926 12.5428 190.317 12.4925C188.708 12.5425 187.096 12.4914 185.494 12.3395C188.7 12.1271 191.919 12.1271 195.125 12.3395H195.14Z" fill="#E0E0E0"/>
<path d="M195.139 34.8795C191.932 35.092 188.714 35.092 185.508 34.8795C188.714 34.6762 191.932 34.6762 195.139 34.8795Z" fill="#E0E0E0"/>
<path d="M195.139 33.528C191.932 33.7313 188.714 33.7313 185.508 33.528C188.714 33.3155 191.932 33.3155 195.139 33.528Z" fill="#E0E0E0"/>
<path d="M190.472 30.5675C190.383 30.5675 190.309 27.3075 190.309 23.2899C190.309 19.2723 190.383 16.0054 190.472 16.0054C190.56 16.0054 190.642 19.2653 190.642 23.2899C190.642 27.3144 190.568 30.5675 190.472 30.5675Z" fill="#E0E0E0"/>
<path d="M205.75 15.3711H195.252V39.7548H205.75V15.3711Z" fill="#EBEBEB"/>
<path d="M182.305 8.49534C183.291 8.49534 184.09 7.74534 184.09 6.82018C184.09 5.89501 183.291 5.14502 182.305 5.14502C181.319 5.14502 180.52 5.89501 180.52 6.82018C180.52 7.74534 181.319 8.49534 182.305 8.49534Z" fill="#E0E0E0"/>
<path d="M182.864 11.4307H181.76V35.147H182.864V11.4307Z" fill="#E0E0E0"/>
<path d="M239.961 290.62C239.961 290.724 187.122 290.8 121.963 290.8C56.8037 290.8 3.95312 290.724 3.95312 290.62C3.95312 290.515 56.7817 290.439 121.963 290.439C187.144 290.439 239.961 290.522 239.961 290.62Z" fill="#263238"/>
<path d="M149.182 59.2836C149.182 59.2836 148.982 59.2836 148.597 59.2836C148.034 59.2523 147.47 59.2523 146.908 59.2836C144.732 59.4031 142.594 59.8734 140.588 60.6738C137.409 61.9242 134.642 63.9467 132.572 66.5334C131.296 68.1485 130.347 69.9697 129.772 71.9064C128.475 76.5198 129.176 81.4271 131.721 85.5579C132.414 86.7016 133.261 87.7574 134.239 88.6997C135.227 89.698 136.377 90.5427 137.647 91.202C138.951 91.8902 140.427 92.2382 141.922 92.2099C143.463 92.1925 144.942 91.6318 146.063 90.639C146.605 90.1061 147.03 89.4783 147.314 88.7913C147.597 88.1043 147.733 87.3717 147.715 86.6353C147.704 85.1052 147.186 83.6163 146.233 82.3744C144.315 79.8373 141.203 78.1344 137.892 77.2169C134.458 76.312 130.832 76.2641 127.372 77.0778C125.606 77.5089 123.904 78.1439 122.304 78.9685C120.69 79.8233 119.224 80.9038 117.956 82.1728C117.652 82.4995 117.304 82.7984 117.03 83.1599L116.193 84.2164C115.684 84.9609 115.228 85.7365 114.829 86.538C114.037 88.1653 113.496 89.8902 113.222 91.6608C112.684 95.1979 113.197 98.8057 114.703 102.087C116.144 105.293 118.652 107.976 121.853 109.733C123.404 110.565 125.137 111.057 126.92 111.172C128.668 111.264 130.407 110.872 131.921 110.046C133.423 109.267 134.61 108.045 135.299 106.57C135.948 105.117 135.993 103.487 135.425 102.004C134.839 100.572 133.882 99.3013 132.639 98.3058C131.434 97.3286 130.044 96.5718 128.542 96.0746C125.613 95.208 122.478 95.1573 119.519 95.9286C116.75 96.6326 114.206 97.9618 112.111 99.8002C110.202 101.516 108.748 103.628 107.866 105.966C106.322 110.022 106.393 114.466 108.066 118.477C109.37 121.472 111.469 124.104 114.163 126.123C115.86 127.4 117.75 128.433 119.771 129.189C120.467 129.432 121.008 129.613 121.378 129.71L121.927 129.877C121.927 129.877 121.734 129.842 121.364 129.745C120.816 129.607 120.277 129.442 119.749 129.251C117.701 128.529 115.786 127.511 114.074 126.234C111.334 124.217 109.194 121.572 107.858 118.554C106.156 114.504 106.07 110.015 107.614 105.91C108.498 103.537 109.967 101.393 111.903 99.6543C114.029 97.779 116.61 96.419 119.423 95.6923C122.444 94.9013 125.646 94.9496 128.639 95.8313C130.185 96.3372 131.615 97.1132 132.854 98.1181C134.145 99.1463 135.139 100.464 135.743 101.948C136.352 103.498 136.326 105.205 135.669 106.737C134.938 108.27 133.699 109.541 132.135 110.359C130.566 111.217 128.764 111.627 126.95 111.54C125.123 111.421 123.349 110.912 121.764 110.053C118.49 108.271 115.919 105.542 114.437 102.275C112.898 98.9332 112.37 95.2584 112.911 91.6538C113.194 89.8474 113.747 88.0877 114.555 86.4268C114.962 85.6082 115.428 84.8164 115.948 84.0565L116.807 82.9791C117.082 82.6107 117.437 82.284 117.748 81.9643C119.046 80.6712 120.545 79.5698 122.193 78.6974C123.83 77.8571 125.572 77.2126 127.379 76.779C130.905 75.95 134.6 76.0003 138.099 76.9249C141.477 77.8702 144.641 79.601 146.634 82.2284C147.635 83.5222 148.179 85.078 148.189 86.677C148.225 88.2506 147.594 89.7733 146.434 90.9101C145.248 91.954 143.688 92.542 142.063 92.5574C140.507 92.5906 138.971 92.2279 137.618 91.5079C136.317 90.8346 135.141 89.9685 134.136 88.943C133.144 87.9795 132.285 86.903 131.58 85.7386C128.99 81.5311 128.286 76.5309 129.624 71.8369C130.217 69.8778 131.189 68.0376 132.491 66.4082C134.599 63.802 137.413 61.7737 140.64 60.5348C142.662 59.7498 144.817 59.3074 147.004 59.228C147.571 59.1929 148.141 59.1929 148.708 59.228L149.182 59.2836Z" fill="#263238"/>
<path d="M173.923 128.835H70.0508V204.002H173.923V128.835Z" fill="#7F94FA"/>
<path d="M70.0508 128.835L89.2384 145.628H191.348L173.923 128.835H70.0508Z" fill="#7F94FA"/>
<path d="M70.0508 128.836L173.953 128.662H174.035L174.094 128.711L191.34 145.33L191.518 145.504L191.837 145.81H191.378L89.2681 145.733H89.2236L70.0508 128.836L89.3125 145.518H89.231L191.34 145.448L191.207 145.754L191.022 145.581L173.783 128.961L173.916 129.017L70.0508 128.836Z" fill="#263238"/>
<path d="M101.256 163.499C100.693 163.518 100.161 163.743 99.7741 164.127C99.3869 164.51 99.1757 165.021 99.1859 165.549C99.1961 166.078 99.4269 166.581 99.8286 166.951C100.23 167.321 100.771 167.529 101.334 167.529C101.897 167.529 102.438 167.321 102.839 166.951C103.241 166.581 103.472 166.078 103.482 165.549C103.492 165.021 103.281 164.51 102.894 164.127C102.507 163.743 101.974 163.518 101.412 163.499" fill="#263238"/>
<path d="M125.798 163.499C125.237 163.519 124.708 163.744 124.323 164.127C123.938 164.509 123.728 165.018 123.739 165.544C123.749 166.07 123.98 166.571 124.38 166.94C124.78 167.308 125.319 167.515 125.879 167.515C126.44 167.515 126.978 167.308 127.379 166.94C127.779 166.571 128.009 166.07 128.02 165.544C128.031 165.018 127.821 164.509 127.436 164.127C127.051 163.744 126.521 163.519 125.961 163.499" fill="#263238"/>
<path d="M125.935 181.488C125.507 179.953 124.811 178.494 123.876 177.172C122.835 175.758 121.499 174.556 119.949 173.641C118.079 172.476 115.898 171.828 113.654 171.771C111.41 171.713 109.194 172.248 107.259 173.314C105.66 174.152 104.257 175.281 103.132 176.637C102.119 177.91 101.34 179.334 100.828 180.849C100.834 180.736 100.854 180.624 100.887 180.515C100.958 180.202 101.05 179.893 101.162 179.591C101.567 178.474 102.16 177.426 102.917 176.484C104.034 175.065 105.455 173.881 107.088 173.008C109.074 171.896 111.355 171.337 113.667 171.396C115.978 171.455 118.224 172.13 120.142 173.342C121.719 174.293 123.066 175.543 124.098 177.012C124.802 177.992 125.334 179.072 125.676 180.209C125.767 180.518 125.839 180.831 125.891 181.148C125.916 181.26 125.931 181.374 125.935 181.488Z" fill="#263238"/>
<path opacity="0.5" d="M70.2871 129.662L88.6598 151.515H173.923V145.628H89.2377L70.2871 129.662Z" fill="black"/>
<path d="M153.439 203.837C153.335 203.837 153.246 190.762 153.246 174.643C153.246 158.524 153.335 145.449 153.439 145.449C153.542 145.449 153.639 158.517 153.639 174.643C153.639 190.769 153.55 203.837 153.439 203.837Z" fill="#263238"/>
<path d="M169.752 186.789H160.596V196.499H169.752V186.789Z" fill="#F5F5F5"/>
<path d="M70.0478 128.835L48.7266 145.628H70.0478V128.835Z" fill="#7F94FA"/>
<g opacity="0.4">
<path d="M70.0478 128.835L48.7266 145.628H70.0478V128.835Z" fill="black"/>
</g>
<path d="M176.989 204.005H57.5586V290.432H176.989V204.005Z" fill="#7F94FA"/>
<path opacity="0.3" d="M176.989 204.005H57.5586V290.432H176.989V204.005Z" fill="black"/>
<path d="M147.064 289.819C146.96 289.819 146.871 270.558 146.871 246.8C146.871 223.042 146.96 203.774 147.064 203.774C147.167 203.774 147.256 223.035 147.256 246.8C147.256 270.565 147.167 289.819 147.064 289.819Z" fill="#263238"/>
<path d="M166.864 270.755H157.707V280.466H166.864V270.755Z" fill="#F5F5F5"/>
<path d="M107.557 204.229H93.9922V222.67H107.557V204.229Z" fill="#263238"/>
<path d="M107.557 271.729H93.9922V290.17H107.557V271.729Z" fill="#263238"/>
<path d="M175.952 204H175.64H174.744L171.299 204.035L158.609 204.091L116.759 204.181L74.8942 204.132L62.211 204.077L58.7662 204.042L62.211 204.007L74.8942 203.952L116.759 203.896L158.609 203.952L171.299 204.007L174.744 204.042H175.64L175.952 204Z" fill="#263238"/>
<path d="M46.2454 119.212L33.2363 116.209H33.3326C29.9736 118.214 26.0894 119.308 22.109 119.372C19.7525 119.382 17.4077 119.061 15.1525 118.419C11.1877 117.225 7.67014 114.99 5.01565 111.98C2.36116 108.97 0.680681 105.309 0.172812 101.431C-0.226067 98.4985 0.0675701 95.5193 1.0329 92.7048C1.99824 89.8903 3.61164 87.3096 5.75872 85.1455C6.88738 83.9823 8.15233 82.9424 9.52957 82.0454C10.226 81.6353 10.9223 81.2113 11.6484 80.8568L12.7522 80.3563L13.3004 80.1061L13.8783 79.9115C16.8531 78.8296 20.0442 78.3717 23.2276 78.5699C27.4941 78.8299 31.583 80.2689 34.9792 82.7057C38.3753 85.1425 40.9266 88.4681 42.3116 92.2632C43.081 94.3861 43.4861 96.6103 43.5117 98.8526C43.5303 102.579 42.4509 106.238 40.3928 109.425V109.314C44.0081 115.437 45.8305 118.531 46.238 119.212C45.8157 118.517 43.9266 115.479 40.1854 109.418V109.362V109.307C42.1696 106.15 43.1944 102.545 43.1487 98.8804C43.1143 96.674 42.7042 94.487 41.9337 92.4022C40.5639 88.6847 38.0555 85.429 34.7228 83.0427C31.3902 80.6564 27.3812 79.2457 23.198 78.987C20.0772 78.7962 16.9497 79.2469 14.0339 80.3077L13.4708 80.4953L12.93 80.7456L11.8484 81.2321C11.1076 81.5866 10.4556 81.9967 9.76664 82.3999C8.41598 83.2728 7.17354 84.2846 6.06246 85.4166C3.95464 87.541 2.37033 90.0743 1.42169 92.8369C0.473045 95.5996 0.183266 98.5242 0.572864 101.404C1.2597 106.679 4.14426 111.484 8.59612 114.77C10.5864 116.25 12.8452 117.38 15.2636 118.107C17.4783 118.749 19.7835 119.075 22.1016 119.073C26.0343 119.033 29.8792 117.977 33.2141 116.021H33.2586H33.34L46.2454 119.212Z" fill="#263238"/>
<path d="M20.0054 89.8971L20.6647 100.115C20.691 100.518 20.8735 100.898 21.1778 101.183C21.4821 101.469 21.8872 101.64 22.3168 101.665C22.7688 101.689 23.2133 101.549 23.5592 101.275C23.905 101.001 24.1259 100.613 24.1763 100.191L25.3838 89.9527C25.4049 89.7695 25.3841 89.5842 25.3231 89.4091C25.262 89.234 25.1619 89.0731 25.0295 88.9371C24.8971 88.801 24.7354 88.6929 24.5551 88.6199C24.3748 88.547 24.18 88.5108 23.9837 88.5138H21.3389C21.1533 88.519 20.9707 88.5594 20.8022 88.6324C20.6336 88.7054 20.4825 88.8097 20.358 88.9389C20.2334 89.0681 20.138 89.2195 20.0774 89.3842C20.0168 89.5489 19.9923 89.7233 20.0054 89.8971Z" fill="#7F94FA"/>
<path d="M25.1898 107.371C25.0241 107.838 24.7145 108.248 24.3004 108.55C23.8862 108.852 23.386 109.032 22.863 109.067C22.3399 109.102 21.8175 108.991 21.3618 108.747C20.9061 108.504 20.5375 108.139 20.3025 107.699C20.0676 107.26 19.9769 106.764 20.042 106.276C20.107 105.788 20.3248 105.329 20.6678 104.957C21.0109 104.585 21.4638 104.316 21.9694 104.186C22.4749 104.055 23.0104 104.068 23.5081 104.223C23.8391 104.325 24.1451 104.489 24.4088 104.703C24.6725 104.917 24.8886 105.177 25.0448 105.47C25.201 105.762 25.2942 106.081 25.3191 106.407C25.344 106.733 25.3001 107.061 25.1898 107.371Z" fill="#7F94FA"/>
</svg>
