<svg width="317" height="301" viewBox="0 0 317 301" fill="none" xmlns="http://www.w3.org/2000/svg">
<path d="M285.15 266.96C285.244 266.96 286.485 271.758 287.926 277.724C289.368 283.69 290.469 288.541 290.375 288.568C290.282 288.594 289.041 283.77 287.593 277.804C286.144 271.838 285.057 266.987 285.15 266.96Z" fill="#263238"/>
<path d="M294.866 263.157C294.836 263.492 294.781 263.825 294.699 264.151C294.565 264.818 294.385 265.706 294.192 266.82C293.163 272.772 293.014 278.843 293.751 284.838C293.891 285.986 294.018 286.913 294.118 287.554C294.191 287.883 294.231 288.218 294.238 288.555C294.121 288.237 294.036 287.909 293.985 287.574C293.845 286.947 293.678 286.019 293.504 284.871C292.633 278.863 292.785 272.751 293.951 266.794C294.178 265.652 294.392 264.738 294.565 264.124C294.63 263.792 294.731 263.467 294.866 263.157Z" fill="#263238"/>
<path d="M309.14 257.598C309.091 257.695 309.028 257.785 308.954 257.865L308.38 258.585C308.119 258.899 307.813 259.253 307.479 259.74C307.145 260.227 306.731 260.708 306.344 261.308C305.957 261.909 305.49 262.549 305.063 263.277C304.636 264.004 304.189 264.778 303.729 265.612C301.804 269.252 300.428 273.155 299.645 277.197C299.484 278.125 299.311 279.012 299.224 279.866C299.137 280.72 299.037 281.481 298.984 282.195C298.931 282.909 298.911 283.563 298.89 284.13C298.87 284.698 298.89 285.191 298.89 285.592C298.89 285.992 298.89 286.259 298.89 286.519C298.905 286.628 298.905 286.738 298.89 286.846C298.86 286.74 298.847 286.63 298.85 286.519C298.85 286.272 298.81 285.966 298.784 285.598C298.757 285.231 298.737 284.698 298.75 284.13C298.764 283.563 298.75 282.903 298.797 282.182C298.844 281.461 298.877 280.674 298.991 279.826C299.104 278.979 299.231 278.091 299.384 277.157C300.139 273.073 301.529 269.133 303.502 265.479C303.969 264.645 304.403 263.851 304.836 263.143C305.27 262.436 305.737 261.769 306.171 261.188C306.605 260.607 307.005 260.094 307.359 259.64C307.712 259.186 308.026 258.819 308.306 258.519L308.934 257.851C309.072 257.678 309.14 257.593 309.14 257.598Z" fill="#263238"/>
<path d="M164.934 270.47C165.126 270.662 165.296 270.875 165.441 271.104C165.748 271.518 166.155 272.152 166.629 272.953C167.834 275.052 168.771 277.294 169.418 279.626C170.06 281.964 170.401 284.375 170.433 286.799C170.446 287.534 170.421 288.269 170.359 289.002C170.356 289.27 170.318 289.537 170.246 289.796C170.186 289.796 170.246 288.648 170.186 286.806C170.082 284.41 169.713 282.034 169.085 279.719C168.448 277.402 167.553 275.163 166.415 273.046C165.535 271.431 164.887 270.504 164.934 270.47Z" fill="#263238"/>
<path d="M176.606 270.223C176.659 270.223 176.425 271.157 176.172 272.666C175.496 276.598 175.514 280.618 176.225 284.544C176.492 286.052 176.732 286.966 176.679 286.986C176.57 286.789 176.489 286.578 176.439 286.359C176.305 285.945 176.145 285.345 175.978 284.59C175.548 282.617 175.325 280.604 175.311 278.585C175.3 276.567 175.501 274.554 175.912 272.579C176.072 271.831 176.225 271.244 176.352 270.81C176.409 270.604 176.494 270.406 176.606 270.223Z" fill="#263238"/>
<path d="M184.88 275.515C184.671 276.096 184.419 276.66 184.126 277.203C183.496 278.547 182.934 279.921 182.444 281.321C181.956 282.72 181.542 284.143 181.203 285.585C181.092 286.194 180.938 286.793 180.742 287.38C180.741 286.757 180.814 286.137 180.962 285.532C181.234 284.062 181.62 282.616 182.117 281.207C182.607 279.793 183.205 278.419 183.905 277.097C184.166 276.533 184.493 276.002 184.88 275.515Z" fill="#263238"/>
<path d="M159.801 275.522C159.801 275.522 159.968 275.622 160.221 275.849C160.582 276.178 160.919 276.533 161.229 276.91C163.303 279.406 164.516 282.505 164.686 285.745C164.718 286.232 164.718 286.72 164.686 287.207C164.688 287.386 164.658 287.565 164.599 287.734C164.539 287.734 164.599 286.973 164.459 285.765C164.161 282.612 162.981 279.605 161.055 277.09C160.328 276.103 159.761 275.562 159.801 275.522Z" fill="#263238"/>
<path d="M24.7506 292.686C24.667 292.351 24.6156 292.009 24.5971 291.665C24.5371 290.997 24.3969 290.063 24.2101 288.902C23.977 287.551 23.6695 286.215 23.2892 284.898C22.8384 283.271 22.249 281.686 21.5275 280.16C20.8123 278.636 19.9567 277.181 18.9717 275.816C18.1699 274.705 17.2771 273.662 16.3024 272.7C14.6207 271.058 13.3862 270.257 13.4329 270.19C13.7372 270.35 14.0274 270.536 14.3004 270.744C14.6349 270.967 14.9558 271.21 15.2614 271.472C15.682 271.8 16.0852 272.149 16.4692 272.519C17.488 273.468 18.4193 274.507 19.2519 275.622C20.261 276.996 21.1348 278.465 21.8611 280.007C22.5843 281.541 23.1651 283.138 23.5962 284.778C23.969 286.117 24.2544 287.479 24.4503 288.855C24.6105 290.03 24.7106 290.977 24.7306 291.645C24.7644 291.991 24.7711 292.339 24.7506 292.686Z" fill="#263238"/>
<path d="M28.6077 292.038C28.507 291.723 28.4334 291.399 28.3875 291.071C28.2607 290.403 28.0939 289.483 27.8937 288.402C27.48 286.153 26.8794 283.063 26.1253 279.64C25.3713 276.216 24.6172 273.16 24.05 270.965L23.3826 268.342C23.2787 268.026 23.2094 267.699 23.1758 267.368C23.3132 267.669 23.4248 267.982 23.5094 268.302C23.7096 268.916 23.9766 269.803 24.2902 270.904C24.9242 273.107 25.7183 276.17 26.4723 279.58C27.2264 282.99 27.807 286.113 28.1473 288.375C28.3208 289.509 28.4543 290.424 28.5277 291.044C28.5873 291.372 28.6141 291.705 28.6077 292.038Z" fill="#263238"/>
<path d="M54.6526 276.997C54.746 276.997 54.6526 280.593 54.399 285.004C54.1454 289.415 53.8985 293.012 53.8051 293.012C53.7117 293.012 53.8051 289.415 54.052 285.004C54.2989 280.593 54.5525 276.99 54.6526 276.997Z" fill="#263238"/>
<path d="M63.0077 292.385C62.9182 292.154 62.8599 291.911 62.8342 291.664C62.7274 291.124 62.6006 290.47 62.4538 289.696C62.1335 288.034 61.6397 285.745 60.959 283.256C60.2784 280.767 59.531 278.545 58.9571 276.963C58.3832 275.382 57.9294 274.428 57.9828 274.401C58.1335 274.606 58.2569 274.831 58.3498 275.068C58.57 275.495 58.857 276.116 59.184 276.903C60.0307 278.95 60.744 281.05 61.3194 283.189C61.9045 285.325 62.3746 287.49 62.7274 289.676C62.8542 290.517 62.9476 291.197 62.9943 291.678C63.0231 291.912 63.0275 292.149 63.0077 292.385Z" fill="#263238"/>
<path d="M64.8153 267.647C64.9154 267.647 65.1156 273.186 65.2758 280.013C65.4359 286.84 65.4893 292.385 65.3892 292.385C65.2891 292.385 65.0889 286.853 64.9288 280.02C64.7686 273.186 64.7219 267.654 64.8153 267.647Z" fill="#263238"/>
<path d="M71.882 272.766C71.8352 273.022 71.7614 273.272 71.6618 273.513C71.495 273.98 71.2681 274.667 70.9945 275.515C70.3081 277.729 69.762 279.985 69.3596 282.268C68.9532 284.552 68.6836 286.859 68.5521 289.175C68.4921 290.062 68.4721 290.783 68.452 291.284C68.4652 291.543 68.445 291.803 68.392 292.058C68.3413 291.803 68.3167 291.544 68.3186 291.284C68.3186 290.783 68.2785 290.056 68.3186 289.162C68.3823 286.829 68.621 284.505 69.0326 282.208C69.4357 279.908 70.0181 277.644 70.7743 275.435C71.0679 274.587 71.3282 273.913 71.535 273.433C71.626 273.198 71.7424 272.975 71.882 272.766Z" fill="#263238"/>
<path d="M42.455 266.413C43.0605 266.702 43.6013 267.111 44.0451 267.614C44.4888 268.117 44.8264 268.705 45.0375 269.342C45.4529 270.622 45.5716 271.98 45.3845 273.313C45.0909 275.882 43.6295 278.484 42.0479 280.54C39.8792 278.651 39.3787 275.348 39.2319 273.66C38.9983 270.99 40.1995 266.019 42.4483 266.413" fill="#FFC550"/>
<path d="M44.5692 284.777C44.4306 284.048 44.4845 283.295 44.7256 282.593C44.9667 281.891 45.3866 281.264 45.9439 280.774C46.5158 280.286 47.1791 279.916 47.8951 279.687C48.6112 279.458 49.3657 279.374 50.1146 279.439C50.4607 279.435 50.8036 279.506 51.1194 279.648C51.4352 279.789 51.7162 279.998 51.9431 280.26C52.1073 280.54 52.1939 280.859 52.1939 281.184C52.1939 281.509 52.1073 281.828 51.9431 282.108C51.6229 282.662 51.1627 283.123 50.6085 283.443C48.7266 284.624 46.6913 285.445 44.6026 284.777" fill="#FFC550"/>
<path d="M41.793 292.685C41.8 292.505 41.8246 292.327 41.8664 292.152C41.9331 291.784 42.0265 291.304 42.1266 290.723C42.3692 289.132 42.8696 287.59 43.6081 286.159C44.3702 284.727 45.5015 283.524 46.8846 282.676C47.3043 282.425 47.7524 282.226 48.2192 282.082C48.3461 282.042 48.4754 282.011 48.6063 281.988C48.693 281.988 48.7397 281.988 48.7397 281.988C48.119 282.191 47.5199 282.455 46.9513 282.776C45.6152 283.64 44.5201 284.83 43.7682 286.232C43.0431 287.666 42.5348 289.2 42.2601 290.784C42.1266 291.384 42.0199 291.871 41.9398 292.205C41.9024 292.368 41.8534 292.529 41.793 292.685Z" fill="#263238"/>
<path d="M41.8731 270.284C41.8806 270.359 41.8806 270.435 41.8731 270.511C41.8731 270.684 41.8731 270.904 41.9132 271.178C41.9132 271.752 41.9732 272.586 42.0066 273.62C42.0733 275.682 42.1267 278.532 42.1134 281.681C42.1 284.831 42.0266 287.687 41.9399 289.743C41.8998 290.777 41.8531 291.611 41.8197 292.185C41.8197 292.459 41.8197 292.679 41.773 292.852C41.7799 292.93 41.7799 293.008 41.773 293.086C41.7658 293.008 41.7658 292.93 41.773 292.852C41.773 292.679 41.773 292.459 41.773 292.185C41.773 291.584 41.773 290.757 41.8331 289.743C41.8865 287.681 41.9399 284.831 41.9532 281.688C41.9665 278.545 41.9532 275.682 41.8998 273.627C41.8998 272.613 41.8998 271.785 41.8998 271.185C41.8998 270.911 41.8998 270.691 41.8998 270.517C41.8804 270.441 41.8714 270.362 41.8731 270.284Z" fill="#263238"/>
<path d="M40.8193 286.359C40.5585 284.799 39.9291 283.323 38.9831 282.054C38.0372 280.785 36.8021 279.761 35.3806 279.066C34.6599 278.719 33.7123 278.492 33.1184 279.026C32.5245 279.559 32.658 280.54 32.9449 281.288C33.5823 282.841 34.6649 284.171 36.0567 285.111C37.4484 286.05 39.0869 286.556 40.7659 286.566" fill="#FFC550"/>
<path d="M35.7348 281.508C35.8948 281.559 36.0491 281.626 36.1953 281.708C36.3746 281.788 36.5484 281.879 36.7158 281.982C36.9093 282.102 37.1429 282.222 37.3831 282.395C37.6473 282.572 37.9013 282.764 38.1438 282.969C38.424 283.197 38.6913 283.44 38.9446 283.697C39.5277 284.294 40.0425 284.954 40.4794 285.665C40.9003 286.385 41.2384 287.151 41.4871 287.947C41.5906 288.296 41.6753 288.65 41.7407 289.008C41.8015 289.317 41.846 289.629 41.8741 289.943C41.8741 290.23 41.8741 290.497 41.8741 290.723C41.8855 290.919 41.8855 291.115 41.8741 291.311C41.8746 291.479 41.8567 291.647 41.8208 291.811C41.7807 291.811 41.8207 291.097 41.7273 289.956C41.6919 289.647 41.6407 289.339 41.5738 289.035C41.5036 288.686 41.4145 288.341 41.3069 288.001C41.0555 287.221 40.7199 286.472 40.3059 285.765C39.8764 285.068 39.3754 284.417 38.8112 283.823C38.5663 283.563 38.3055 283.318 38.0304 283.089C37.7768 282.862 37.5232 282.676 37.2963 282.509C36.3688 281.841 35.7148 281.541 35.7348 281.508Z" fill="#263238"/>
<path d="M225.778 99.9155C228.071 85.6029 218.327 72.1417 204.014 69.8492C189.701 67.5567 176.24 77.3009 173.948 91.6136C171.655 105.926 181.4 119.387 195.712 121.68C210.025 123.972 223.486 114.228 225.778 99.9155Z" fill="#FFC550"/>
<path d="M210.162 117.266C222.105 111.658 227.241 97.4309 221.634 85.4876C216.026 73.5444 201.799 68.4081 189.856 74.0155C177.912 79.6228 172.776 93.8504 178.383 105.794C183.991 117.737 198.218 122.873 210.162 117.266Z" fill="#FAFAFA"/>
<path d="M176.165 94.085C176.165 94.085 176.165 94.2184 176.165 94.472V95.6131C176.165 95.86 176.165 96.1403 176.165 96.4473C176.165 96.7542 176.218 97.1146 176.245 97.4549C176.271 97.7952 176.318 98.209 176.351 98.6294C176.385 99.0498 176.505 99.4836 176.578 99.964C176.987 102.232 177.736 104.426 178.8 106.47C180.191 109.186 182.092 111.608 184.399 113.604L185.374 114.438C185.721 114.698 186.088 114.939 186.448 115.192C186.806 115.46 187.178 115.71 187.562 115.94L188.75 116.607L189.357 116.941L190.025 117.228L191.326 117.801C191.773 117.982 192.24 118.108 192.701 118.269C193.163 118.437 193.636 118.577 194.115 118.689C195.094 118.935 196.089 119.116 197.092 119.229C197.605 119.283 198.113 119.363 198.633 119.39H200.208C200.475 119.39 200.742 119.39 201.009 119.39L201.803 119.316C202.337 119.263 202.877 119.243 203.418 119.163C204.507 118.997 205.584 118.756 206.641 118.442L207.448 118.208L207.849 118.088L208.243 117.928L209.824 117.261C210.345 117.021 210.845 116.74 211.359 116.48C211.612 116.34 211.879 116.22 212.12 116.06L212.854 115.586C213.846 114.945 214.795 114.241 215.696 113.477L216.984 112.229L217.311 111.916L217.605 111.569L218.199 110.901L218.793 110.234L219.32 109.487L219.847 108.733L220.114 108.352C220.194 108.219 220.268 108.085 220.341 107.952L221.255 106.33L222.016 104.615C222.954 102.248 223.53 99.7534 223.724 97.2147C223.86 94.6701 223.615 92.1194 222.997 89.6473C222.817 89.0467 222.643 88.4461 222.463 87.8522C222.283 87.2583 222.003 86.6977 221.796 86.1239L221.622 85.6968L221.409 85.2897L220.982 84.4689L220.555 83.6615L220.061 82.894L219.567 82.1333L219.313 81.7529L219.033 81.3992L217.919 79.9912C217.125 79.1169 216.275 78.2944 215.376 77.5288L214.709 76.9616C214.495 76.7681 214.242 76.6213 214.008 76.4478C213.534 76.1208 213.074 75.7804 212.593 75.4668L211.045 74.6326L210.678 74.4191L210.291 74.2456L209.524 73.9053C208.517 73.4614 207.483 73.0825 206.427 72.7708C205.9 72.624 205.366 72.5306 204.846 72.4105L204.065 72.237C203.798 72.1836 203.538 72.1636 203.271 72.1302L201.709 71.95C201.189 71.9033 200.668 71.95 200.155 71.9033C199.145 71.887 198.135 71.9383 197.132 72.0568C196.642 72.1043 196.157 72.1823 195.677 72.2904C195.196 72.3838 194.716 72.4505 194.256 72.5706L192.888 72.971L192.22 73.1646L191.553 73.4248L190.285 73.932C189.858 74.0921 189.478 74.3324 189.077 74.5259C188.677 74.7194 188.296 74.9263 187.916 75.1398L186.842 75.8071C184.295 77.4878 182.095 79.6423 180.362 82.1533C179.039 84.0382 178.008 86.1126 177.306 88.306C177.172 88.7598 176.992 89.1735 176.912 89.5872C176.832 90.001 176.732 90.3747 176.652 90.735C176.572 91.0954 176.492 91.4023 176.438 91.7227C176.385 92.043 176.365 92.3032 176.338 92.5501C176.271 93.0373 176.225 93.4176 176.191 93.6779C176.158 93.9381 176.131 94.0583 176.131 94.0583C176.131 94.0583 176.131 93.9315 176.131 93.6712C176.131 93.411 176.198 93.0373 176.251 92.5434C176.251 92.2899 176.305 92.0163 176.338 91.7093C176.371 91.4023 176.472 91.0754 176.545 90.715C176.618 90.3547 176.705 89.9743 176.792 89.5605C176.899 89.1249 177.028 88.695 177.179 88.2726C177.866 86.0615 178.888 83.9685 180.209 82.0666C181.941 79.5294 184.148 77.3517 186.708 75.6536L187.789 74.9463C188.17 74.7261 188.563 74.5326 188.957 74.3257C189.351 74.1188 189.738 73.8853 190.165 73.7251L191.446 73.2046L192.113 72.9443L192.781 72.7441L194.162 72.3371C194.629 72.217 195.116 72.1436 195.597 72.0501C196.081 71.9398 196.571 71.8596 197.065 71.8099C198.079 71.6857 199.1 71.6322 200.121 71.6497C200.635 71.6497 201.162 71.6497 201.683 71.6898L203.264 71.87C203.531 71.91 203.798 71.9233 204.065 71.9767L204.853 72.1502C205.38 72.2703 205.92 72.3704 206.447 72.5173C207.517 72.8281 208.565 73.2093 209.584 73.6584L210.358 73.9987L210.752 74.1722L211.119 74.3857L212.62 75.2332C213.114 75.5402 213.574 75.9006 214.055 76.2209C214.295 76.3944 214.549 76.5412 214.769 76.7347L215.436 77.3086C216.346 78.0814 217.204 78.9128 218.005 79.7977L219.133 81.2191L219.42 81.5728L219.674 81.9598L220.174 82.7272L220.675 83.5013L221.108 84.3221L221.535 85.1496L221.756 85.5633L221.929 85.9904L222.637 87.7388C222.81 88.3393 222.99 88.9466 223.17 89.5539C223.825 92.068 224.097 94.6663 223.978 97.2614C223.779 99.828 223.194 102.35 222.243 104.742C221.983 105.323 221.729 105.903 221.475 106.477L220.548 108.112L220.314 108.519L220.047 108.899L219.513 109.667L218.98 110.421L218.379 111.122L217.778 111.822L217.478 112.163L217.151 112.483L215.817 113.744C214.906 114.514 213.948 115.225 212.947 115.873L212.206 116.353C211.959 116.513 211.686 116.634 211.432 116.774C210.912 117.034 210.405 117.321 209.877 117.561L208.283 118.229L207.882 118.389L207.475 118.509L206.661 118.749C205.591 119.057 204.504 119.297 203.404 119.47C202.864 119.543 202.317 119.57 201.776 119.623L200.969 119.69C200.702 119.69 200.435 119.69 200.168 119.69H198.573C198.053 119.69 197.532 119.576 197.018 119.523C196.006 119.408 195.002 119.223 194.015 118.969C193.531 118.855 193.054 118.713 192.587 118.542C192.12 118.382 191.646 118.249 191.199 118.068L189.865 117.481L189.197 117.194L188.583 116.854L187.382 116.187C186.982 115.966 186.635 115.673 186.261 115.426C185.887 115.179 185.527 114.925 185.18 114.658L184.199 113.818C181.884 111.798 179.981 109.351 178.594 106.611C177.533 104.551 176.795 102.341 176.405 100.057C176.311 99.6166 176.239 99.1711 176.191 98.7228C176.158 98.3024 176.125 97.9087 176.098 97.5483C176.071 97.188 176.031 96.8477 176.024 96.534C176.018 96.2204 176.024 95.9468 176.024 95.6999C176.024 95.2061 176.024 94.8257 176.024 94.5587C176.024 94.2918 176.165 94.085 176.165 94.085Z" fill="#263238"/>
<path d="M210.07 96.1603C209.812 96.2051 209.551 96.2252 209.289 96.2204L207.16 96.2671C205.345 96.2671 202.829 96.3138 199.98 96.3138H199.84V94.5921C199.84 91.1354 199.84 87.999 199.88 85.7301C199.88 84.6424 199.913 83.7282 199.927 83.0609C199.918 82.7308 199.936 82.4005 199.98 82.0732C200.024 82.4005 200.042 82.7308 200.033 83.0609C200.033 83.7282 200.033 84.6558 200.08 85.7301C200.08 87.999 200.12 91.1354 200.12 94.5921V96.1403L199.98 95.9868C202.829 95.9868 205.319 95.9868 207.16 96.0402L209.289 96.0869C209.551 96.0892 209.812 96.1138 210.07 96.1603Z" fill="#263238"/>
<path d="M200.067 75.4604C200.218 76.1162 200.27 76.7912 200.22 77.4624C200.27 78.1336 200.218 78.8086 200.067 79.4644C199.915 78.8086 199.863 78.1336 199.913 77.4624C199.863 76.7912 199.915 76.1162 200.067 75.4604Z" fill="#263238"/>
<path d="M210.952 78.6831C210.173 79.7561 209.229 80.6997 208.156 81.4792C208.505 80.9129 208.939 80.4041 209.444 79.971C209.88 79.469 210.388 79.0349 210.952 78.6831Z" fill="#263238"/>
<path d="M217.317 85.6367C216.813 86.0684 216.26 86.438 215.669 86.7378C215.131 87.1251 214.548 87.4455 213.934 87.6921C214.379 87.1915 214.913 86.7775 215.508 86.4709C216.053 86.0806 216.667 85.7975 217.317 85.6367Z" fill="#263238"/>
<path d="M221.054 95.9269C219.236 96.1315 217.4 96.1315 215.582 95.9269C217.4 95.7223 219.236 95.7223 221.054 95.9269Z" fill="#263238"/>
<path d="M183.099 95.5933C181.383 95.7979 179.649 95.7979 177.934 95.5933C179.649 95.3797 181.384 95.3797 183.099 95.5933Z" fill="#263238"/>
<path d="M185.781 103.268C185.203 103.931 184.549 104.525 183.832 105.036C183.18 105.641 182.459 106.167 181.684 106.604C182.262 105.936 182.918 105.34 183.639 104.829C184.29 104.227 185.009 103.703 185.781 103.268Z" fill="#263238"/>
<path d="M192.407 109.213C192.018 110.012 191.572 110.782 191.072 111.516C190.661 112.303 190.191 113.057 189.664 113.771C190.27 112.086 191.202 110.538 192.407 109.213Z" fill="#263238"/>
<path d="M200.068 116.874C199.914 115.971 199.862 115.053 199.914 114.138C199.862 113.223 199.914 112.305 200.068 111.402C200.221 112.305 200.273 113.223 200.221 114.138C200.273 115.053 200.222 115.971 200.068 116.874Z" fill="#263238"/>
<path d="M211.858 113.23C211.024 112.846 210.261 112.322 209.603 111.682C208.88 111.125 208.26 110.448 207.768 109.68C208.481 110.238 209.163 110.835 209.81 111.469C210.523 112.019 211.207 112.607 211.858 113.23Z" fill="#263238"/>
<path d="M217.397 107.271C216.117 106.293 214.972 105.149 213.994 103.868C215.266 104.856 216.41 105.999 217.397 107.271Z" fill="#263238"/>
<path d="M185.532 88.2329C184.396 87.3909 183.391 86.3857 182.549 85.25C183.147 85.6307 183.686 86.096 184.15 86.6314C184.684 87.0975 185.149 87.6367 185.532 88.2329Z" fill="#263238"/>
<path d="M192.361 81.0322C191.773 80.6675 191.242 80.2178 190.786 79.6976C190.267 79.2422 189.818 78.7139 189.451 78.1294C190.04 78.4932 190.571 78.9431 191.026 79.464C191.546 79.9184 191.995 80.4468 192.361 81.0322Z" fill="#263238"/>
<path d="M178.932 95.7469C178.932 89.6922 181.245 83.8661 185.398 79.4601C189.55 75.0541 195.23 72.4011 201.274 72.0438C200.807 72.0104 200.333 71.9971 199.859 71.9971C193.56 71.9971 187.519 74.4993 183.066 78.9532C178.612 83.4072 176.109 89.4481 176.109 95.7469C176.109 102.046 178.612 108.087 183.066 112.541C187.519 116.995 193.56 119.497 199.859 119.497C200.333 119.497 200.807 119.497 201.274 119.45C195.231 119.09 189.553 116.436 185.401 112.03C181.249 107.625 178.935 101.801 178.932 95.7469Z" fill="#DFDFDF"/>
<path d="M191.84 87.8589C191.667 87.0522 191.71 86.2141 191.966 85.4299L192.187 85.6367H192.14C191.374 85.9501 190.567 86.1524 189.744 86.2373C190.459 85.8247 191.227 85.5126 192.026 85.3097H192.08L192.38 85.2163L192.3 85.5166C191.98 86.7845 191.94 87.8589 191.84 87.8589Z" fill="#263238"/>
<path d="M173.008 109.36C173.008 109.36 172.921 109.267 172.788 109.08C172.654 108.893 172.447 108.606 172.22 108.226C171.562 107.159 170.986 106.044 170.499 104.889C168.861 101.064 168.161 96.902 168.457 92.7511C168.753 88.6003 170.036 84.5802 172.2 81.0258C172.846 79.9529 173.574 78.9311 174.376 77.9695C174.656 77.6291 174.903 77.3822 175.043 77.2087C175.183 77.0352 175.29 76.9551 175.303 76.9618C175.045 77.341 174.766 77.7063 174.469 78.0562C171.537 81.7844 169.645 86.2226 168.985 90.9193C168.326 95.6161 168.921 100.404 170.712 104.796C171.178 105.942 171.717 107.056 172.327 108.132C172.781 108.926 173.008 109.34 173.008 109.36Z" fill="#DFDFDF"/>
<path d="M165.567 103.935C165.435 103.689 165.332 103.43 165.26 103.161C165.019 102.442 164.823 101.709 164.673 100.965C164.437 99.8655 164.279 98.7505 164.199 97.6286C164.107 96.2482 164.12 94.8628 164.239 93.4845C164.375 92.1099 164.611 90.7471 164.947 89.4072C165.235 88.3173 165.594 87.2473 166.021 86.2041C166.309 85.5009 166.636 84.8147 167.002 84.1488C167.124 83.8983 167.272 83.6612 167.443 83.4414C167.503 83.4748 166.929 84.5158 166.255 86.2975C165.858 87.3392 165.526 88.4045 165.26 89.4873C164.943 90.8044 164.72 92.1424 164.593 93.4912C164.476 94.8493 164.453 96.214 164.526 97.5752C164.589 98.6944 164.72 99.8087 164.92 100.912C165.254 102.78 165.627 103.935 165.567 103.935Z" fill="#DFDFDF"/>
<path d="M226.759 80.4116C226.943 80.7291 227.099 81.0617 227.226 81.4059C227.373 81.7329 227.533 82.1333 227.693 82.6071C227.853 83.0809 228.06 83.6214 228.22 84.2287C228.381 84.8359 228.594 85.5033 228.741 86.2306C228.888 86.958 229.041 87.7388 229.181 88.5662C229.43 90.3659 229.544 92.1816 229.522 93.9982C229.47 95.8162 229.28 97.6276 228.954 99.4168C228.679 100.875 228.3 102.311 227.82 103.714C227.633 104.315 227.406 104.842 227.226 105.309C227.073 105.712 226.899 106.106 226.706 106.49C226.568 106.829 226.4 107.155 226.205 107.465C226.303 107.112 226.43 106.768 226.585 106.437C226.719 106.11 226.886 105.716 227.046 105.243C227.206 104.769 227.42 104.242 227.586 103.634C227.753 103.027 227.973 102.38 228.14 101.632C228.307 100.885 228.474 100.144 228.641 99.3301C229.278 95.7826 229.352 92.1569 228.861 88.5863C228.734 87.7721 228.627 86.9914 228.461 86.2707C228.294 85.55 228.147 84.876 227.987 84.2687C227.827 83.6615 227.653 83.1209 227.506 82.6471C227.36 82.1733 227.226 81.7596 227.099 81.4326C226.959 81.1017 226.846 80.7603 226.759 80.4116Z" fill="#DFDFDF"/>
<path d="M231.924 97.2612C231.87 97.2612 231.984 96.4538 232.084 95.1592C232.206 93.4708 232.206 91.7759 232.084 90.0876C231.955 88.4031 231.703 86.7303 231.33 85.0827C231.05 83.8148 230.823 83.034 230.869 83.0207C230.916 83.0073 230.976 83.2008 231.103 83.5412C231.23 83.8815 231.397 84.3887 231.57 85.0226C232.02 86.6724 232.308 88.362 232.431 90.0675C232.554 91.7713 232.514 93.4831 232.311 95.1792C232.231 95.8465 232.144 96.3537 232.064 96.714C232.05 96.9033 232.002 97.0885 231.924 97.2612Z" fill="#DFDFDF"/>
<path d="M174.855 80.505C174.788 79.415 174.84 78.3209 175.009 77.2419L175.222 77.422H175.155C174.09 77.7582 172.991 77.9819 171.879 78.0894C172.903 77.6368 173.972 77.2945 175.069 77.0684H175.135L175.376 77.0083V77.2552C175.315 78.3536 175.141 79.4427 174.855 80.505Z" fill="#DFDFDF"/>
<path d="M228.394 106.056C227.742 106.692 227.011 107.241 226.219 107.691L225.972 107.858V107.565V107.444C225.839 106.505 225.826 105.552 225.932 104.608C226.172 105.526 226.302 106.469 226.319 107.418V107.538L226.045 107.404C226.772 106.863 227.56 106.41 228.394 106.056Z" fill="#DFDFDF"/>
<path d="M192.193 85.4702C192.193 85.4702 192.16 85.5169 192.086 85.597L191.746 85.924C191.319 86.3545 190.921 86.8114 190.551 87.292C189.184 89.0574 188.299 91.1476 187.982 93.3579C187.871 94.084 187.83 94.8194 187.862 95.5534C187.896 95.9338 187.862 96.3275 187.942 96.7212C188.022 97.1149 188.062 97.5153 188.142 97.9224C188.519 99.6397 189.248 101.26 190.285 102.68C191.464 104.315 193.014 105.646 194.808 106.564C196.603 107.482 198.589 107.96 200.605 107.96C202.62 107.96 204.607 107.482 206.401 106.564C208.195 105.646 209.745 104.315 210.925 102.68C211.956 101.262 212.678 99.6435 213.047 97.929C213.133 97.5286 213.18 97.1283 213.247 96.7345C213.314 96.3408 213.3 95.9471 213.327 95.5667C213.358 94.833 213.32 94.0979 213.214 93.3713C212.898 91.1606 212.013 89.0701 210.644 87.3053C210.273 86.8245 209.872 86.3676 209.443 85.9373L209.103 85.6037C209.029 85.5303 208.989 85.4902 208.996 85.4836C209.653 85.9822 210.241 86.5656 210.744 87.2186C212.178 88.977 213.114 91.088 213.454 93.3312C213.572 94.0724 213.619 94.8232 213.594 95.5734C213.594 95.9604 213.594 96.3608 213.52 96.7679C213.447 97.175 213.414 97.582 213.327 97.9891C212.959 99.7538 212.222 101.421 211.165 102.881C210.002 104.498 208.487 105.831 206.734 106.778C204.843 107.789 202.732 108.319 200.588 108.319C198.444 108.319 196.332 107.789 194.442 106.778C192.687 105.831 191.17 104.498 190.004 102.881C188.951 101.421 188.214 99.7571 187.842 97.9958C187.755 97.582 187.715 97.1683 187.649 96.7679C187.582 96.3675 187.602 95.9604 187.575 95.5734C187.549 94.8255 187.596 94.0768 187.715 93.3379C188.056 91.0927 188.991 88.9798 190.425 87.2186C190.934 86.5596 191.528 85.9716 192.193 85.4702Z" fill="#263238"/>
<path d="M95.894 149.98C94.1464 150.583 92.5797 151.618 91.3395 152.989C90.0993 154.359 89.2259 156.022 88.8004 157.821C88.1931 160.55 88.9806 163.893 91.503 165.094C92.9978 165.802 94.7529 165.615 96.3477 165.188C98.8887 164.604 101.19 163.256 102.941 161.324C103.793 160.349 104.398 159.184 104.706 157.926C105.014 156.668 105.015 155.355 104.709 154.097C104.436 153.131 103.949 152.24 103.284 151.488C102.619 150.737 101.793 150.145 100.868 149.757C99.9423 149.369 98.9413 149.195 97.9392 149.247C96.9371 149.3 95.9598 149.577 95.0798 150.06" fill="#263238"/>
<path d="M98.9759 141.564C98.1351 140.743 96.9739 139.849 95.8996 140.29C95.3932 140.535 94.9775 140.935 94.7117 141.431C93.7061 142.996 93.1391 144.803 93.0697 146.662C93.0004 148.522 93.4313 150.366 94.3175 152.002C95.2037 153.638 96.5127 155.006 98.1079 155.964C99.7032 156.921 101.526 157.433 103.387 157.446L105.062 147.53L98.9759 141.564Z" fill="#263238"/>
<path d="M142.652 131.829C142.212 128.672 141.171 125.629 140.423 122.533C139.536 118.849 139.089 115.059 137.954 111.429C136.82 107.799 135.058 104.242 132.068 101.906C129.079 99.5706 122.94 97.1349 115.279 101.239L110.334 107.799C114.848 121.581 121.368 134.623 129.686 146.503C130.076 147.209 130.685 147.769 131.421 148.098C132.476 148.432 133.563 147.798 134.484 147.19C137.047 145.515 139.703 143.74 141.251 141.098C142.799 138.455 143.086 134.985 142.652 131.829Z" fill="#263238"/>
<path d="M106.757 110.101L120.017 104.762L123.493 105.149C131.301 105.149 136.733 113.724 136.84 120.05C136.927 127.077 136.76 135.666 135.672 140.851C133.477 151.274 125.349 152.195 125.349 152.195C125.349 152.195 125.449 155.045 125.529 158.541C125.565 160.031 125.299 161.514 124.747 162.898C124.194 164.283 123.367 165.541 122.315 166.597C121.263 167.653 120.008 168.484 118.625 169.042C117.243 169.599 115.761 169.87 114.271 169.839C111.39 169.782 108.646 168.6 106.625 166.546C104.604 164.492 103.466 161.73 103.454 158.848L103.287 113.678C103.315 112.756 103.687 111.878 104.329 111.217C104.971 110.555 105.837 110.157 106.757 110.101Z" fill="#FFC3B4"/>
<path d="M132.743 127.724C132.733 128.071 132.588 128.401 132.339 128.642C132.09 128.884 131.756 129.019 131.409 129.019C131.236 129.025 131.063 128.997 130.902 128.935C130.74 128.873 130.592 128.779 130.468 128.659C130.343 128.539 130.244 128.394 130.177 128.235C130.109 128.076 130.074 127.904 130.074 127.731C130.085 127.384 130.23 127.055 130.479 126.813C130.728 126.571 131.062 126.436 131.409 126.437C131.755 126.436 132.087 126.57 132.336 126.811C132.585 127.051 132.731 127.379 132.743 127.724Z" fill="#263238"/>
<path d="M134.044 123.634C133.864 123.801 132.883 122.967 131.435 122.927C129.987 122.887 128.879 123.527 128.765 123.34C128.692 123.26 128.879 122.953 129.359 122.64C130.008 122.237 130.765 122.043 131.528 122.086C132.283 122.119 133.008 122.392 133.597 122.867C133.991 123.234 134.131 123.561 134.044 123.634Z" fill="#263238"/>
<path d="M125.182 134.985C125.959 134.79 126.757 134.687 127.558 134.678C127.932 134.678 128.285 134.604 128.365 134.358C128.413 133.975 128.346 133.587 128.172 133.243C127.865 132.329 127.551 131.375 127.218 130.367C125.883 126.276 124.962 122.92 125.129 122.866C125.296 122.813 126.497 126.09 127.798 130.207L128.699 133.096C128.912 133.554 128.955 134.072 128.819 134.558C128.76 134.686 128.672 134.799 128.562 134.888C128.452 134.977 128.323 135.04 128.185 135.072C127.966 135.12 127.742 135.138 127.518 135.125C126.737 135.18 125.951 135.133 125.182 134.985Z" fill="#263238"/>
<path d="M125.322 152.202C120.369 152.034 115.561 150.49 111.436 147.744C111.436 147.744 114.819 155.218 125.389 154.764L125.322 152.202Z" fill="#A45B4A"/>
<path d="M133.638 118.142C133.364 118.462 132.383 118.068 131.182 117.988C129.981 117.908 128.953 118.102 128.74 117.741C128.64 117.574 128.82 117.247 129.28 116.961C129.887 116.612 130.586 116.459 131.282 116.52C131.998 116.56 132.683 116.826 133.237 117.281C133.638 117.641 133.765 117.988 133.638 118.142Z" fill="#263238"/>
<path d="M117.067 127.638C117.055 127.99 117.182 128.334 117.423 128.593C117.663 128.852 117.996 129.005 118.349 129.019C118.52 129.035 118.694 129.017 118.858 128.965C119.023 128.913 119.176 128.829 119.307 128.717C119.438 128.605 119.546 128.467 119.623 128.313C119.7 128.158 119.746 127.99 119.757 127.818C119.769 127.465 119.641 127.121 119.401 126.862C119.161 126.603 118.828 126.45 118.475 126.436C118.304 126.421 118.131 126.44 117.966 126.492C117.802 126.544 117.65 126.629 117.519 126.741C117.387 126.853 117.28 126.99 117.202 127.144C117.125 127.298 117.079 127.466 117.067 127.638Z" fill="#263238"/>
<path d="M114.686 123.46C114.853 123.641 115.881 122.9 117.355 122.92C118.83 122.94 119.865 123.681 120.025 123.507C120.185 123.334 119.931 123.107 119.478 122.766C118.851 122.33 118.106 122.097 117.342 122.099C116.586 122.088 115.846 122.322 115.233 122.766C114.76 123.067 114.606 123.387 114.686 123.46Z" fill="#263238"/>
<path d="M115.097 117.234C115.351 117.568 116.352 117.234 117.553 117.234C118.754 117.234 119.775 117.481 120.016 117.141C120.122 116.974 119.962 116.64 119.522 116.327C118.928 115.944 118.235 115.747 117.529 115.76C116.823 115.773 116.137 115.996 115.558 116.4C115.131 116.74 114.984 117.074 115.097 117.234Z" fill="#263238"/>
<path d="M119.21 104.208L118.489 103.634C115.153 102.3 109.994 102.733 107.112 104.929C104.265 107.227 102.364 110.494 101.773 114.104C101.482 116.161 101.482 118.248 101.773 120.304H101.706C99.7044 119.677 97.2086 112.016 95.6004 117.968C94.2657 122.86 92.7443 132.763 94.0789 137.647C95.4135 142.532 98.8302 147.117 103.421 149.279C103.688 141.598 104.135 134.471 104.402 126.79C104.442 126.059 104.442 125.326 104.402 124.595C109.347 118.022 114.425 110.734 119.21 104.208Z" fill="#263238"/>
<path d="M121.057 100.451L120.643 101.119C119.662 100.307 118.521 99.709 117.295 99.3642C116.069 99.0194 114.784 98.9351 113.523 99.1166C110.727 99.4503 108.151 100.785 105.835 102.38C101.511 105.349 97.8276 109.407 95.9791 114.318C94.1306 119.23 91.2545 144.027 102.606 144.014C105.446 140.943 107.603 137.303 108.932 133.337C109.859 130.667 110.747 124.114 112.268 121.712C115.885 115.913 118.047 110.581 120.703 104.549L121.671 104.709C121.671 104.709 135.958 115.453 137.8 125.716C137.78 125.716 139.481 97.8554 121.057 100.451Z" fill="#263238"/>
<path d="M122.499 137.194C122.087 137.109 121.665 137.08 121.244 137.107C120.817 137.24 121.038 137.774 120.864 138.175C120.637 138.716 120.469 139.279 120.364 139.856C120.286 140.154 120.3 140.468 120.404 140.757C120.546 140.975 120.746 141.149 120.982 141.259C121.218 141.369 121.48 141.41 121.738 141.378C122.666 141.378 123.38 141.471 124.034 140.817C124.688 140.163 124.975 138.815 125.315 137.821V137.648L122.499 137.194Z" fill="#A45B4A"/>
<path d="M123.88 141.024C123.88 141.024 123.807 141.218 123.52 141.365C123.116 141.552 122.677 141.652 122.232 141.658C121.881 141.685 121.528 141.635 121.197 141.513C120.867 141.391 120.567 141.199 120.317 140.951C120.169 140.777 120.059 140.575 119.993 140.357C119.928 140.139 119.908 139.909 119.936 139.683C119.988 139.265 120.089 138.856 120.237 138.462C120.443 137.941 120.657 137.434 120.857 136.967L120.957 136.733L121.218 136.78C122.459 137.007 123.453 137.267 124.207 137.381C124.961 137.494 125.388 137.588 125.388 137.668C125.388 137.748 124.935 137.821 124.16 137.801C123.138 137.743 122.119 137.623 121.111 137.441L121.464 137.254L120.897 138.682C120.624 139.429 120.457 140.15 120.797 140.53C120.981 140.736 121.209 140.898 121.464 141.004C121.705 141.099 121.96 141.154 122.219 141.164C122.776 141.195 123.336 141.148 123.88 141.024Z" fill="#263238"/>
<path d="M103.168 145.642C103.168 145.642 103.014 145.715 102.727 145.789C102.549 145.836 102.369 145.874 102.187 145.902L101.466 145.956C100.035 145.982 98.6462 145.476 97.5688 144.534C96.5131 143.598 95.6905 142.428 95.1665 141.118C94.9166 140.597 94.7479 140.041 94.666 139.469C94.7194 139.469 94.9329 140.077 95.3934 141.017C95.96 142.254 96.7755 143.36 97.7891 144.267C98.814 145.155 100.111 145.665 101.466 145.715H102.173C102.38 145.715 102.554 145.669 102.701 145.662C102.854 145.631 103.012 145.624 103.168 145.642Z" fill="#4348E8"/>
<path d="M100.665 156.58C100.665 156.58 100.532 156.64 100.271 156.68C99.9019 156.733 99.5267 156.733 99.1571 156.68C98.6042 156.598 98.0707 156.417 97.5822 156.146C97.3086 156.006 97.0217 155.846 96.7347 155.685C96.4177 155.525 96.1181 155.333 95.8405 155.111C94.9278 154.27 94.2631 153.194 93.9186 152.002C93.731 151.529 93.6446 151.022 93.6651 150.514C93.7184 150.514 93.8185 151.074 94.1522 151.922C94.5481 153.035 95.2048 154.037 96.0674 154.845C96.3281 155.052 96.6073 155.235 96.9015 155.392L97.729 155.859C98.1827 156.128 98.6758 156.324 99.1904 156.439C100.078 156.606 100.665 156.506 100.665 156.58Z" fill="#4348E8"/>
<path d="M94.3457 127.791C94.4534 127.721 94.5701 127.664 94.6927 127.625L95.7204 127.224C96.2704 127.031 96.8095 126.808 97.3353 126.557C97.9492 126.277 98.6699 125.99 99.4173 125.583L100.612 124.969C101.026 124.748 101.433 124.488 101.866 124.235C102.741 123.747 103.615 123.127 104.536 122.5C106.522 121.071 108.386 119.479 110.108 117.742C111.808 115.982 113.357 114.082 114.739 112.063C115.346 111.115 115.947 110.228 116.421 109.34C116.661 108.9 116.914 108.486 117.121 108.065C117.328 107.645 117.522 107.245 117.708 106.864C118.102 106.104 118.376 105.376 118.643 104.756C118.91 104.135 119.117 103.581 119.27 103.134C119.423 102.687 119.544 102.367 119.644 102.093C119.683 101.97 119.735 101.852 119.797 101.739C119.784 101.867 119.755 101.993 119.71 102.113C119.63 102.393 119.524 102.747 119.397 103.174C119.236 103.736 119.044 104.288 118.823 104.829C118.569 105.496 118.316 106.197 117.929 106.964C117.749 107.358 117.562 107.765 117.361 108.186C117.161 108.606 116.908 109.033 116.694 109.48C116.234 110.381 115.64 111.282 115.033 112.243C113.643 114.288 112.08 116.21 110.361 117.988C108.621 119.739 106.732 121.336 104.716 122.76C103.768 123.387 102.881 124.001 101.993 124.481C101.553 124.728 101.132 124.989 100.719 125.202L99.5107 125.803C98.75 126.203 98.0159 126.47 97.3887 126.737C96.8537 126.971 96.3056 127.174 95.7471 127.344L94.6994 127.685C94.5843 127.729 94.4661 127.765 94.3457 127.791Z" fill="#4348E8"/>
<path d="M112.182 120.324C112.026 120.545 111.842 120.745 111.635 120.918C111.268 121.285 110.714 121.792 110.006 122.392C108.152 123.948 106.165 125.337 104.067 126.543C101.969 127.751 99.7668 128.769 97.4875 129.586C96.6133 129.9 95.8992 130.127 95.3988 130.253C95.1437 130.342 94.8797 130.403 94.6113 130.434C94.8485 130.304 95.0991 130.201 95.3587 130.127C95.8459 129.953 96.5465 129.693 97.4007 129.359C99.6374 128.478 101.807 127.437 103.894 126.243C105.974 125.038 107.965 123.687 109.853 122.199C110.574 121.625 111.154 121.151 111.548 120.818C111.743 120.633 111.955 120.467 112.182 120.324Z" fill="#4348E8"/>
<path d="M141.205 125.509C141.048 125.098 140.915 124.679 140.805 124.254C140.453 123.121 140.041 122.007 139.57 120.917C138.021 117.283 135.848 113.947 133.151 111.061C130.393 108.209 127.434 105.56 124.295 103.133L121.466 100.905L120.705 100.291C120.532 100.151 120.445 100.07 120.452 100.057C120.557 100.104 120.655 100.165 120.745 100.237L121.546 100.798C122.213 101.298 123.234 102.019 124.442 102.94C127.634 105.308 130.625 107.935 133.384 110.794C136.113 113.709 138.281 117.102 139.777 120.804C140.231 121.919 140.61 123.062 140.911 124.227C141.025 124.641 141.085 124.968 141.138 125.188C141.175 125.292 141.197 125.399 141.205 125.509Z" fill="#4348E8"/>
<path d="M223.056 253.721L233.914 272.806C233.914 272.806 255.067 269.009 257.383 272.352L224.725 293.152L206.707 264.057L223.056 253.721Z" fill="#4348E8"/>
<g opacity="0.3">
<path d="M223.056 253.721L233.914 272.806C233.914 272.806 255.067 269.009 257.383 272.352L224.725 293.152L206.707 264.057L223.056 253.721Z" fill="black"/>
</g>
<path d="M222.838 277.664C222.589 277.999 222.464 278.409 222.485 278.826C222.505 279.242 222.67 279.638 222.951 279.946C223.086 280.093 223.248 280.21 223.429 280.293C223.61 280.376 223.805 280.422 224.004 280.429C224.202 280.436 224.4 280.403 224.586 280.333C224.772 280.263 224.942 280.156 225.087 280.02C225.347 279.664 225.476 279.228 225.452 278.788C225.427 278.348 225.251 277.929 224.953 277.604C224.286 277.057 223.112 277.077 222.745 277.784" fill="#DFDFDF"/>
<g opacity="0.6">
<path d="M224.725 293.152L223.01 290.156L254.948 271.331C254.948 271.331 256.829 271.111 257.363 272.352L224.725 293.152Z" fill="white"/>
</g>
<path d="M234.308 272.286C234.415 272.466 233.641 273.053 233.234 274.121C232.827 275.188 232.833 276.203 232.647 276.229C232.46 276.256 232.066 275.075 232.613 273.787C233.16 272.499 234.248 272.099 234.308 272.286Z" fill="#263238"/>
<path d="M238.7 271.678C238.84 271.825 238.333 272.566 238.253 273.68C238.172 274.795 238.499 275.682 238.339 275.762C238.179 275.842 237.458 274.915 237.585 273.56C237.712 272.205 238.593 271.511 238.7 271.678Z" fill="#263238"/>
<path d="M243.437 274.995C243.317 275.121 242.549 274.381 242.363 273.146C242.176 271.912 242.69 271.057 242.843 271.144C242.997 271.231 242.843 272.065 243.03 273.073C243.217 274.08 243.584 274.875 243.437 274.995Z" fill="#263238"/>
<path d="M231.399 268.188C231.432 268.388 230.551 268.615 229.69 269.256C228.83 269.896 228.322 270.664 228.149 270.59C227.975 270.517 228.262 269.429 229.283 268.688C230.304 267.948 231.392 268.001 231.399 268.188Z" fill="#263238"/>
<path d="M209.257 261.688L217.485 282.048C217.485 282.048 238.959 281.087 240.841 284.718L205.707 301L191.693 269.776L209.257 261.688Z" fill="#4348E8"/>
<path d="M205.887 285.398C205.594 285.696 205.415 286.086 205.379 286.501C205.344 286.917 205.455 287.331 205.693 287.674C205.807 287.837 205.952 287.977 206.121 288.083C206.289 288.19 206.477 288.262 206.673 288.295C206.87 288.328 207.071 288.321 207.265 288.275C207.458 288.229 207.641 288.145 207.802 288.028C208.107 287.71 208.293 287.296 208.327 286.857C208.361 286.417 208.242 285.98 207.989 285.619C207.428 284.991 206.234 284.851 205.773 285.505" fill="#DFDFDF"/>
<g opacity="0.6">
<path d="M205.708 301L204.373 297.804L238.526 283.376C238.526 283.376 240.421 283.376 240.782 284.711L205.708 301Z" fill="white"/>
</g>
<path d="M217.971 281.581C218.045 281.775 217.231 282.248 216.637 283.263C216.043 284.277 215.97 285.265 215.776 285.265C215.582 285.265 215.356 284.044 216.07 282.849C216.784 281.655 217.931 281.394 217.971 281.581Z" fill="#263238"/>
<path d="M222.39 281.561C222.517 281.728 221.917 282.395 221.69 283.47C221.463 284.544 221.69 285.471 221.496 285.545C221.303 285.618 220.735 284.591 221.042 283.263C221.349 281.935 222.317 281.388 222.39 281.561Z" fill="#263238"/>
<path d="M226.654 285.478C226.521 285.592 225.86 284.758 225.84 283.51C225.82 282.262 226.434 281.474 226.581 281.601C226.728 281.728 226.474 282.515 226.501 283.536C226.528 284.557 226.821 285.385 226.654 285.478Z" fill="#263238"/>
<path d="M215.631 277.137C215.631 277.343 214.73 277.45 213.796 277.971C212.861 278.491 212.254 279.185 212.087 279.059C211.92 278.932 212.354 277.924 213.469 277.323C214.583 276.723 215.644 276.95 215.631 277.137Z" fill="#263238"/>
<path d="M129.539 160.77C129.539 160.77 127.204 155.985 126.296 155.985C125.389 155.985 121.051 166.609 102.646 160.183L108.652 192.214L122.706 221.109C122.706 221.109 119.803 247.541 120.144 247.541C120.484 247.541 133.523 249.663 133.523 249.663L147.417 237.398L142.138 198.373L135.465 168.911L129.539 160.77Z" fill="#DFDFDF"/>
<path d="M125.389 155.986V153.109L127.237 155.512C131.908 158.848 140.023 164.187 144.034 167.056C145.392 168.023 146.451 169.353 147.09 170.893C148.751 174.897 151.975 183.279 152.041 188.043C152.128 193.656 150.94 204.166 150.94 204.473C150.94 204.78 145.835 216.978 145.835 216.978L135.212 217.752L137.107 200.028C137.8 193.507 136.967 186.913 134.671 180.77L125.389 155.986Z" fill="#4348E8"/>
<path d="M126.791 155.104C126.882 155.193 126.961 155.294 127.025 155.405C127.171 155.614 127.372 155.921 127.625 156.326C128.139 157.126 128.846 158.328 129.687 159.789C131.369 162.745 133.571 166.889 136.113 171.42C137.635 174.223 138.97 176.912 140.064 179.255L139.804 179.415C139.408 178.833 138.949 178.295 138.436 177.813C137.974 177.39 137.394 177.118 136.774 177.033C136.507 176.994 136.235 177.012 135.976 177.084C135.716 177.156 135.474 177.282 135.266 177.453C134.917 177.769 134.683 178.191 134.599 178.654C134.497 179.324 134.547 180.008 134.745 180.656C134.839 180.879 134.915 181.109 134.972 181.343C134.865 181.129 134.778 180.906 134.712 180.676C134.468 180.025 134.385 179.324 134.472 178.634C134.542 178.128 134.776 177.659 135.139 177.299C135.368 177.102 135.636 176.954 135.926 176.867C136.216 176.779 136.521 176.754 136.821 176.792C137.496 176.869 138.13 177.154 138.636 177.606C139.175 178.097 139.657 178.648 140.071 179.248L139.81 179.402C138.689 177.073 137.341 174.397 135.806 171.601C133.271 167.076 131.095 162.925 129.474 159.923C128.659 158.428 127.986 157.253 127.512 156.406L126.965 155.458C126.893 155.347 126.835 155.229 126.791 155.104Z" fill="#263238"/>
<path d="M147.07 170.419C146.582 169.409 145.816 168.559 144.863 167.968C143.909 167.377 142.807 167.07 141.685 167.083L138.936 167.33C138.621 167.821 138.431 168.382 138.382 168.963C138.333 169.545 138.427 170.129 138.655 170.666C139.122 171.733 139.683 172.755 140.33 173.723C140.984 174.709 141.307 175.877 141.251 177.059C141.725 176.7 142.053 176.181 142.172 175.598C143.053 177.532 143.207 179.719 142.606 181.757C144.539 180.616 146.089 178.925 147.057 176.899C147.529 175.885 147.774 174.78 147.777 173.661C147.779 172.542 147.538 171.436 147.07 170.419Z" fill="#263238"/>
<path d="M141.417 172.922C141.252 172.308 141.143 171.68 141.09 171.047C140.922 170.432 140.804 169.805 140.736 169.171C141.122 169.701 141.353 170.327 141.404 170.98C141.581 171.614 141.586 172.285 141.417 172.922Z" fill="#4348E8"/>
<path d="M144.708 176.612C144.649 175.169 144.4 173.74 143.967 172.361C143.422 171.023 142.699 169.764 141.818 168.618C142.182 168.856 142.499 169.159 142.753 169.512C144.087 171.158 144.827 173.206 144.855 175.324C144.885 175.759 144.836 176.196 144.708 176.612Z" fill="#4348E8"/>
<path d="M140.557 161.084C140.11 159.898 139.425 158.816 138.543 157.906C137.661 156.995 136.602 156.276 135.43 155.792C134.259 155.309 133.001 155.071 131.734 155.094C130.467 155.117 129.218 155.4 128.064 155.925C128.314 157.209 128.907 158.401 129.779 159.375C130.52 160.163 131.388 160.823 132.122 161.611C133.216 162.772 134.024 164.2 135.225 165.248C136.426 166.295 138.308 166.876 139.642 165.995C140.016 165.736 140.329 165.4 140.56 165.008C140.79 164.616 140.933 164.179 140.977 163.726C141.049 162.824 140.905 161.919 140.557 161.084Z" fill="#263238"/>
<path d="M132.264 157.387C132.763 157.545 133.239 157.769 133.678 158.054C134.788 158.683 135.796 159.478 136.668 160.41C137.545 161.349 138.166 162.498 138.47 163.746C138.623 164.26 138.645 164.803 138.536 165.328C138.476 165.328 138.496 164.721 138.236 163.806C137.876 162.62 137.251 161.532 136.408 160.623C135.552 159.717 134.591 158.918 133.545 158.241C133.092 157.996 132.664 157.71 132.264 157.387Z" fill="#4348E8"/>
<path d="M142.125 164.387C141.271 164.013 140.297 164.5 139.523 165.054C138.749 165.608 138.962 165.848 138.035 165.721C137.417 165.708 136.813 165.903 136.32 166.275C136.077 166.546 135.932 166.89 135.906 167.252C135.881 167.615 135.977 167.975 136.18 168.277C136.391 168.581 136.668 168.833 136.991 169.016C137.313 169.198 137.672 169.306 138.041 169.332C138.776 169.368 139.509 169.252 140.197 168.991C141.249 168.726 142.17 168.091 142.793 167.203C143.327 166.235 143.113 164.814 142.125 164.387Z" fill="#FFC550"/>
<path d="M200.454 178.18L162.898 215.91C162.898 215.91 159.828 219.687 157.379 218.259L130.406 212.921L159.608 185.441L182.297 184.973L181.976 183.892C181.656 182.798 182.183 182.131 183.311 181.89L200.454 178.18Z" fill="#FFC550"/>
<g opacity="0.3">
<path d="M158.902 212.354C165.736 209.685 171.134 204.346 176.333 199.148C177.188 198.443 177.815 197.5 178.134 196.438C178.255 195.771 178.134 195.104 178.288 194.496C178.555 193.315 179.623 192.494 180.537 191.727C182.493 190.053 184.119 188.027 185.328 185.755C185.59 185.163 185.948 184.62 186.389 184.146C187.263 183.332 191.554 181.57 191.928 180.436C190.026 180.436 184.808 182.198 182.972 182.678C182.305 182.852 182.245 183.005 181.905 183.592C181.665 184.013 182.359 184.467 182.265 184.927C182.265 184.927 180.263 187.536 179.349 188.551C174.531 193.802 170.067 199.401 165.255 204.653" fill="black"/>
</g>
<path d="M131.22 212.127L129.178 207.969L157.992 180.556C157.992 180.556 174.395 178.634 178.486 180.943C178.486 180.943 181.462 177.5 184.325 175.911C187.188 174.323 195.669 172.321 195.669 172.321L196.71 173.596L198.045 174.383L194.982 177.086L199.653 176.372L201.088 178.007L182.49 182.932C182.49 182.932 181.322 183.472 182.243 184.934L159.554 185.401L131.22 212.127Z" fill="#DFDFDF"/>
<path d="M131.222 212.127L131.743 211.626L133.244 210.191L138.95 204.773L159.51 185.347L159.55 185.307H159.603L182.292 184.82L182.152 185.067C181.919 184.731 181.79 184.334 181.778 183.926C181.778 183.697 181.841 183.473 181.958 183.277C182.076 183.08 182.244 182.92 182.445 182.811L201.037 177.84L200.95 178.12L199.522 176.485L199.675 176.539L195.004 177.259L194.424 177.346L194.864 176.952L195.565 176.332L197.927 174.25V174.53L196.592 173.749L195.551 172.468L195.725 172.528C192.465 173.275 189.252 174.213 186.102 175.337C184.595 175.898 183.204 176.73 181.998 177.793C180.79 178.806 179.659 179.908 178.615 181.09L178.528 181.183L178.401 181.123C177.59 180.745 176.726 180.493 175.839 180.376C174.955 180.23 174.064 180.134 173.17 180.089C171.401 179.975 169.646 179.995 167.924 180.035C164.481 180.142 161.164 180.396 158.001 180.743L158.088 180.703L129.207 208.063V208.003L130.715 211.139L131.082 211.92C131.169 212.093 131.202 212.18 131.202 212.18L131.075 211.946L130.695 211.192L129.113 208.049V208.016V207.983C133.858 203.451 144.188 193.582 157.861 180.502L157.901 180.469H157.948C161.124 180.122 164.441 179.855 167.898 179.748C169.619 179.702 171.381 179.675 173.17 179.788C174.075 179.835 174.977 179.931 175.872 180.075C176.797 180.199 177.698 180.464 178.541 180.863L178.335 180.896C179.39 179.7 180.535 178.584 181.758 177.56C182.391 177.033 183.06 176.552 183.76 176.118C184.464 175.684 185.211 175.324 185.989 175.044C189.137 173.91 192.35 172.965 195.611 172.214H195.718L195.792 172.301L196.826 173.576L196.779 173.536L198.114 174.316L198.327 174.443L198.141 174.597C197.366 175.264 196.579 175.985 195.785 176.679L195.078 177.299L194.937 176.999L199.642 176.285H199.735L199.795 176.358L201.224 177.993L201.41 178.2L201.137 178.274L182.545 183.192C182.396 183.271 182.271 183.39 182.183 183.534C182.095 183.678 182.047 183.844 182.045 184.013C182.057 184.357 182.168 184.691 182.365 184.973L182.512 185.22H182.232L159.543 185.667L159.636 185.627L138.976 204.933L133.244 210.271L131.749 211.659C131.396 211.98 131.222 212.127 131.222 212.127Z" fill="#263238"/>
<path d="M182.266 184.947C182.266 184.947 182.186 185.081 182.005 185.314L181.211 186.315C180.511 187.176 179.49 188.411 178.215 189.932C175.666 192.975 172.109 197.146 168.099 201.684C164.088 206.221 160.364 210.252 157.568 213.068C156.167 214.476 154.999 215.584 154.172 216.325C153.771 216.665 153.451 216.945 153.197 217.152C153.087 217.253 152.969 217.344 152.844 217.426C152.937 217.308 153.04 217.199 153.151 217.099L154.078 216.224C154.879 215.457 156.014 214.323 157.415 212.888C160.164 210.032 163.848 205.974 167.865 201.443C171.882 196.912 175.459 192.768 178.055 189.772L181.131 186.222C181.485 185.828 181.765 185.508 181.979 185.261C182.067 185.15 182.163 185.045 182.266 184.947Z" fill="#263238"/>
<path d="M182.011 184.447C181.924 184.5 181.297 183.519 180.276 182.538C179.255 181.557 178.274 180.95 178.314 180.856C179.968 181.524 181.295 182.813 182.011 184.447Z" fill="#263238"/>
<path d="M193.508 177.687C192.851 177.885 192.183 178.041 191.506 178.154C189.928 178.493 188.368 178.917 186.835 179.422C185.303 179.934 183.813 180.563 182.377 181.303C181.796 181.647 181.197 181.959 180.582 182.238C180.582 182.238 180.722 182.091 181.009 181.891C181.409 181.6 181.826 181.332 182.257 181.09C183.677 180.276 185.175 179.605 186.728 179.088C188.277 178.575 189.863 178.182 191.473 177.913C192.141 177.764 192.823 177.688 193.508 177.687Z" fill="#263238"/>
<path d="M150.107 191.16C150.17 191.067 150.244 190.982 150.328 190.906L150.995 190.239L153.524 187.776L157.301 184.153L158.396 183.112C158.58 182.919 158.781 182.743 158.996 182.585C159.088 182.551 159.185 182.531 159.283 182.525H159.49H159.897L163.234 182.491C167.785 182.491 171.909 182.491 174.892 182.545L178.428 182.611L179.383 182.651C179.496 182.642 179.61 182.642 179.723 182.651C179.612 182.681 179.497 182.692 179.383 182.685L178.422 182.718L174.892 182.758L163.234 182.805H159.897H159.303C159.271 182.817 159.235 182.817 159.203 182.805C159.203 182.805 159.156 182.805 159.136 182.805L159.063 182.872L158.923 183.005L158.636 183.272L157.528 184.313L153.691 187.89L151.082 190.272L150.361 190.939C150.208 191.1 150.114 191.173 150.107 191.16Z" fill="#263238"/>
<path d="M199.634 254.435L219.053 276.87L235.856 269.322C235.856 269.322 199.034 209.611 195.15 206.221C189.958 201.67 182.231 204.713 181.33 204.886C180.429 205.06 176.479 217.085 176.479 217.085L199.634 254.435Z" fill="#2C3083"/>
<path d="M138.723 281.388C138.723 281.388 159.109 257.698 161.845 253.507L171.855 239.32C171.855 239.32 180.73 255.162 183.793 261.848C187.163 269.189 197.807 287.166 197.807 287.166L217.773 278.044C217.773 278.044 201.871 241.409 200.469 234.555C200.469 234.555 193.322 212.727 186.99 204.82C180.877 197.199 166.763 204.946 159.87 211.88L159.369 212.38L110.388 255.302L79.3848 254.895C79.3848 254.895 79.6851 288.188 99.7112 290.87C123.308 294.033 133.978 287.126 138.723 281.388Z" fill="#2C3083"/>
<path d="M178.895 201.363C179.186 201.276 179.486 201.222 179.789 201.203C180.658 201.126 181.534 201.212 182.371 201.456C183.697 201.843 184.925 202.507 185.975 203.405C187.351 204.614 188.483 206.075 189.311 207.709C190.306 209.663 191.197 211.668 191.981 213.715L194.79 220.715L201.276 236.731C205.854 248.115 209.991 258.425 212.994 265.906C214.476 269.629 215.664 272.646 216.511 274.761C216.912 275.795 217.225 276.603 217.452 277.177C217.552 277.437 217.626 277.644 217.686 277.804C217.746 277.964 217.759 278.024 217.759 278.024C217.717 277.959 217.681 277.889 217.652 277.817C217.586 277.664 217.499 277.457 217.385 277.203C217.152 276.636 216.811 275.835 216.384 274.808L212.768 265.999C209.738 258.525 205.567 248.229 200.956 236.864C198.66 231.172 196.478 225.747 194.49 220.808L191.694 213.822C190.934 211.777 190.069 209.772 189.104 207.816C188.301 206.203 187.201 204.757 185.861 203.552C184.843 202.644 183.645 201.961 182.345 201.55C181.522 201.299 180.661 201.195 179.802 201.243C179.201 201.276 178.901 201.363 178.895 201.363Z" fill="#4348E8"/>
<path d="M131.141 286.626C133.923 287.294 136.913 286.626 139.449 285.292C141.931 283.837 144.195 282.04 146.175 279.953C157.219 269.163 166.475 256.751 175.677 244.339L172.514 236.798C155.985 250.111 143.74 269.55 131.141 286.626Z" fill="#2C3083"/>
<path d="M197.794 287.167C197.735 287.096 197.683 287.02 197.64 286.94L197.2 286.272C196.813 285.672 196.292 284.751 195.598 283.603C194.263 281.234 192.302 277.791 189.933 273.493C187.564 269.196 184.761 264.051 181.664 258.305C180.116 255.429 178.495 252.406 176.813 249.263C175.972 247.688 175.118 246.08 174.257 244.452C173.396 242.823 172.516 241.135 171.675 239.4L171.982 239.44L169.98 242.343C165.449 248.943 161.004 255.142 156.754 260.627C152.503 266.113 148.459 270.877 144.909 274.741C141.359 278.605 138.309 281.561 136.14 283.543C135.072 284.551 134.198 285.278 133.618 285.792L132.95 286.366L132.717 286.553C132.782 286.478 132.851 286.407 132.924 286.339L133.591 285.739C134.152 285.211 135.019 284.464 136.073 283.45C138.202 281.448 141.218 278.451 144.749 274.574C148.279 270.697 152.303 265.899 156.52 260.434C160.737 254.969 165.195 248.743 169.713 242.143L171.715 239.247L171.882 239.006L172.022 239.293C173.69 242.63 175.478 245.933 177.133 249.076L181.938 258.085L190.139 273.306C192.495 277.591 194.39 281.054 195.711 283.463C196.379 284.651 196.893 285.578 197.26 286.192L197.667 286.9C197.718 286.984 197.76 287.074 197.794 287.167Z" fill="#4348E8"/>
<path d="M79.3697 254.895C79.3697 254.895 77.0274 258.232 78.7691 261.849C80.5108 265.466 112.749 263.243 112.749 263.243L117.554 249.677L79.3697 254.895Z" fill="#DFDFDF"/>
<path d="M103.401 152.289L99.4837 158.815C99.4837 158.815 75.8206 164.581 76.7949 182.625C77.7492 199.882 82.5939 220.875 82.5939 220.875C82.5939 220.875 76.1543 241.362 78.7435 251.045L77.5823 255.676L115.906 261.849C115.906 261.849 123.387 245.766 124.842 238.092C126.023 231.826 125.422 214.382 125.422 214.382C125.422 214.382 124.194 191.847 121.599 186.475C119.19 181.544 103.401 152.289 103.401 152.289Z" fill="#4348E8"/>
<path d="M119.042 181.097C118.807 180.947 118.584 180.78 118.375 180.596C117.737 180.109 117.068 179.663 116.373 179.261C116.153 179.135 115.906 179.034 115.652 178.908C115.386 178.797 115.112 178.705 114.832 178.634C114.212 178.452 113.555 178.441 112.93 178.601C112.231 178.8 111.588 179.156 111.048 179.642C110.449 180.185 109.908 180.789 109.433 181.444L109.273 181.65L109.159 181.423C108.245 179.642 107.251 177.693 106.237 175.638C104.311 171.811 102.595 167.881 101.098 163.866C100.531 162.325 100.137 161.057 99.8771 160.176L99.5968 159.148C99.5559 159.032 99.5312 158.911 99.5234 158.788C99.5848 158.895 99.6319 159.009 99.6636 159.128C99.757 159.395 99.8704 159.729 100.004 160.129C100.304 160.997 100.738 162.251 101.339 163.78C102.5 166.849 104.335 170.993 106.557 175.484L109.453 181.277H109.18C109.675 180.606 110.238 179.989 110.861 179.435C111.438 178.929 112.123 178.561 112.863 178.361C113.524 178.204 114.216 178.227 114.865 178.427C115.157 178.508 115.442 178.611 115.719 178.734C115.973 178.868 116.226 178.981 116.447 179.115C117.393 179.662 118.265 180.328 119.042 181.097Z" fill="#263238"/>
<g opacity="0.3">
<path d="M123.688 233.007C123.021 232.427 122.026 232.647 121.185 232.894C115.084 234.664 108.784 235.661 102.434 235.863C98.797 235.97 95.02 235.79 91.7568 234.142C88.0265 232.253 85.4907 228.696 83.0817 225.273L81.9473 225.813C82.0941 230.318 82.2476 234.896 83.6489 239.16C85.0503 243.424 87.9064 247.468 92.0638 249.223C96.5148 251.091 101.573 250.104 106.404 250.111C110.408 250.111 114.659 250.778 118.082 248.736C120.236 247.329 121.844 245.229 122.64 242.783C123.415 240.351 123.912 237.84 124.122 235.296C124.248 234.502 124.295 233.554 123.688 233.007Z" fill="black"/>
</g>
<path d="M123.272 223.885C123.272 223.885 134.496 220.909 134.79 220.014C135.52 217.775 136.085 215.484 136.478 213.161C136.778 210.879 136.478 204.426 136.478 204.426C136.478 204.426 138.367 202.424 139.261 204.426C140.155 206.428 140.255 210.185 141.443 210.585C142.631 210.986 146.208 210.979 147.502 209.884C148.797 208.79 158.319 201.249 159.414 200.542C160.508 199.835 162.69 199.247 163.585 199.948L156.831 208.323C156.831 208.323 165.219 201.143 166.608 200.542C167.664 200.192 168.792 200.119 169.884 200.328C169.884 200.328 162.804 209.217 161.509 210.338C160.215 211.459 144.433 225.733 142.644 227.021C140.856 228.309 122.284 237.805 120.77 238.366L123.272 223.885Z" fill="#FFC3B4"/>
<path d="M156.833 208.336C156.906 208.423 155.404 209.671 153.716 211.273C153.514 211.463 153.33 211.673 153.169 211.9C153.009 212.147 152.822 212.347 152.702 212.567C152.582 212.787 152.515 213.008 152.388 213.235C152.276 213.425 152.142 213.602 151.988 213.762C151.716 214.113 151.324 214.351 150.887 214.429C151.214 214.184 151.52 213.912 151.801 213.615C151.93 213.458 152.041 213.288 152.135 213.108C152.241 212.921 152.281 212.687 152.428 212.44C152.575 212.194 152.749 211.993 152.882 211.773C153.057 211.533 153.253 211.309 153.469 211.106C154.2 210.394 154.97 209.726 155.778 209.104C156.088 208.795 156.444 208.537 156.833 208.336Z" fill="#A45B4A"/>
<path d="M117.394 258.312C117.261 258.322 117.127 258.322 116.993 258.312L115.846 258.278C114.845 258.278 113.403 258.165 111.628 258.025C106.994 257.628 102.385 256.98 97.8214 256.083C92.4829 255.029 87.6982 253.787 84.2749 252.8C82.5599 252.306 81.1785 251.879 80.231 251.572L79.1366 251.212C79.0072 251.179 78.8835 251.127 78.7695 251.058C78.901 251.071 79.0307 251.098 79.1566 251.138L80.251 251.412L84.3216 252.533C87.7583 253.46 92.5363 254.668 97.8681 255.716C103.2 256.764 108.085 257.424 111.628 257.778C113.403 257.952 114.838 258.078 115.832 258.145L116.973 258.238C117.116 258.244 117.258 258.268 117.394 258.312Z" fill="#263238"/>
<g opacity="0.3">
<path d="M114.206 178.381C112.05 178.067 110.475 179.569 109.267 181.377C106.084 175.538 103.435 168.992 100.812 162.879C102.534 171.554 105.637 179.308 110.869 186.475C110.202 184.473 111.536 182.118 113.538 181.337C114.552 180.993 115.637 180.916 116.689 181.113C117.741 181.311 118.724 181.776 119.544 182.465C118.87 180.383 116.361 178.674 114.206 178.381Z" fill="black"/>
</g>
<path d="M80.1319 171.333C73.3319 177.459 78.2567 209.224 78.2567 209.224C78.2567 209.224 83.6753 234.976 85.5972 240.588C87.5191 246.2 89.9948 245.412 91.8166 246.487C93.6384 247.561 112.09 245.306 115.093 244.879C118.096 244.451 118.629 242.837 119.597 242.409C120.565 241.982 123.347 223.104 123.347 223.104C120.545 223.211 117.548 223.051 114.672 223.318C114.146 223.368 113.652 223.592 113.268 223.954C112.883 224.317 112.631 224.797 112.55 225.319C110.775 225.506 103.348 225.9 103.348 225.9C102.875 216.059 101.397 206.292 98.9369 196.752C98.9369 196.752 97.6022 190.299 96.5145 184.446" fill="#4348E8"/>
<path d="M96.5144 184.446C96.5144 184.446 96.5744 184.7 96.6812 185.194C96.788 185.688 96.9348 186.422 97.135 187.376L98.8099 195.691C98.9701 196.592 99.2237 197.526 99.4773 198.507C99.7308 199.488 99.9644 200.509 100.211 201.603C100.692 203.765 101.172 206.114 101.613 208.65C102.596 214.339 103.238 220.081 103.535 225.847L103.381 225.713L112.577 225.119L112.437 225.253C112.516 224.75 112.746 224.283 113.094 223.911C113.443 223.54 113.895 223.282 114.392 223.171C115.368 223.048 116.351 222.981 117.335 222.971C119.337 222.924 121.339 222.971 123.341 222.904H123.534V223.097C122.773 228.082 121.979 233.301 120.865 238.666C120.725 239.333 120.571 240.001 120.404 240.668C120.318 241.002 120.231 241.335 120.117 241.676C120.067 241.847 120.004 242.014 119.931 242.176L119.857 242.31C119.831 242.365 119.792 242.413 119.744 242.45C119.706 242.491 119.66 242.525 119.61 242.55L119.503 242.61C118.983 242.957 118.522 243.544 117.929 243.944C117.336 244.361 116.671 244.663 115.967 244.832C115.27 244.981 114.566 245.095 113.858 245.172L111.743 245.433L107.472 245.92C104.189 246.273 100.939 246.587 97.7222 246.781C96.1212 246.899 94.5145 246.922 92.9109 246.847C92.49 246.835 92.0755 246.742 91.6897 246.574C91.3528 246.392 90.9998 246.243 90.6353 246.127C89.8652 245.92 89.1282 245.606 88.4465 245.192C87.7852 244.74 87.2222 244.159 86.7916 243.484C86.3684 242.828 86.0129 242.13 85.7305 241.402C85.2026 239.976 84.757 238.521 84.3959 237.044C83.6352 234.142 82.9612 231.285 82.3139 228.496C81.0326 222.917 79.8715 217.599 78.8038 212.621C78.5502 211.373 78.2633 210.165 78.043 208.937C77.8228 207.709 77.7161 206.528 77.5692 205.354C77.289 203.005 77.0665 200.749 76.9019 198.587C76.1879 189.958 76.2746 182.892 77.1555 178.114C77.4351 176.267 78.0239 174.48 78.8972 172.828C79.1431 172.409 79.4364 172.02 79.7714 171.667L80.1184 171.32L79.7981 171.694C79.4781 172.052 79.1984 172.443 78.9639 172.862C78.1176 174.517 77.5516 176.3 77.289 178.14C76.4548 182.905 76.4014 189.952 77.1422 198.567C77.329 200.722 77.5626 202.978 77.8495 205.32C77.9963 206.495 78.1587 207.687 78.3367 208.897C78.5502 210.091 78.8438 211.319 79.1041 212.561C80.1785 217.539 81.3463 222.851 82.6409 228.423C83.3082 231.212 83.9755 234.061 84.7296 236.958C85.0931 238.421 85.5387 239.862 86.0642 241.275C86.5423 242.718 87.4447 243.983 88.6534 244.905C89.3087 245.305 90.0192 245.606 90.7621 245.8C91.1481 245.921 91.5214 246.08 91.8765 246.273C92.2189 246.418 92.586 246.495 92.9576 246.5C94.5456 246.573 96.1365 246.553 97.7222 246.44C100.925 246.247 104.175 245.926 107.458 245.573L111.723 245.086L113.831 244.825C114.527 244.753 115.217 244.642 115.9 244.492C116.564 244.334 117.191 244.051 117.748 243.658C118.316 243.277 118.723 242.73 119.35 242.323C119.577 242.216 119.543 242.209 119.637 242.043C119.706 241.893 119.764 241.74 119.81 241.582C119.917 241.262 120.004 240.915 120.091 240.595C120.257 239.927 120.411 239.26 120.544 238.593C121.632 233.254 122.433 228.029 123.214 223.051L123.381 223.238C121.332 223.304 119.323 223.238 117.375 223.298C116.411 223.305 115.448 223.367 114.492 223.485C114.057 223.582 113.66 223.807 113.355 224.132C113.049 224.457 112.848 224.866 112.777 225.306V225.426H112.657L103.448 226H103.308V225.854C103.026 220.098 102.402 214.365 101.439 208.683C101.012 206.154 100.545 203.799 100.105 201.637C99.871 200.555 99.6241 199.528 99.3905 198.54C99.1569 197.553 98.8967 196.625 98.7232 195.717C98.0559 192.127 97.4953 189.311 97.1216 187.383C96.9414 186.428 96.808 185.701 96.7146 185.194C96.6211 184.687 96.5144 184.446 96.5144 184.446Z" fill="#263238"/>
<path d="M103.387 225.854C103.387 225.927 102.212 226.14 100.424 226.868C99.9355 227.063 99.4588 227.286 98.9956 227.535C98.4818 227.775 97.9679 228.102 97.4207 228.429C96.267 229.186 95.1857 230.049 94.1909 231.005C93.2133 231.983 92.3307 233.051 91.555 234.195C91.2147 234.736 90.8877 235.243 90.6208 235.75C90.3706 236.206 90.1478 236.676 89.9534 237.158C89.1727 238.926 88.9191 240.107 88.8457 240.094C88.8703 239.811 88.924 239.532 89.0059 239.26C89.0766 238.935 89.1657 238.614 89.2728 238.299C89.4015 237.88 89.553 237.467 89.7266 237.064C89.9205 236.567 90.1433 236.081 90.3939 235.61C90.6408 235.089 90.9744 234.575 91.3081 234.021C92.0867 232.847 92.9809 231.754 93.9774 230.758C94.998 229.779 96.116 228.907 97.314 228.156C97.8745 227.835 98.395 227.488 98.9222 227.275C99.3988 227.035 99.889 226.824 100.39 226.641C100.8 226.48 101.219 226.342 101.645 226.227C101.961 226.123 102.284 226.043 102.612 225.987C102.866 225.92 103.125 225.875 103.387 225.854Z" fill="#263238"/>
<path d="M103.387 225.854C103.387 225.914 102.546 225.934 101.211 226.121C99.4692 226.373 97.7612 226.82 96.1196 227.455C94.7309 227.975 93.4037 228.646 92.1624 229.457C91.4389 229.952 90.7438 230.486 90.0804 231.059L90.0137 230.985C90.2139 230.832 90.314 230.765 90.3206 230.778C90.3273 230.792 90.2606 230.885 90.0804 231.065L90.0137 230.992C90.6132 230.33 91.2846 229.737 92.0156 229.224C93.2551 228.35 94.6005 227.637 96.0195 227.102C97.6841 226.459 99.4285 226.046 101.205 225.874C101.741 225.815 102.28 225.791 102.819 225.8C103.01 225.792 103.201 225.81 103.387 225.854Z" fill="#263238"/>
<path d="M111.715 239.801C111.615 239.632 111.539 239.45 111.488 239.26C111.319 238.752 111.179 238.235 111.068 237.712C110.701 235.985 110.58 234.214 110.708 232.453C110.837 230.691 111.209 228.955 111.815 227.295C111.999 226.794 112.211 226.304 112.449 225.827C112.526 225.645 112.627 225.475 112.75 225.32C112.81 225.32 112.463 226.107 112.082 227.375C111.005 230.695 110.753 234.226 111.348 237.665C111.535 238.986 111.769 239.781 111.715 239.801Z" fill="#263238"/>
</svg>
