<svg width="24" height="25" viewBox="0 0 24 25" fill="none" xmlns="http://www.w3.org/2000/svg">
<path d="M6.77918 4.27985C6.91166 4.13767 6.98378 3.94963 6.98035 3.75532C6.97692 3.56102 6.89821 3.37564 6.7608 3.23822C6.62339 3.10081 6.438 3.0221 6.2437 3.01867C6.0494 3.01524 5.86135 3.08737 5.71918 3.21985L3.74918 5.18985L3.27918 4.71985C3.137 4.58737 2.94896 4.51524 2.75465 4.51867C2.56035 4.5221 2.37497 4.60081 2.23756 4.73822C2.10014 4.87564 2.02143 5.06102 2.018 5.25532C2.01457 5.44963 2.0867 5.63767 2.21918 5.77985L3.21918 6.77985C3.3598 6.9203 3.55043 6.99919 3.74918 6.99919C3.94793 6.99919 4.13855 6.9203 4.27918 6.77985L6.77918 4.27985ZM10.9992 17.9998C10.9992 18.3425 11.0252 18.6782 11.0772 19.0068H9.74918C9.55915 19.0068 9.37624 18.9346 9.23739 18.8049C9.09854 18.6751 9.0141 18.4975 9.00115 18.308C8.9882 18.1184 9.04769 17.931 9.16761 17.7835C9.28753 17.6361 9.45893 17.5397 9.64718 17.5138L9.74918 17.5068H11.0172C11.0054 17.6709 10.9994 17.8354 10.9992 17.9998ZM17.4992 11.4998C18.726 11.4978 19.928 11.8447 20.9652 12.4998H21.2492L21.3512 12.4928C21.5394 12.4669 21.7108 12.3706 21.8307 12.2231C21.9507 12.0757 22.0102 11.8883 21.9972 11.6987C21.9843 11.5091 21.8998 11.3315 21.761 11.2018C21.6221 11.0721 21.4392 10.9999 21.2492 10.9998H9.74918L9.64718 11.0068C9.45893 11.0327 9.28753 11.1291 9.16761 11.2765C9.04769 11.424 8.9882 11.6114 9.00115 11.801C9.0141 11.9905 9.09854 12.1681 9.23739 12.2979C9.37624 12.4276 9.55915 12.4998 9.74918 12.4998H14.0332C15.0703 11.8447 16.2724 11.4978 17.4992 11.4998ZM21.2492 4.49985H9.74918L9.64718 4.50685C9.45893 4.53275 9.28753 4.62914 9.16761 4.77655C9.04769 4.92395 8.9882 5.11138 9.00115 5.30097C9.0141 5.49055 9.09854 5.66815 9.23739 5.79787C9.37624 5.9276 9.55915 5.99979 9.74918 5.99985H21.2492L21.3512 5.99285C21.5394 5.96694 21.7108 5.87055 21.8307 5.72315C21.9507 5.57574 22.0102 5.38831 21.9972 5.19873C21.9843 5.00915 21.8998 4.83155 21.761 4.70182C21.6221 4.57209 21.4392 4.4999 21.2492 4.49985ZM6.77918 17.2798C6.85286 17.2112 6.91197 17.1284 6.95296 17.0364C6.99395 16.9444 7.01599 16.8451 7.01777 16.7444C7.01955 16.6437 7.00102 16.5436 6.9633 16.4502C6.92558 16.3569 6.86943 16.272 6.79822 16.2008C6.727 16.1296 6.64216 16.0734 6.54877 16.0357C6.45539 15.998 6.35536 15.9795 6.25465 15.9813C6.15395 15.983 6.05464 16.0051 5.96264 16.0461C5.87064 16.0871 5.78784 16.1462 5.71918 16.2198L3.74918 18.1898L3.27918 17.7198C3.137 17.5874 2.94896 17.5152 2.75465 17.5187C2.56035 17.5221 2.37497 17.6008 2.23756 17.7382C2.10014 17.8756 2.02143 18.061 2.018 18.2553C2.01457 18.4496 2.0867 18.6377 2.21918 18.7798L3.21918 19.7798C3.3598 19.9203 3.55043 19.9992 3.74918 19.9992C3.94793 19.9992 4.13855 19.9203 4.27918 19.7798L6.77918 17.2798ZM6.77918 9.71985C6.91963 9.86047 6.99852 10.0511 6.99852 10.2498C6.99852 10.4486 6.91963 10.6392 6.77918 10.7798L4.27918 13.2798C4.13855 13.4203 3.94793 13.4992 3.74918 13.4992C3.55043 13.4992 3.3598 13.4203 3.21918 13.2798L2.21918 12.2798C2.14549 12.2112 2.08639 12.1284 2.0454 12.0364C2.0044 11.9444 1.98236 11.8451 1.98059 11.7444C1.97881 11.6437 1.99733 11.5436 2.03505 11.4502C2.07278 11.3569 2.12892 11.272 2.20014 11.2008C2.27136 11.1296 2.35619 11.0734 2.44958 11.0357C2.54297 10.998 2.643 10.9795 2.7437 10.9813C2.8444 10.983 2.94372 11.0051 3.03572 11.0461C3.12771 11.0871 3.21051 11.1462 3.27918 11.2198L3.74918 11.6898L5.71918 9.71985C5.8598 9.5794 6.05043 9.50051 6.24918 9.50051C6.44793 9.50051 6.63855 9.5794 6.77918 9.71985ZM22.9992 17.9998C22.9992 16.5412 22.4197 15.1422 21.3883 14.1108C20.3568 13.0793 18.9579 12.4998 17.4992 12.4998C16.0405 12.4998 14.6415 13.0793 13.6101 14.1108C12.5786 15.1422 11.9992 16.5412 11.9992 17.9998C11.9992 19.4585 12.5786 20.8575 13.6101 21.8889C14.6415 22.9204 16.0405 23.4998 17.4992 23.4998C18.9579 23.4998 20.3568 22.9204 21.3883 21.8889C22.4197 20.8575 22.9992 19.4585 22.9992 17.9998ZM17.9992 18.4998L18.0002 21.0028C18.0002 21.1355 17.9475 21.2626 17.8537 21.3564C17.76 21.4502 17.6328 21.5028 17.5002 21.5028C17.3676 21.5028 17.2404 21.4502 17.1466 21.3564C17.0529 21.2626 17.0002 21.1355 17.0002 21.0028V18.4998H14.4952C14.3626 18.4998 14.2354 18.4472 14.1416 18.3534C14.0479 18.2596 13.9952 18.1325 13.9952 17.9998C13.9952 17.8672 14.0479 17.7401 14.1416 17.6463C14.2354 17.5525 14.3626 17.4998 14.4952 17.4998H16.9992V14.9998C16.9992 14.8672 17.0519 14.7401 17.1456 14.6463C17.2394 14.5525 17.3666 14.4998 17.4992 14.4998C17.6318 14.4998 17.759 14.5525 17.8527 14.6463C17.9465 14.7401 17.9992 14.8672 17.9992 14.9998V17.4998H20.4962C20.6288 17.4998 20.756 17.5525 20.8497 17.6463C20.9435 17.7401 20.9962 17.8672 20.9962 17.9998C20.9962 18.1325 20.9435 18.2596 20.8497 18.3534C20.756 18.4472 20.6288 18.4998 20.4962 18.4998H17.9992Z" fill="#EEF3FF"/>
</svg>
