<svg width="14" height="14" viewBox="0 0 14 14" fill="none" xmlns="http://www.w3.org/2000/svg">
<path d="M4.15015 10.4001V9.8501C4.15015 8.33131 5.38136 7.1001 6.90015 7.1001V7.1001C8.41893 7.1001 9.65015 8.33131 9.65015 9.8501V10.4001" stroke="#F1C40F" stroke-width="1.1" stroke-linecap="round"/>
<path d="M6.9 7.10017C7.81127 7.10017 8.55 6.36144 8.55 5.45017C8.55 4.5389 7.81127 3.80017 6.9 3.80017C5.98873 3.80017 5.25 4.5389 5.25 5.45017C5.25 6.36144 5.98873 7.10017 6.9 7.10017Z" stroke="#F1C40F" stroke-width="1.1" stroke-linecap="round" stroke-linejoin="round"/>
<path d="M11.8501 2.81017V11.3902C11.8501 11.7547 11.5546 12.0502 11.1901 12.0502H2.6101C2.24559 12.0502 1.9501 11.7547 1.9501 11.3902V2.81017C1.9501 2.44566 2.24559 2.15017 2.6101 2.15017H11.1901C11.5546 2.15017 11.8501 2.44566 11.8501 2.81017Z" stroke="#F1C40F" stroke-width="1.1" stroke-linecap="round" stroke-linejoin="round"/>
</svg>
