<svg width="14" height="14" viewBox="0 0 14 14" fill="none" xmlns="http://www.w3.org/2000/svg">
<g clip-path="url(#clip0_4325_8304)">
<path d="M5.25015 4.90015H3.60015C2.38512 4.90015 1.40015 5.88512 1.40015 7.10015V9.85015C1.40015 11.0652 2.38512 12.0501 3.60015 12.0501H10.2001C11.4152 12.0501 12.4001 11.0652 12.4001 9.85015V7.10015C12.4001 5.88512 11.4152 4.90015 10.2001 4.90015H8.55015M5.25015 4.90015V2.81015C5.25015 2.44564 5.54564 2.15015 5.91015 2.15015H7.89015C8.25465 2.15015 8.55015 2.44564 8.55015 2.81015V4.90015M5.25015 4.90015H8.55015M5.25015 4.90015V8.20015M8.55015 4.90015V8.20015" stroke="#8E5C42" stroke-width="1.1" stroke-linecap="round" stroke-linejoin="round"/>
</g>
<defs>
<clipPath id="clip0_4325_8304">
<rect width="13.2" height="13.2" fill="white" transform="translate(0.300049 0.500122)"/>
</clipPath>
</defs>
</svg>
