<svg width="14" height="14" viewBox="0 0 14 14" fill="none" xmlns="http://www.w3.org/2000/svg">
<g clip-path="url(#clip0_4325_8287)">
<path d="M4.15015 10.4001V9.8501C4.15015 8.33131 5.38136 7.1001 6.90015 7.1001V7.1001C8.41893 7.1001 9.65015 8.33131 9.65015 9.8501V10.4001" stroke="#E67E22" stroke-width="0.99" stroke-linecap="round" stroke-linejoin="round"/>
<path d="M0.850098 10.4002V9.8502C0.850098 8.93893 1.58883 8.2002 2.5001 8.2002V8.2002" stroke="#E67E22" stroke-width="0.99" stroke-linecap="round" stroke-linejoin="round"/>
<path d="M12.95 10.4002V9.8502C12.95 8.93893 12.2112 8.2002 11.3 8.2002V8.2002" stroke="#E67E22" stroke-width="0.99" stroke-linecap="round" stroke-linejoin="round"/>
<path d="M6.9 7.10017C7.81127 7.10017 8.55 6.36144 8.55 5.45017C8.55 4.5389 7.81127 3.80017 6.9 3.80017C5.98873 3.80017 5.25 4.5389 5.25 5.45017C5.25 6.36144 5.98873 7.10017 6.9 7.10017Z" stroke="#E67E22" stroke-width="0.99" stroke-linecap="round" stroke-linejoin="round"/>
<path d="M2.50015 8.20012C3.10766 8.20012 3.60015 7.70764 3.60015 7.10012C3.60015 6.49261 3.10766 6.00012 2.50015 6.00012C1.89263 6.00012 1.40015 6.49261 1.40015 7.10012C1.40015 7.70764 1.89263 8.20012 2.50015 8.20012Z" stroke="#E67E22" stroke-width="0.99" stroke-linecap="round" stroke-linejoin="round"/>
<path d="M11.3 8.20012C11.9075 8.20012 12.4 7.70764 12.4 7.10012C12.4 6.49261 11.9075 6.00012 11.3 6.00012C10.6924 6.00012 10.2 6.49261 10.2 7.10012C10.2 7.70764 10.6924 8.20012 11.3 8.20012Z" stroke="#E67E22" stroke-width="0.99" stroke-linecap="round" stroke-linejoin="round"/>
</g>
<defs>
<clipPath id="clip0_4325_8287">
<rect width="13.2" height="13.2" fill="white" transform="translate(0.300049 0.500122)"/>
</clipPath>
</defs>
</svg>
