<svg width="16" height="17" viewBox="0 0 16 17" fill="none" xmlns="http://www.w3.org/2000/svg">
<path d="M14.1147 4.74134C14.4671 4.38895 14.6652 3.91098 14.6652 3.41257C14.6653 2.91416 14.4674 2.43614 14.115 2.08367C13.7626 1.7312 13.2846 1.53314 12.7862 1.53308C12.2878 1.53302 11.8098 1.73095 11.4573 2.08334L2.55999 10.9827C2.4052 11.137 2.29073 11.327 2.22665 11.536L1.34599 14.4373C1.32876 14.495 1.32746 14.5562 1.34222 14.6146C1.35699 14.6729 1.38727 14.7262 1.42985 14.7687C1.47244 14.8112 1.52573 14.8414 1.58409 14.8561C1.64245 14.8707 1.70369 14.8693 1.76132 14.852L4.66332 13.972C4.8721 13.9085 5.0621 13.7947 5.21665 13.6407L14.1147 4.74134Z" stroke="#5263F3" stroke-width="1.33333" stroke-linecap="round" stroke-linejoin="round"/>
</svg>
