<svg width="20" height="20" viewBox="0 0 20 20" fill="none" xmlns="http://www.w3.org/2000/svg">
<g clip-path="url(#clip0_4018_16365)">
<path d="M10.0893 1.64404C5.694 1.64404 2.13477 5.21124 2.13477 9.60654C2.13477 14.0018 5.694 17.569 10.0893 17.569C14.4926 17.569 18.0598 14.0018 18.0598 9.60654C18.0598 5.21124 14.4926 1.64404 10.0893 1.64404ZM10.0973 15.9765C6.57784 15.9765 3.72727 13.126 3.72727 9.60654C3.72727 6.08712 6.57784 3.23654 10.0973 3.23654C13.6167 3.23654 16.4673 6.08712 16.4673 9.60654C16.4673 13.126 13.6167 15.9765 10.0973 15.9765Z" fill="black"/>
<path d="M10.4932 5.62524H9.29883V10.4027L13.4791 12.9109L14.0763 11.9315L10.4932 9.80556V5.62524Z" fill="black"/>
</g>
<defs>
<clipPath id="clip0_4018_16365">
<rect width="19.11" height="19.11" fill="white" transform="translate(0.541016 0.0515137)"/>
</clipPath>
</defs>
</svg>
