<svg width="17" height="17" viewBox="0 0 17 17" fill="none" xmlns="http://www.w3.org/2000/svg">
<path d="M14.6147 5.14112C14.9671 4.78873 15.1652 4.31076 15.1652 3.81235C15.1653 3.31394 14.9674 2.83592 14.615 2.48345C14.2626 2.13098 13.7846 1.93292 13.2862 1.93286C12.7878 1.9328 12.3098 2.13073 11.9573 2.48312L3.05999 11.3824C2.9052 11.5368 2.79073 11.7268 2.72665 11.9358L1.84599 14.8371C1.82876 14.8948 1.82746 14.956 1.84222 15.0144C1.85699 15.0727 1.88727 15.1259 1.92985 15.1685C1.97244 15.211 2.02573 15.2412 2.08409 15.2558C2.14245 15.2705 2.20369 15.2691 2.26132 15.2518L5.16332 14.3718C5.3721 14.3083 5.5621 14.1945 5.71665 14.0404L14.6147 5.14112Z" stroke="#5263F3" stroke-width="1.33333" stroke-linecap="round" stroke-linejoin="round"/>
</svg>
