<svg width="34" height="34" viewBox="0 0 34 34" fill="none" xmlns="http://www.w3.org/2000/svg">
<path d="M24.7641 6.32145L21.3486 8.94045L22.5771 13.0714L19.0266 10.6279L15.4761 13.0714L16.7046 8.94045L13.2891 6.32145L17.5956 6.19995L19.0266 2.14995L20.4576 6.19995L24.7641 6.32145ZM29.4891 15.6499L27.2751 17.3374L28.0716 20.0104L25.7766 18.4309L23.4816 20.0104L24.2781 17.3374L22.0641 15.6499L24.8451 15.5824L25.7766 12.9499L26.7081 15.5824L29.4891 15.6499ZM26.4111 22.3324C27.5316 22.2244 28.7331 23.8174 28.0176 24.8299C27.5856 25.4374 27.1266 26.0044 26.5596 26.5444C21.2811 31.8499 12.7356 31.8499 7.47059 26.5444C2.19209 21.2794 2.19209 12.7204 7.47059 7.45545C8.01059 6.91545 8.57759 6.42945 9.18509 5.99745C10.1976 5.28195 11.7906 6.48345 11.6826 7.60395C11.3181 11.4649 12.6141 15.4744 15.5841 18.4309C16.9876 19.842 18.6868 20.9239 20.5591 21.5986C22.4314 22.2733 24.4302 22.5239 26.4111 22.3324ZM24.1971 25.0594C20.2339 24.8316 16.49 23.166 13.6671 20.3749C10.7376 17.4184 9.17159 13.6249 8.95559 9.81795C5.16209 14.0569 5.31059 20.5639 9.37409 24.6409C13.4511 28.7044 19.9581 28.8529 24.1971 25.0594Z" fill="white"/>
</svg>
