<svg width="240" height="291" viewBox="0 0 240 291" fill="none" xmlns="http://www.w3.org/2000/svg">
<path d="M99.9843 234.594H22.8262V290.431H99.9843V234.594Z" fill="#EBEBEB"/>
<path d="M80.6614 290.041C80.5577 290.041 80.4688 277.592 80.4688 262.238C80.4688 246.883 80.5577 234.434 80.6614 234.434C80.7651 234.434 80.854 246.883 80.854 262.238C80.854 277.592 80.7651 290.041 80.6614 290.041Z" fill="#E0E0E0"/>
<path d="M93.447 277.721H87.5352V283.998H93.447V277.721Z" fill="#FAFAFA"/>
<path d="M55.1352 234.742H46.3711V246.655H55.1352V234.742Z" fill="#E0E0E0"/>
<path d="M55.1352 278.349H46.3711V290.263H55.1352V278.349Z" fill="#E0E0E0"/>
<path d="M240.001 220.594H142.707V291H240.001V220.594Z" fill="#EBEBEB"/>
<path d="M215.618 290.501C215.515 290.501 215.426 274.813 215.426 255.455C215.426 236.097 215.515 220.409 215.618 220.409C215.722 220.409 215.811 236.097 215.811 255.455C215.811 274.813 215.73 290.501 215.618 290.501Z" fill="#E0E0E0"/>
<path d="M231.745 274.973H224.285V282.883H231.745V274.973Z" fill="#FAFAFA"/>
<path d="M183.434 220.774H172.381V235.795H183.434V220.774Z" fill="#E0E0E0"/>
<path d="M183.434 275.767H172.381V290.788H183.434V275.767Z" fill="#E0E0E0"/>
<path d="M179.448 10.8095L173.24 10.841L173.407 39.8257L179.615 39.7942L179.448 10.8095Z" fill="#E0E0E0"/>
<path d="M135.533 10.8875L119.457 10.9691L119.549 26.9698L135.625 26.8882L135.533 10.8875Z" fill="#EBEBEB"/>
<path d="M151.535 10.8042L135.459 10.8858L135.551 26.8865L151.627 26.8049L151.535 10.8042Z" fill="#F5F5F5"/>
<path d="M119.477 15.3953C130.164 15.4787 140.857 15.4323 151.555 15.2562C151.6 15.2562 151.643 15.2394 151.675 15.2094C151.707 15.1794 151.725 15.1388 151.725 15.0964C151.725 15.054 151.707 15.0133 151.675 14.9833C151.643 14.9533 151.6 14.9365 151.555 14.9365C140.872 14.8809 130.159 14.9365 119.477 15.1242C119.444 15.1312 119.415 15.1484 119.394 15.173C119.373 15.1976 119.361 15.2282 119.361 15.2597C119.361 15.2912 119.373 15.3218 119.394 15.3464C119.415 15.371 119.444 15.3883 119.477 15.3953Z" fill="#E0E0E0"/>
<path d="M138.648 26.6211L109.438 26.7693L109.513 39.809L138.723 39.6607L138.648 26.6211Z" fill="#EBEBEB"/>
<path d="M167.719 26.4737L138.508 26.622L138.583 39.6617L167.794 39.5134L167.719 26.4737Z" fill="#F5F5F5"/>
<path d="M109.457 30.4106C128.859 30.6122 148.328 30.4106 167.738 30.1395C167.784 30.1395 167.827 30.1227 167.859 30.0927C167.891 30.0627 167.909 30.022 167.909 29.9796C167.909 29.9372 167.891 29.8966 167.859 29.8666C167.827 29.8366 167.784 29.8198 167.738 29.8198C148.336 29.7225 128.859 29.7294 109.457 30.1326C109.417 30.1326 109.38 30.1472 109.352 30.1733C109.324 30.1993 109.309 30.2347 109.309 30.2716C109.309 30.3084 109.324 30.3438 109.352 30.3699C109.38 30.3959 109.417 30.4106 109.457 30.4106Z" fill="#E0E0E0"/>
<path d="M211.696 39.8209H98.5254V44.4918H211.696V39.8209Z" fill="#E0E0E0"/>
<path d="M121.65 42.0698H117.057V58.0082H121.65V42.0698Z" fill="#E0E0E0"/>
<path d="M190.23 42.0698H185.637V58.0082H190.23V42.0698Z" fill="#E0E0E0"/>
<path d="M185.509 0.000467187L179.301 0.0319824L179.531 39.8947L185.739 39.8631L185.509 0.000467187Z" fill="#EBEBEB"/>
<path d="M195.204 7.4218L185.559 7.47076L185.745 39.7779L195.39 39.729L195.204 7.4218Z" fill="#F5F5F5"/>
<path d="M195.139 13.6589C191.932 13.8714 188.714 13.8714 185.508 13.6589C188.714 13.4556 191.932 13.4556 195.139 13.6589Z" fill="#E0E0E0"/>
<path d="M195.14 12.3395C193.538 12.4916 191.926 12.5427 190.317 12.4924C188.708 12.5424 187.096 12.4913 185.494 12.3395C188.7 12.127 191.919 12.127 195.125 12.3395H195.14Z" fill="#E0E0E0"/>
<path d="M195.139 34.8796C191.932 35.0921 188.714 35.0921 185.508 34.8796C188.714 34.6763 191.932 34.6763 195.139 34.8796Z" fill="#E0E0E0"/>
<path d="M195.139 33.5281C191.932 33.7314 188.714 33.7314 185.508 33.5281C188.714 33.3157 191.932 33.3157 195.139 33.5281Z" fill="#E0E0E0"/>
<path d="M190.472 30.5673C190.383 30.5673 190.309 27.3073 190.309 23.2897C190.309 19.2721 190.383 16.0052 190.472 16.0052C190.56 16.0052 190.642 19.2651 190.642 23.2897C190.642 27.3143 190.568 30.5673 190.472 30.5673Z" fill="#E0E0E0"/>
<path d="M205.75 15.3709H195.252V39.7546H205.75V15.3709Z" fill="#EBEBEB"/>
<path d="M182.305 8.49528C183.291 8.49528 184.09 7.74528 184.09 6.82012C184.09 5.89495 183.291 5.14496 182.305 5.14496C181.319 5.14496 180.52 5.89495 180.52 6.82012C180.52 7.74528 181.319 8.49528 182.305 8.49528Z" fill="#E0E0E0"/>
<path d="M182.864 11.4304H181.76V35.1468H182.864V11.4304Z" fill="#E0E0E0"/>
<path d="M239.961 290.62C239.961 290.724 187.122 290.8 121.963 290.8C56.8037 290.8 3.95312 290.724 3.95312 290.62C3.95312 290.515 56.7817 290.439 121.963 290.439C187.144 290.439 239.961 290.522 239.961 290.62Z" fill="#263238"/>
<path d="M149.182 59.2835C149.182 59.2835 148.982 59.2835 148.597 59.2835C148.034 59.2521 147.47 59.2521 146.908 59.2835C144.732 59.403 142.594 59.8733 140.588 60.6737C137.409 61.924 134.642 63.9466 132.572 66.5332C131.296 68.1484 130.347 69.9695 129.772 71.9063C128.475 76.5197 129.176 81.427 131.721 85.5578C132.414 86.7014 133.261 87.7573 134.239 88.6996C135.227 89.6979 136.377 90.5426 137.647 91.2019C138.951 91.8901 140.427 92.2381 141.922 92.2098C143.463 92.1924 144.942 91.6316 146.063 90.6389C146.605 90.106 147.03 89.4781 147.314 88.7912C147.597 88.1042 147.733 87.3716 147.715 86.6352C147.704 85.1051 147.186 83.6162 146.233 82.3743C144.315 79.8372 141.203 78.1342 137.892 77.2167C134.458 76.3119 130.832 76.2639 127.372 77.0777C125.606 77.5088 123.904 78.1438 122.304 78.9684C120.69 79.8232 119.224 80.9037 117.956 82.1727C117.652 82.4994 117.304 82.7983 117.03 83.1597L116.193 84.2163C115.684 84.9608 115.228 85.7364 114.829 86.5379C114.037 88.1652 113.496 89.8901 113.222 91.6606C112.684 95.1978 113.197 98.8056 114.703 102.087C116.144 105.293 118.652 107.976 121.853 109.733C123.404 110.565 125.137 111.057 126.92 111.172C128.668 111.264 130.407 110.872 131.921 110.046C133.423 109.267 134.61 108.045 135.299 106.57C135.948 105.116 135.993 103.487 135.425 102.004C134.839 100.572 133.882 99.3012 132.639 98.3057C131.434 97.3285 130.044 96.5717 128.542 96.0745C125.613 95.2078 122.478 95.1571 119.519 95.9285C116.75 96.6325 114.206 97.9617 112.111 99.8001C110.202 101.516 108.748 103.628 107.866 105.966C106.322 110.022 106.393 114.466 108.066 118.477C109.37 121.472 111.469 124.104 114.163 126.123C115.86 127.4 117.75 128.433 119.771 129.188C120.467 129.432 121.008 129.612 121.378 129.71L121.927 129.877C121.927 129.877 121.734 129.842 121.364 129.744C120.816 129.607 120.277 129.442 119.749 129.251C117.701 128.529 115.786 127.511 114.074 126.234C111.334 124.217 109.194 121.572 107.858 118.554C106.156 114.504 106.07 110.015 107.614 105.91C108.498 103.536 109.967 101.393 111.903 99.6542C114.029 97.7789 116.61 96.4188 119.423 95.6922C122.444 94.9012 125.646 94.9495 128.639 95.8312C130.185 96.3371 131.615 97.1131 132.854 98.118C134.145 99.1461 135.139 100.463 135.743 101.948C136.352 103.498 136.326 105.205 135.669 106.737C134.938 108.27 133.699 109.541 132.135 110.359C130.566 111.217 128.764 111.627 126.95 111.54C125.123 111.421 123.349 110.912 121.764 110.053C118.49 108.271 115.919 105.542 114.437 102.275C112.898 98.9331 112.37 95.2583 112.911 91.6537C113.194 89.8473 113.747 88.0875 114.555 86.4266C114.962 85.6081 115.428 84.8162 115.948 84.0564L116.807 82.979C117.082 82.6106 117.437 82.2839 117.748 81.9642C119.046 80.6711 120.545 79.5697 122.193 78.6973C123.83 77.857 125.572 77.2125 127.379 76.7788C130.905 75.9498 134.6 76.0002 138.099 76.9248C141.477 77.8701 144.641 79.6009 146.634 82.2283C147.635 83.5221 148.179 85.0779 148.189 86.6769C148.225 88.2505 147.594 89.7731 146.434 90.91C145.248 91.9539 143.688 92.5419 142.063 92.5573C140.507 92.5904 138.971 92.2277 137.618 91.5077C136.317 90.8345 135.141 89.9684 134.136 88.9429C133.144 87.9794 132.285 86.9029 131.58 85.7385C128.99 81.531 128.286 76.5307 129.624 71.8368C130.217 69.8776 131.189 68.0375 132.491 66.4081C134.599 63.8018 137.413 61.7736 140.64 60.5346C142.662 59.7497 144.817 59.3073 147.004 59.2279C147.571 59.1928 148.141 59.1928 148.708 59.2279L149.182 59.2835Z" fill="#263238"/>
<path d="M173.923 128.835H70.0508V204.002H173.923V128.835Z" fill="#7F94FA"/>
<path d="M70.0508 128.835L89.2384 145.629H191.348L173.923 128.835H70.0508Z" fill="#7F94FA"/>
<path d="M70.0508 128.836L173.953 128.662H174.035L174.094 128.711L191.34 145.331L191.518 145.504L191.837 145.81H191.378L89.2681 145.734H89.2236L70.0508 128.836L89.3125 145.518H89.231L191.34 145.449L191.207 145.755L191.022 145.581L173.783 128.961L173.916 129.017L70.0508 128.836Z" fill="#263238"/>
<path d="M101.256 163.498C100.693 163.518 100.161 163.743 99.7741 164.127C99.3869 164.51 99.1757 165.021 99.1859 165.549C99.1961 166.078 99.4269 166.581 99.8286 166.951C100.23 167.321 100.771 167.529 101.334 167.529C101.897 167.529 102.438 167.321 102.839 166.951C103.241 166.581 103.472 166.078 103.482 165.549C103.492 165.021 103.281 164.51 102.894 164.127C102.507 163.743 101.974 163.518 101.412 163.498" fill="#263238"/>
<path d="M125.798 163.498C125.237 163.518 124.708 163.744 124.323 164.126C123.938 164.509 123.728 165.018 123.739 165.544C123.749 166.07 123.98 166.571 124.38 166.94C124.78 167.308 125.319 167.515 125.879 167.515C126.44 167.515 126.978 167.308 127.379 166.94C127.779 166.571 128.009 166.07 128.02 165.544C128.031 165.018 127.821 164.509 127.436 164.126C127.051 163.744 126.521 163.518 125.961 163.498" fill="#263238"/>
<path d="M125.935 181.488C125.507 179.953 124.811 178.495 123.876 177.172C122.835 175.758 121.499 174.556 119.949 173.641C118.079 172.476 115.898 171.828 113.654 171.771C111.41 171.713 109.194 172.248 107.259 173.314C105.66 174.152 104.257 175.281 103.132 176.637C102.119 177.91 101.34 179.334 100.828 180.849C100.834 180.736 100.854 180.624 100.887 180.515C100.958 180.202 101.05 179.893 101.162 179.591C101.567 178.474 102.16 177.426 102.917 176.484C104.034 175.065 105.455 173.881 107.088 173.008C109.074 171.896 111.355 171.337 113.667 171.396C115.978 171.455 118.224 172.13 120.142 173.342C121.719 174.293 123.066 175.543 124.098 177.012C124.802 177.992 125.334 179.072 125.676 180.21C125.767 180.518 125.839 180.831 125.891 181.148C125.916 181.26 125.931 181.374 125.935 181.488Z" fill="#263238"/>
<path opacity="0.5" d="M70.2871 129.662L88.6598 151.515H173.923V145.628H89.2377L70.2871 129.662Z" fill="black"/>
<path d="M153.439 203.837C153.335 203.837 153.246 190.762 153.246 174.643C153.246 158.524 153.335 145.449 153.439 145.449C153.542 145.449 153.639 158.517 153.639 174.643C153.639 190.769 153.55 203.837 153.439 203.837Z" fill="#263238"/>
<path d="M169.752 186.789H160.596V196.499H169.752V186.789Z" fill="#F5F5F5"/>
<path d="M70.0478 128.835L48.7266 145.629H70.0478V128.835Z" fill="#7F94FA"/>
<g opacity="0.4">
<path d="M70.0478 128.835L48.7266 145.629H70.0478V128.835Z" fill="black"/>
</g>
<path d="M176.989 204.005H57.5586V290.432H176.989V204.005Z" fill="#7F94FA"/>
<path opacity="0.3" d="M176.989 204.005H57.5586V290.432H176.989V204.005Z" fill="black"/>
<path d="M147.064 289.819C146.96 289.819 146.871 270.558 146.871 246.8C146.871 223.042 146.96 203.774 147.064 203.774C147.167 203.774 147.256 223.035 147.256 246.8C147.256 270.565 147.167 289.819 147.064 289.819Z" fill="#263238"/>
<path d="M166.864 270.755H157.707V280.466H166.864V270.755Z" fill="#F5F5F5"/>
<path d="M107.557 204.229H93.9922V222.67H107.557V204.229Z" fill="#263238"/>
<path d="M107.557 271.729H93.9922V290.17H107.557V271.729Z" fill="#263238"/>
<path d="M175.952 204H175.64H174.744L171.299 204.035L158.609 204.091L116.759 204.181L74.8942 204.132L62.211 204.077L58.7662 204.042L62.211 204.007L74.8942 203.952L116.759 203.896L158.609 203.952L171.299 204.007L174.744 204.042H175.64L175.952 204Z" fill="#263238"/>
<path d="M46.2454 119.212L33.2363 116.209H33.3326C29.9736 118.213 26.0894 119.308 22.109 119.371C19.7525 119.382 17.4077 119.061 15.1525 118.419C11.1877 117.225 7.67014 114.99 5.01565 111.98C2.36116 108.97 0.680681 105.309 0.172812 101.431C-0.226067 98.4984 0.0675701 95.5192 1.0329 92.7047C1.99824 89.8902 3.61164 87.3095 5.75872 85.1453C6.88738 83.9822 8.15233 82.9422 9.52957 82.0453C10.226 81.6352 10.9223 81.2112 11.6484 80.8567L12.7522 80.3562L13.3004 80.106L13.8783 79.9113C16.8531 78.8294 20.0442 78.3716 23.2276 78.5698C27.4941 78.8297 31.583 80.2688 34.9792 82.7056C38.3753 85.1424 40.9266 88.4679 42.3116 92.263C43.081 94.386 43.4861 96.6102 43.5117 98.8525C43.5303 102.579 42.4509 106.238 40.3928 109.425V109.314C44.0081 115.437 45.8305 118.53 46.238 119.212C45.8157 118.516 43.9266 115.479 40.1854 109.418V109.362V109.307C42.1696 106.15 43.1944 102.544 43.1487 98.8803C43.1143 96.6739 42.7042 94.4869 41.9337 92.4021C40.5639 88.6846 38.0555 85.4289 34.7228 83.0426C31.3902 80.6563 27.3812 79.2455 23.198 78.9869C20.0772 78.796 16.9497 79.2468 14.0339 80.3075L13.4708 80.4952L12.93 80.7454L11.8484 81.232C11.1076 81.5865 10.4556 81.9966 9.76664 82.3998C8.41598 83.2727 7.17354 84.2845 6.06246 85.4164C3.95464 87.5409 2.37033 90.0742 1.42169 92.8368C0.473045 95.5995 0.183266 98.524 0.572864 101.403C1.2597 106.679 4.14426 111.484 8.59612 114.77C10.5864 116.25 12.8452 117.38 15.2636 118.106C17.4783 118.749 19.7835 119.074 22.1016 119.073C26.0343 119.033 29.8792 117.977 33.2141 116.021H33.2586H33.34L46.2454 119.212Z" fill="#263238"/>
<path d="M20.0054 89.8971L20.6647 100.115C20.691 100.518 20.8735 100.898 21.1778 101.183C21.4821 101.469 21.8872 101.64 22.3168 101.665C22.7688 101.689 23.2133 101.549 23.5592 101.275C23.905 101.001 24.1259 100.613 24.1763 100.191L25.3838 89.9527C25.4049 89.7695 25.3841 89.5842 25.3231 89.4091C25.262 89.234 25.1619 89.0731 25.0295 88.9371C24.8971 88.801 24.7354 88.6929 24.5551 88.6199C24.3748 88.547 24.18 88.5108 23.9837 88.5138H21.3389C21.1533 88.519 20.9707 88.5594 20.8022 88.6324C20.6336 88.7054 20.4825 88.8097 20.358 88.9389C20.2334 89.0681 20.138 89.2195 20.0774 89.3842C20.0168 89.5489 19.9923 89.7233 20.0054 89.8971Z" fill="#7F94FA"/>
<path d="M25.1898 107.371C25.0241 107.838 24.7145 108.248 24.3004 108.55C23.8862 108.852 23.386 109.031 22.863 109.067C22.3399 109.102 21.8175 108.991 21.3618 108.747C20.9061 108.504 20.5375 108.139 20.3025 107.699C20.0676 107.259 19.9769 106.764 20.042 106.276C20.107 105.788 20.3248 105.329 20.6678 104.956C21.0109 104.584 21.4638 104.316 21.9694 104.185C22.4749 104.055 23.0104 104.068 23.5081 104.222C23.8391 104.325 24.1451 104.488 24.4088 104.703C24.6725 104.917 24.8886 105.177 25.0448 105.47C25.201 105.762 25.2942 106.081 25.3191 106.407C25.344 106.733 25.3001 107.061 25.1898 107.371Z" fill="#7F94FA"/>
</svg>
