<svg width="36" height="36" viewBox="0 0 36 36" fill="none" xmlns="http://www.w3.org/2000/svg">
<g clip-path="url(#clip0_4111_37502)">
<path d="M9 19.5C6.5 19.5 1.5 21 1.5 27C1.5 33 6.5 34.5 9 34.5H27C29.5 34.5 34.5 33 34.5 27C34.5 21 29.5 19.5 27 19.5" stroke="#131927" stroke-width="2.25" stroke-linecap="round" stroke-linejoin="round"/>
<path d="M18 18C20.4853 18 22.5 15.9853 22.5 13.5C22.5 11.0147 20.4853 9 18 9C15.5147 9 13.5 11.0147 13.5 13.5C13.5 15.9853 15.5147 18 18 18Z" stroke="#131927" stroke-width="2.25" stroke-linecap="round" stroke-linejoin="round"/>
<path d="M28.5 13.5L30 13.5" stroke="#131927" stroke-width="2.25" stroke-linecap="round" stroke-linejoin="round"/>
<path d="M18 3V1.5" stroke="#131927" stroke-width="2.25" stroke-linecap="round" stroke-linejoin="round"/>
<path d="M27.75 5.25L26.25 6.75" stroke="#131927" stroke-width="2.25" stroke-linecap="round" stroke-linejoin="round"/>
<path d="M8.25 5.25L9.75 6.75" stroke="#131927" stroke-width="2.25" stroke-linecap="round" stroke-linejoin="round"/>
<path d="M6 13.5L7.5 13.5" stroke="#131927" stroke-width="2.25" stroke-linecap="round" stroke-linejoin="round"/>
</g>
<defs>
<clipPath id="clip0_4111_37502">
<rect width="36" height="36" fill="white"/>
</clipPath>
</defs>
</svg>
