<svg width="36" height="36" viewBox="0 0 36 36" fill="none" xmlns="http://www.w3.org/2000/svg">
<g clip-path="url(#clip0_4111_37511)">
<path d="M18 27C22.9706 27 27 22.9706 27 18C27 13.0294 22.9706 9 18 9C13.0294 9 9 13.0294 9 18C9 22.9706 13.0294 27 18 27Z" stroke="#131927" stroke-width="2.25" stroke-linecap="round" stroke-linejoin="round"/>
<path d="M33 18L34.5 18" stroke="#131927" stroke-width="2.25" stroke-linecap="round" stroke-linejoin="round"/>
<path d="M18 3V1.5" stroke="#131927" stroke-width="2.25" stroke-linecap="round" stroke-linejoin="round"/>
<path d="M18 34.5V33" stroke="#131927" stroke-width="2.25" stroke-linecap="round" stroke-linejoin="round"/>
<path d="M30 30L28.5 28.5" stroke="#131927" stroke-width="2.25" stroke-linecap="round" stroke-linejoin="round"/>
<path d="M30 6L28.5 7.5" stroke="#131927" stroke-width="2.25" stroke-linecap="round" stroke-linejoin="round"/>
<path d="M6 30L7.5 28.5" stroke="#131927" stroke-width="2.25" stroke-linecap="round" stroke-linejoin="round"/>
<path d="M6 6L7.5 7.5" stroke="#131927" stroke-width="2.25" stroke-linecap="round" stroke-linejoin="round"/>
<path d="M1.5 18L3 18" stroke="#131927" stroke-width="2.25" stroke-linecap="round" stroke-linejoin="round"/>
</g>
<defs>
<clipPath id="clip0_4111_37511">
<rect width="36" height="36" fill="white"/>
</clipPath>
</defs>
</svg>
