<svg width="12" height="12" viewBox="0 0 12 12" fill="none" xmlns="http://www.w3.org/2000/svg">
<path d="M5.07727 1.09146C4.99203 1.08955 4.9088 1.11666 4.84199 1.16807C4.77517 1.21948 4.72899 1.29196 4.71144 1.37295L3.43018 7.19655L2.74572 7.86047L4.26412 9.33342L5.12222 8.50038C5.22216 8.40387 5.30142 8.2891 5.35544 8.1627C5.40945 8.03629 5.43714 7.90076 5.43692 7.76391V1.4466C5.43679 1.35343 5.39907 1.26402 5.33184 1.19753C5.26461 1.13104 5.17322 1.09331 5.07727 1.09146ZM3.61225 1.14492C3.6654 0.903723 3.78116 0.679716 3.94855 0.494158C4.11593 0.3086 4.32939 0.167649 4.56866 0.0846846C4.80793 0.00171985 5.06507 -0.0205059 5.31568 0.0201169C5.56629 0.0607398 5.80204 0.162863 6.00056 0.316794C6.19907 0.162709 6.43488 0.0604696 6.68556 0.0197944C6.93625 -0.0208807 7.19349 0.00135982 7.43282 0.084402C7.67216 0.167444 7.88564 0.308528 8.05298 0.494244C8.22031 0.67996 8.33594 0.904136 8.38887 1.14546L9.60045 6.6532L12 8.98264L8.89238 11.9995L6.08317 9.27232C6.05507 9.24468 6.02735 9.21631 6 9.18721C5.97307 9.2163 5.94533 9.24468 5.91683 9.27232L3.10761 12L0 8.98318L2.39955 6.6532L3.61225 1.14492ZM7.28913 1.37241C7.27103 1.28561 7.22023 1.20848 7.14667 1.15612C7.0731 1.10375 6.98206 1.07991 6.89135 1.08926C6.80063 1.0986 6.71677 1.14046 6.65617 1.20665C6.59556 1.27284 6.56257 1.35859 6.56364 1.44715V7.76336C6.56364 8.03995 6.67659 8.30508 6.87834 8.49984L7.73644 9.33342L9.25372 7.85992L8.57038 7.19601L7.28913 1.37241Z" fill="#27AE60"/>
</svg>
