<svg width="12" height="12" viewBox="0 0 12 12" fill="none" xmlns="http://www.w3.org/2000/svg">
<path d="M1.82331 3.96334L5.48167 2.13416C5.65059 2.04971 5.84941 2.04971 6.01833 2.13416L9.67669 3.96334C10.1189 4.18446 10.1189 4.81554 9.67669 5.03666L6.01833 6.86584C5.84941 6.95029 5.65059 6.95029 5.48167 6.86584L1.82331 5.03666C1.38108 4.81554 1.38108 4.18446 1.82331 3.96334Z" stroke="#3498DB" stroke-linecap="round" stroke-linejoin="round"/>
<path d="M11.25 6.5L11.25 4.75L10.25 4.25" stroke="#3498DB" stroke-linecap="round" stroke-linejoin="round"/>
<path d="M2.25 5.25V7.32385C2.25 8.09609 2.69459 8.79934 3.3922 9.13055L4.8922 9.84274C5.43503 10.1005 6.06497 10.1005 6.6078 9.84274L8.1078 9.13055C8.80541 8.79934 9.25 8.09609 9.25 7.32385V5.25" stroke="#3498DB" stroke-linecap="round" stroke-linejoin="round"/>
</svg>
