<svg width="12" height="12" viewBox="0 0 12 12" fill="none" xmlns="http://www.w3.org/2000/svg">
<path d="M3.4 3.5H2.6C2.26863 3.5 2 3.76863 2 4.1V7.9C2 8.23137 2.26863 8.5 2.6 8.5H3.4C3.73137 8.5 4 8.23137 4 7.9V4.1C4 3.76863 3.73137 3.5 3.4 3.5Z" stroke="#E74C3C" stroke-linecap="round" stroke-linejoin="round"/>
<path d="M9.4 3.5H8.6C8.26863 3.5 8 3.76863 8 4.1V7.9C8 8.23137 8.26863 8.5 8.6 8.5H9.4C9.73137 8.5 10 8.23137 10 7.9V4.1C10 3.76863 9.73137 3.5 9.4 3.5Z" stroke="#E74C3C" stroke-linecap="round" stroke-linejoin="round"/>
<path d="M0.5 6.9V5.1C0.5 4.76863 0.768629 4.5 1.1 4.5H1.4C1.73137 4.5 2 4.76863 2 5.1V6.9C2 7.23137 1.73137 7.5 1.4 7.5H1.1C0.768629 7.5 0.5 7.23137 0.5 6.9Z" stroke="#E74C3C" stroke-linecap="round" stroke-linejoin="round"/>
<path d="M11.5 6.9V5.1C11.5 4.76863 11.2314 4.5 10.9 4.5H10.6C10.2686 4.5 10 4.76863 10 5.1V6.9C10 7.23137 10.2686 7.5 10.6 7.5H10.9C11.2314 7.5 11.5 7.23137 11.5 6.9Z" stroke="#E74C3C" stroke-linecap="round" stroke-linejoin="round"/>
<path d="M4 6H8" stroke="#E74C3C" stroke-linecap="round" stroke-linejoin="round"/>
</svg>
