<svg width="12" height="12" viewBox="0 0 12 12" fill="none" xmlns="http://www.w3.org/2000/svg">
<path d="M3.5 9V8.5C3.5 7.11929 4.61929 6 6 6V6C7.38071 6 8.5 7.11929 8.5 8.5V9" stroke="#E67E22" stroke-width="0.9" stroke-linecap="round" stroke-linejoin="round"/>
<path d="M0.5 9V8.5C0.5 7.67157 1.17157 7 2 7V7" stroke="#E67E22" stroke-width="0.9" stroke-linecap="round" stroke-linejoin="round"/>
<path d="M11.5 9V8.5C11.5 7.67157 10.8284 7 10 7V7" stroke="#E67E22" stroke-width="0.9" stroke-linecap="round" stroke-linejoin="round"/>
<path d="M6 6C6.82843 6 7.5 5.32843 7.5 4.5C7.5 3.67157 6.82843 3 6 3C5.17157 3 4.5 3.67157 4.5 4.5C4.5 5.32843 5.17157 6 6 6Z" stroke="#E67E22" stroke-width="0.9" stroke-linecap="round" stroke-linejoin="round"/>
<path d="M2 7C2.55228 7 3 6.55228 3 6C3 5.44772 2.55228 5 2 5C1.44772 5 1 5.44772 1 6C1 6.55228 1.44772 7 2 7Z" stroke="#E67E22" stroke-width="0.9" stroke-linecap="round" stroke-linejoin="round"/>
<path d="M10 7C10.5523 7 11 6.55228 11 6C11 5.44772 10.5523 5 10 5C9.44772 5 9 5.44772 9 6C9 6.55228 9.44772 7 10 7Z" stroke="#E67E22" stroke-width="0.9" stroke-linecap="round" stroke-linejoin="round"/>
</svg>
