<svg xmlns="http://www.w3.org/2000/svg" width="44" height="44" fill="none" viewBox="0 0 44 44">
  <path fill="#5263F3" d="M13.048 20.277h3.6v3.6h-3.6v-3.6Zm0 7.2h3.6v3.6h-3.6v-3.6Zm7.2-7.2h3.6v3.6h-3.6v-3.6Zm0 7.2h3.6v3.6h-3.6v-3.6Zm7.2-7.2h3.6v3.6h-3.6v-3.6Zm0 7.2h3.6v3.6h-3.6v-3.6Z"/>
  <path fill="#5263F3" d="M9.448 40.077h25.2c1.985 0 3.6-1.615 3.6-3.6v-25.2c0-1.986-1.615-3.6-3.6-3.6h-3.6v-3.6h-3.6v3.6h-10.8v-3.6h-3.6v3.6h-3.6a3.604 3.604 0 0 0-3.6 3.6v25.2c0 1.985 1.614 3.6 3.6 3.6Zm25.2-25.2.002 21.6H9.448v-21.6h25.2Z"/>
</svg>
