<svg xmlns="http://www.w3.org/2000/svg" width="158" height="149" fill="none" viewBox="0 0 158 149">
  <path fill="#3F3D56" d="M117.13 147.642H67.643a11.2 11.2 0 0 1-11.19-11.19V11.19A11.203 11.203 0 0 1 67.643 0h49.487a11.203 11.203 0 0 1 11.19 11.19v125.262a11.2 11.2 0 0 1-11.19 11.19Z"/>
  <path fill="#fff" d="M116.576 3.474h-5.509a1.855 1.855 0 0 0-1.854 1.854 3.797 3.797 0 0 1-3.791 3.791h-26.94a3.795 3.795 0 0 1-3.791-3.79 1.856 1.856 0 0 0-1.855-1.855H67.98a8.498 8.498 0 0 0-8.487 8.487v124.372a8.498 8.498 0 0 0 8.487 8.487h48.597a8.498 8.498 0 0 0 8.487-8.487V11.961a8.499 8.499 0 0 0-8.487-8.487Z"/>
  <path fill="#fff" d="M98.737 5.97H83.54a.543.543 0 1 1 0-1.085h15.198a.543.543 0 0 1 0 1.086Zm2.389-.108a.435.435 0 1 0-.001-.869.435.435 0 0 0 .001.87Z"/>
  <path fill="#3F3D56" d="M128.754 49.395a.977.977 0 0 1-.977-.977V29.311a.975.975 0 0 1 .977-.977.975.975 0 0 1 .977.977v19.107a.977.977 0 0 1-.977.977Zm-72.3-14.113a.978.978 0 0 1-.977-.977v-4.342a.977.977 0 1 1 1.954 0v4.342a.979.979 0 0 1-.977.977Zm0 8.034a.978.978 0 0 1-.977-.977v-4.343a.977.977 0 1 1 1.954 0v4.343a.979.979 0 0 1-.977.977Zm89.485 104.76H1.119a.22.22 0 0 1-.153-.063.218.218 0 0 1 .153-.371h144.82a.217.217 0 1 1 0 .434Z"/>
  <path fill="#FFB6B6" d="M14.504 145.449h2.662l1.267-10.267h-3.93l.001 10.267Z"/>
  <path fill="#2F2E41" d="M13.824 144.58h5.242a3.34 3.34 0 0 1 3.341 3.341v.108l-8.583.001v-3.45Z"/>
  <path fill="#FFB6B6" d="M39.04 145.449h2.66l1.267-10.267h-3.929v10.267Z"/>
  <path fill="#2F2E41" d="M38.36 144.58h5.242a3.339 3.339 0 0 1 3.34 3.341v.108l-8.583.001v-3.45Z"/>
  <path fill="#FFB6B6" d="m35.827 62.965 1.737 11.073-16.502.218 2.172-10.64 12.593-.65Z"/>
  <path fill="#2F2E41" d="m38.215 71.216 4.125 14.113.652 57.993H38.54L27.9 96.728l-9.77 45.378h-4.34l3.04-51.024s-1.52-12.593 3.69-16.284V71.56l17.696-.343Z"/>
  <path fill="#FFB6B6" d="M14.54 82.244a3.256 3.256 0 0 0 2.086-4.538l7.02-22.887-5.163-1.023-6.42 22.433a3.275 3.275 0 0 0 2.476 6.015Zm19.586-42.116a7.447 7.447 0 1 0-10.531-10.532 7.447 7.447 0 0 0 10.531 10.532Z"/>
  <path fill="#E4E4E4" d="M23.535 68.936a1.363 1.363 0 0 1-1.093-1.237c-.164-2.242-.974-6.14-2.408-11.583a9.025 9.025 0 0 1 7.45-11.225 9.02 9.02 0 0 1 10.252 7.89c.71 6.247-.629 12.523-1.237 14.93a1.368 1.368 0 0 1-1.297 1.031l-11.374.22a1.356 1.356 0 0 1-.293-.026Z"/>
  <path fill="#FFB6B6" d="M55.577 48.977a3.189 3.189 0 0 0-.168.474l-14.238 4.838-2.751-2.403-4.17 3.678 4.457 4.728a2.426 2.426 0 0 0 2.868.496l15.236-7.782a3.184 3.184 0 1 0-1.234-4.029Z"/>
  <path fill="#E4E4E4" d="m40.674 54.553-5.19 4.534a1.364 1.364 0 0 1-2.046-.29l-3.712-5.782a3.79 3.79 0 0 1 5.723-4.968l5.213 4.44a1.366 1.366 0 0 1 .012 2.066ZM22.826 60.68l-6.414-2.52a1.364 1.364 0 0 1-.684-1.95l3.422-5.958a3.79 3.79 0 0 1 7.046 2.792l-1.541 6.673a1.365 1.365 0 0 1-1.829.962Z"/>
  <path fill="#2F2E41" d="M32.302 33.194c1.623 1.657 3.826 3.467 6.015 2.478 1.437-.649 2.164-2.234 1.943-3.795-.398-2.808-2.692-4.464-4.928-5.829-2.908-1.773-6.142-3.367-9.543-3.183-3.4.183-6.884 2.75-6.951 6.156-.055 2.738 2.005 5.434 1.122 8.027-.887 2.61-4.182 3.423-6.938 3.375-2.756-.049-5.765-.485-8.056 1.047-2.924 1.955-3.178 6.435-1.393 9.464 1.786 3.03 5.019 4.884 8.218 6.343 4.24 1.933 8.941 3.439 13.511 2.532 4.57-.908 8.789-4.952 8.438-9.598-.148-1.963-1.054-3.776-1.928-5.54-.873-1.763-1.747-3.6-1.824-5.567-.064-1.638.573-3.4 1.843-4.368a1.345 1.345 0 0 0 .483-1.508l-.012-.034Z"/>
  <path fill="#fff" d="M57.475 93.647a16.875 16.875 0 1 1 23.5-4.153l4.005 3.485-1.656.964c-2.56 1.49-5.35.71-6.949.007a16.874 16.874 0 0 1-18.9-.303Z"/>
  <path fill="#6C63FF" d="M69.276 96.765c-4.2.53-8.447-.527-11.91-2.964a17.063 17.063 0 1 1 23.86-4.338l4.075 3.547-1.882 1.096c-2.625 1.528-5.492.714-7.027.057a17.086 17.086 0 0 1-7.116 2.602Zm-11.693-3.272a16.61 16.61 0 0 0 18.689.3l.085-.056.093.04c1.444.635 4.245 1.48 6.78.003l1.427-.831-3.933-3.424.097-.139a16.686 16.686 0 1 0-23.238 4.107Z"/>
  <path fill="#000" d="M53 81.509a15.53 15.53 0 0 1 12.1-17.127 15.53 15.53 0 1 0 3.89 30.69A15.53 15.53 0 0 1 53.001 81.51Z" opacity=".1"/>
  <path fill="#6C63FF" d="M90.978 96.1a2.388 2.388 0 1 0-.6-4.74 2.388 2.388 0 0 0 .6 4.74Z"/>
  <path fill="#5263F3" d="M72.52 69.358 55.313 80.971l7.23 10.715 17.209-11.612-7.232-10.716Z"/>
  <path fill="#fff" d="m61.011 80.13-3.152 2.126 1.383 2.049 3.151-2.127-1.382-2.049Zm3.914-2.644-3.152 2.127 1.383 2.049 3.152-2.127-1.383-2.049Zm3.918-2.642-3.152 2.127 1.383 2.048 3.151-2.127-1.382-2.048Zm3.914-2.643-3.151 2.127 1.382 2.049 3.151-2.127-1.382-2.049Zm-9.789 10.828-3.152 2.127 1.383 2.048 3.151-2.126-1.382-2.05Zm3.914-2.643-3.152 2.127 1.383 2.049 3.151-2.127-1.382-2.049Zm3.918-2.643-3.152 2.127 1.383 2.049 3.151-2.127-1.382-2.049Zm3.914-2.643-3.151 2.128 1.382 2.048 3.152-2.127-1.383-2.048Zm-9.789 10.828-3.152 2.127 1.383 2.049 3.152-2.127-1.383-2.049Zm3.915-2.642-3.153 2.127 1.383 2.048 3.152-2.127-1.383-2.048Zm3.917-2.643-3.151 2.126 1.382 2.05 3.151-2.128-1.382-2.048ZM76.671 78l-3.152 2.127 1.383 2.049 3.152-2.127L76.67 78ZM60.67 79.19a.57.57 0 1 0-.638-.945.57.57 0 0 0 .637.945Zm7.816-5.275a.57.57 0 1 0-.638-.945.57.57 0 0 0 .638.945Z"/>
  <path fill="#5263F3" d="m59.156 76.541-.379.255 1.468 2.175.378-.255-1.467-2.175Zm7.816-5.275-.378.255 1.467 2.175.378-.255-1.467-2.175Z"/>
  <path fill="#FFC550" d="M72.589 73.808a.857.857 0 1 1-1.422.958.857.857 0 0 1 1.422-.958Z"/>
  <path fill="#fff" d="m72.22 73.502-.229 1.175c-.09-.039-.55-.19-.55-.19.01-.054.024-.106.04-.157l.388.134.196-1.013a.86.86 0 0 1 .154.05Z"/>
  <path fill="#FFC550" d="M66.71 81.993a.857.857 0 1 1-1.422.958.857.857 0 0 1 1.422-.958Z"/>
  <path fill="#fff" d="m66.344 81.687-.228 1.175c-.09-.039-.55-.19-.55-.19a1.21 1.21 0 0 1 .04-.157l.388.134.196-1.013a.86.86 0 0 1 .154.05Z"/>
  <path fill="#FFC550" d="M62.796 84.635a.857.857 0 1 1-1.422.958.857.857 0 0 1 1.422-.958Z"/>
  <path fill="#fff" d="m62.43 84.33-.228 1.174c-.09-.038-.55-.19-.55-.19.01-.053.024-.105.04-.156l.388.134.196-1.013a.847.847 0 0 1 .154.05Zm72.145 41.635a16.876 16.876 0 1 0-23.836-1.163l-3.534 3.961 1.763.748c2.728 1.157 5.397.031 6.896-.868a16.87 16.87 0 0 0 18.711-2.678Z"/>
  <path fill="#6C63FF" d="M123.259 130.543a16.997 16.997 0 0 0 11.442-4.439 17.07 17.07 0 0 0 4.615-18.353 17.068 17.068 0 0 0-15.162-11.325 17.066 17.066 0 0 0-16.289 9.634 17.064 17.064 0 0 0 2.62 18.742l-3.596 4.031 2.005.851c2.796 1.186 5.538.018 6.978-.827a17.083 17.083 0 0 0 7.387 1.686Zm11.189-4.718a16.613 16.613 0 0 1-18.503 2.649l-.092-.045-.087.053c-1.353.811-4.025 2.001-6.725.855l-1.521-.645 3.471-3.891-.114-.126a16.69 16.69 0 0 1 13.174-27.877 16.684 16.684 0 0 1 15.374 20.716 16.681 16.681 0 0 1-4.977 8.311Z"/>
  <path fill="#000" d="M137.482 113.36a15.53 15.53 0 0 0-14.157-15.468 15.527 15.527 0 0 1 16.894 15.468 15.53 15.53 0 0 1-16.892 15.468 15.53 15.53 0 0 0 14.155-15.468Z" opacity=".1"/>
  <path fill="#6C63FF" d="M101.647 132.613a2.39 2.39 0 1 1 .001-4.778 2.39 2.39 0 0 1-.001 4.778Z"/>
  <path fill="#fff" d="M119.289 60.44c-2.349 1.409-6.534 3.174-10.81 1.36l-2.765-1.173 5.54-6.21a26.454 26.454 0 0 1 35.464-38.943 26.457 26.457 0 0 1-27.429 44.966Z"/>
  <path fill="#5263F3" d="M119.204 60.87c-2.257 1.325-6.557 3.156-10.94 1.297l-3.143-1.334 5.637-6.32a26.757 26.757 0 0 1-4.108-29.383 26.758 26.758 0 0 1 25.538-15.104 26.751 26.751 0 0 1 16.535 46.529 26.63 26.63 0 0 1-29.519 4.315Zm30.925-41.706a26.16 26.16 0 1 0-38.756 35.15l.179.197-5.442 6.1 2.385 1.012c4.233 1.796 8.422-.07 10.543-1.341l.137-.083.143.07a26.162 26.162 0 0 0 37.566-24.751 26.16 26.16 0 0 0-6.755-16.354Z"/>
  <path fill="#000" d="M153.089 36.574a24.35 24.35 0 0 0-22.194-24.25 24.35 24.35 0 0 1 26.485 24.25 24.346 24.346 0 0 1-26.482 24.25 24.346 24.346 0 0 0 22.191-24.25Z" opacity=".1"/>
  <path fill="#5263F3" d="M100.78 64.28a2.823 2.823 0 1 0-.001-5.645 2.823 2.823 0 0 0 .001 5.645Z"/>
  <path fill="#414FC2" d="M142.272 53.28h-22.995a2.946 2.946 0 0 1-2.941-2.94V23.333a2.946 2.946 0 0 1 2.941-2.941h21.393l4.543 3.62V50.34a2.946 2.946 0 0 1-2.941 2.941Z"/>
  <path fill="#5263F3" d="M119.278 21.24a2.096 2.096 0 0 0-2.094 2.094v27.005a2.093 2.093 0 0 0 2.094 2.095h22.995a2.097 2.097 0 0 0 2.094-2.095V24.422l-3.992-3.183h-21.097Z"/>
  <path fill="#EDEFFD" d="M137.799 43.908H127.33a.491.491 0 0 1-.347-.836.491.491 0 0 1 .347-.144h10.469a.489.489 0 0 1 0 .98Zm2.02 1.652H127.33a.492.492 0 0 1-.49-.49.489.489 0 0 1 .49-.489h12.489a.492.492 0 0 1 .49.49.492.492 0 0 1-.49.49Zm-2.02-16.468H127.33a.493.493 0 0 1-.453-.302.501.501 0 0 1 0-.375.502.502 0 0 1 .265-.265.493.493 0 0 1 .188-.038h10.469a.488.488 0 0 1 .452.303.483.483 0 0 1-.106.533.479.479 0 0 1-.346.144Zm2.02 1.653H127.33a.492.492 0 0 1-.49-.49.489.489 0 0 1 .49-.49h12.489a.491.491 0 0 1 .347.836.492.492 0 0 1-.347.144Z"/>
  <path fill="#FFC550" d="M122.969 31.16a1.732 1.732 0 1 0 0-3.464 1.732 1.732 0 0 0 0 3.463Z"/>
  <path fill="#5263F3" d="M122.798 30.089a.182.182 0 0 1-.108-.036l-.002-.002-.406-.311a.185.185 0 0 1-.07-.12.18.18 0 0 1 .156-.203.182.182 0 0 1 .134.036l.263.202.623-.812a.175.175 0 0 1 .19-.065.179.179 0 0 1 .063.031l-.004.006.004-.006a.18.18 0 0 1 .069.12.178.178 0 0 1-.035.134l-.733.955a.178.178 0 0 1-.143.07h-.001Z"/>
  <path fill="#EDEFFD" d="M137.799 36.5H127.33a.491.491 0 0 1-.347-.837.491.491 0 0 1 .347-.143h10.469a.489.489 0 0 1 0 .98Zm2.02 1.652H127.33a.492.492 0 0 1-.49-.49.489.489 0 0 1 .49-.49h12.489a.492.492 0 0 1 .49.49.492.492 0 0 1-.49.49Zm-16.67.416a1.731 1.731 0 1 0 0-3.462 1.731 1.731 0 0 0 0 3.462Zm-.18 7.407a1.732 1.732 0 1 0 0-3.463 1.732 1.732 0 0 0 0 3.463Z"/>
  <path fill="#414FC2" d="M145.124 24.13h-3.558a.98.98 0 0 1-.98-.98v-2.628a.06.06 0 0 1 .035-.055.058.058 0 0 1 .033-.006.062.062 0 0 1 .031.013l4.477 3.547c.01.008.017.019.021.03a.062.062 0 0 1-.023.067.064.064 0 0 1-.036.012Z"/>
  <path fill="#FFC550" d="M130.032 106.359a8.902 8.902 0 0 0-6.13-2.792v8.921l6.13-6.129Z"/>
  <path fill="#E4E4E4" d="m130.032 107.469-6.13 6.13h8.567a8.903 8.903 0 0 0-2.437-6.13Z"/>
  <path fill="#F0F0F0" d="M132.478 114.24a8.959 8.959 0 0 1-.179 1.787 8.871 8.871 0 0 1-1.113 2.842 8.959 8.959 0 0 1-1.898 2.211 8.887 8.887 0 0 1-5.386 2.081v-8.921h8.576Z"/>
  <path fill="#414FC2" d="M123.037 123.169c.118 0 .236-.003.353-.008v-8.921l-6.488 6.488a8.901 8.901 0 0 0 6.135 2.441Z"/>
  <path fill="#5263F3" d="M123.047 104.67a8.93 8.93 0 0 0-8.93 8.929h9.293v-8.921a8.792 8.792 0 0 0-.363-.008Zm-2.131 9.57-1.877 1.878-.061.061-.002.001-1.637 1.637-.062.062-1.769 1.769-.062.062v.001l-1.018 1.017a8.9 8.9 0 0 1-2.795-6.488h9.283Z"/>
  <path fill="#FFC550" d="M115.444 119.71a8.092 8.092 0 0 1-2.393-5.467l.176-.006a7.92 7.92 0 0 0 2.342 5.348l-.125.125Zm1.897-1.892-.128.121a8.12 8.12 0 0 1-1.998-3.678l.086-.021h.09a7.945 7.945 0 0 0 1.948 3.576l.002.002Zm1.703-1.694-.067.055-.001.001-.068.057a8.146 8.146 0 0 1-1.213-1.961l.081-.036h.097a7.927 7.927 0 0 0 1.171 1.884Z"/>
</svg>
