<svg xmlns="http://www.w3.org/2000/svg" width="222" height="149" fill="none" viewBox="0 0 222 149">
  <g clip-path="url(#a)">
    <path fill="#fff" d="M.508 101.268a6 6 0 0 0 6 6h109.056a6 6 0 0 0 6-6V75.214a6 6 0 0 0-6-6H6.508a6 6 0 0 0-6 6v26.054ZM.23 32.33a6 6 0 0 0 6 6h109.057a6 6 0 0 0 6-6V6.276a6 6 0 0 0-6-6H6.23a6 6 0 0 0-6 6V32.33Z"/>
    <path fill="#FFB8B8" d="M181.744 88.656c.146-.044.296-.076.447-.096l6.039-12.27-1.844-2.764 3.808-3.327 4.786 5.857-9.748 14.187a2.89 2.89 0 0 1-.603 3.234 2.894 2.894 0 1 1-2.885-4.821Z"/>
    <path fill="#CCC" d="M192.055 71.894a1.249 1.249 0 0 1-.28.221l-6.179 3.582a1.236 1.236 0 0 1-1.436-.137 1.257 1.257 0 0 1-.308-.406l-3.005-6.349a1.238 1.238 0 0 1 .424-1.556l3.83-2.606a1.244 1.244 0 0 1 1.577.15l5.353 5.372a1.239 1.239 0 0 1 .024 1.73Z"/>
    <path fill="#FFB8B8" d="m200.73 142.203-3.262.888-4.976-12.16 4.815-1.31 3.423 12.582Z"/>
    <path fill="#2F2E41" d="m194.883 142.793 6.291-1.712 1.078 3.961-10.252 2.79a4.095 4.095 0 0 1 1.449-4.325 4.1 4.1 0 0 1 1.434-.714Z"/>
    <path fill="#FFB8B8" d="M172.841 144.692h-3.381l-1.608-13.04 4.989.001v13.039Z"/>
    <path fill="#2F2E41" d="M167.047 143.727h6.519v4.105h-10.625a4.112 4.112 0 0 1 2.535-3.793 4.107 4.107 0 0 1 1.571-.312Z"/>
    <path fill="#FFB8B8" d="M176.406 60.315a6.772 6.772 0 0 0 6.772-6.773 6.772 6.772 0 1 0-6.772 6.773Z"/>
    <path fill="#2F2E41" d="M172.636 135.395h-4.62a1.242 1.242 0 0 1-1.239-1.164c-1.377-21.884-.572-37.582 2.534-49.402.013-.052.03-.103.05-.152l.247-.619a1.243 1.243 0 0 1 1.153-.78h9.5a1.243 1.243 0 0 1 .942.433l1.29 1.506c.026.03.049.059.072.09 5.819 8.115 11.033 23.978 17.072 45.301a1.233 1.233 0 0 1-.815 1.521l-4.965 1.589a1.248 1.248 0 0 1-1.496-.643l-12.884-26.723a.965.965 0 0 0-1.826.289l-3.785 27.682a1.248 1.248 0 0 1-1.23 1.072Z"/>
    <path fill="#CCC" d="M181.97 85.327h-.039l-11.54-.365a1.234 1.234 0 0 1-1.193-1.09c-1.463-11.842 2.549-15.014 4.341-15.828a.952.952 0 0 0 .555-.756l.155-1.242a1.24 1.24 0 0 1 .246-.602c2.811-3.642 6.649-4.808 8.687-5.178a1.236 1.236 0 0 1 1.286.59c.085.144.14.305.162.471l.232 1.782c.024.17.092.331.197.467 5.862 7.664-.669 18.98-2.038 21.17a1.241 1.241 0 0 1-1.051.581Z"/>
    <path fill="#2F2E41" d="M190.067 54.305a26.952 26.952 0 0 0-5.378-5.631c-1.71-1.335-3.612-2.476-5.711-3.022-2.099-.545-4.417-.452-6.332.565-1.916 1.018-3.896 3.04-3.908 5.21-.003.696.174 1.639.86 1.518l.198.026 4.966-1.003 2.115 7.34c.148.515.348 1.092.837 1.312.461.207.994.012 1.46-.183.077-.032.736-1.511.736-1.511a.278.278 0 0 1 .358-.165.272.272 0 0 1 .117.085l.392.49a.552.552 0 0 0 .643.164l8.098-3.38c.373-.156.79-.36.898-.75.103-.372-.125-.75-.349-1.065Z"/>
    <path fill="#3F3D56" d="M221.098 148.08h-83.002a.276.276 0 0 1 0-.552h83.002a.276.276 0 0 1 0 .552Z"/>
    <path fill="#6C63FF" d="M176.096 105.107a.882.882 0 0 1-.521-.172l-1.255-.912a.609.609 0 0 0-.717 0l-1.256.912a.883.883 0 0 1-1.041 0 .884.884 0 0 1-.322-.991l.479-1.475a.61.61 0 0 0-.221-.683l-1.256-.912a.89.89 0 0 1-.322-.99.89.89 0 0 1 .843-.613h1.552a.61.61 0 0 0 .58-.421l.48-1.476a.883.883 0 0 1 1.685 0l.48 1.476a.606.606 0 0 0 .58.421h1.552a.883.883 0 0 1 .842.613.883.883 0 0 1-.322.99l-1.255.912a.603.603 0 0 0-.221.683l.479 1.475a.874.874 0 0 1-.322.991.88.88 0 0 1-.521.172Z"/>
    <path fill="#FFB8B8" d="M180.896 102.158a2.965 2.965 0 0 0 .388-4.526l2.143-25.885-6.382.878-.121 25.15a2.978 2.978 0 0 0 3.972 4.383Z"/>
    <path fill="#CCC" d="M183.845 75.474a1.25 1.25 0 0 1-.353-.051l-6.851-2.015a1.237 1.237 0 0 1-.89-1.136 1.25 1.25 0 0 1 .083-.503l2.535-6.55a1.236 1.236 0 0 1 1.421-.764l4.527.984a1.245 1.245 0 0 1 .976 1.247l-.21 7.58a1.243 1.243 0 0 1-1.238 1.207Z"/>
    <path fill="#3F3D56" d="M119.356 107.82H2.161a1.934 1.934 0 0 1-1.93-1.93V70.869a1.932 1.932 0 0 1 1.93-1.93h117.195a1.934 1.934 0 0 1 1.931 1.93v35.021a1.935 1.935 0 0 1-1.931 1.93ZM2.161 69.49a1.38 1.38 0 0 0-1.379 1.379v35.021a1.38 1.38 0 0 0 1.379 1.378h117.195a1.377 1.377 0 0 0 1.379-1.378V70.869a1.38 1.38 0 0 0-1.379-1.379H2.161Z"/>
    <path fill="#6C63FF" d="M53.444 122.566a1.08 1.08 0 0 1-.638-.212l-1.538-1.117a.746.746 0 0 0-.879 0l-1.537 1.117a1.085 1.085 0 0 1-1.67-1.213l.587-1.808a.745.745 0 0 0-.272-.836l-1.538-1.117a1.087 1.087 0 0 1 .638-1.964h1.901a.74.74 0 0 0 .711-.516l.587-1.808a1.087 1.087 0 0 1 2.065 0l.588 1.808a.747.747 0 0 0 .71.516h1.901a1.085 1.085 0 0 1 .638 1.964l-1.537 1.117a.75.75 0 0 0-.272.836l.587 1.808a1.07 1.07 0 0 1-.394 1.213 1.079 1.079 0 0 1-.638.212Zm15.582 0a1.08 1.08 0 0 1-.638-.212l-1.538-1.117a.746.746 0 0 0-.879 0l-1.537 1.117a1.084 1.084 0 0 1-1.67-1.213l.586-1.808a.745.745 0 0 0-.271-.836l-1.538-1.117a1.087 1.087 0 0 1 .638-1.964h1.9a.74.74 0 0 0 .712-.516l.587-1.808a1.087 1.087 0 0 1 1.67-.543c.186.135.324.325.395.543l.588 1.808a.748.748 0 0 0 .71.516h1.901a1.084 1.084 0 0 1 1.033 1.421c-.071.218-.21.408-.394.543l-1.538 1.117a.75.75 0 0 0-.272.836l.587 1.808a1.069 1.069 0 0 1-.394 1.213 1.079 1.079 0 0 1-.638.212Zm15.582 0a1.079 1.079 0 0 1-.638-.212l-1.538-1.117a.747.747 0 0 0-.879 0l-1.537 1.117a1.084 1.084 0 0 1-1.67-1.213l.587-1.808a.745.745 0 0 0-.272-.836l-1.538-1.117a1.087 1.087 0 0 1 .638-1.964h1.901a.74.74 0 0 0 .711-.516l.587-1.808a1.088 1.088 0 0 1 1.67-.543c.186.135.324.325.395.543l.588 1.808a.748.748 0 0 0 .71.516h1.901a1.085 1.085 0 0 1 .638 1.964l-1.537 1.117a.75.75 0 0 0-.272.836l.588 1.808a1.07 1.07 0 0 1-.395 1.213 1.08 1.08 0 0 1-.638.212Zm15.582 0a1.08 1.08 0 0 1-.638-.212l-1.538-1.117a.746.746 0 0 0-.879 0l-1.537 1.117a1.085 1.085 0 0 1-1.67-1.213l.587-1.808a.745.745 0 0 0-.272-.836l-1.538-1.117a1.087 1.087 0 0 1 0-1.756c.186-.135.41-.208.638-.208h1.901a.74.74 0 0 0 .711-.516l.588-1.808a1.087 1.087 0 0 1 2.064 0l.588 1.808a.747.747 0 0 0 .71.516h1.901c.23 0 .453.073.638.208a1.08 1.08 0 0 1 .395 1.213 1.09 1.09 0 0 1-.394.543l-1.538 1.117a.75.75 0 0 0-.272.836l.588 1.808a1.072 1.072 0 0 1-.395 1.213 1.079 1.079 0 0 1-.638.212Z"/>
    <path fill="#3F3D56" d="M110.543 122.673a1.188 1.188 0 0 1-.701-.232 1.17 1.17 0 0 1-.433-1.333l.588-1.808a.638.638 0 0 0-.233-.716l-1.538-1.117a1.193 1.193 0 0 1 .701-2.157h1.901a.642.642 0 0 0 .609-.443l.587-1.808a1.195 1.195 0 0 1 1.835-.596c.204.148.356.357.433.596l.588 1.808a.64.64 0 0 0 .609.443h1.901a1.192 1.192 0 0 1 .701 2.157l-1.538 1.117a.639.639 0 0 0-.233.716l.588 1.808a1.19 1.19 0 0 1-1.134 1.561c-.252 0-.498-.08-.701-.228l-1.538-1.117a.637.637 0 0 0-.753 0l-1.538 1.117c-.203.15-.449.231-.701.232Zm2.615-2.023c.252 0 .498.08.701.228l1.538 1.117a.644.644 0 0 0 .753 0 .639.639 0 0 0 .233-.716l-.587-1.808a1.183 1.183 0 0 1 .433-1.333l1.538-1.117a.64.64 0 0 0 .232-.717.641.641 0 0 0-.609-.443h-1.901a1.185 1.185 0 0 1-1.134-.824l-.587-1.807a.641.641 0 0 0-1.219 0l-.588 1.807a1.184 1.184 0 0 1-1.133.824h-1.901a.639.639 0 0 0-.61.443.638.638 0 0 0 .233.717l1.538 1.117a1.19 1.19 0 0 1 .433 1.333l-.587 1.808a.638.638 0 0 0 .609.838.64.64 0 0 0 .377-.122l1.538-1.117c.203-.148.448-.228.7-.228Z"/>
    <path fill="#CCC" d="M15.398 77.21a1.793 1.793 0 0 0 0 3.586h90.723a1.792 1.792 0 0 0 0-3.585H15.398Zm0 9.377a1.793 1.793 0 0 0 0 3.585h90.723a1.792 1.792 0 0 0 0-3.585H15.398Zm0 9.375a1.792 1.792 0 1 0 0 3.585h90.723a1.792 1.792 0 0 0 0-3.585H15.398Z"/>
    <path fill="#CCC" d="M15.398 77.21a1.793 1.793 0 0 0 0 3.586h90.723a1.792 1.792 0 0 0 0-3.585H15.398Zm0 9.377a1.793 1.793 0 0 0 0 3.585h90.723a1.792 1.792 0 0 0 0-3.585H15.398Zm0 9.375a1.792 1.792 0 1 0 0 3.585h90.723a1.792 1.792 0 0 0 0-3.585H15.398Z"/>
    <path fill="#3F3D56" d="M119.356 38.881H2.161a1.932 1.932 0 0 1-1.93-1.93V1.931A1.932 1.932 0 0 1 2.16 0h117.195a1.934 1.934 0 0 1 1.931 1.93v35.021a1.934 1.934 0 0 1-1.931 1.93ZM2.161.551a1.38 1.38 0 0 0-1.379 1.38v35.02a1.38 1.38 0 0 0 1.379 1.379h117.195a1.382 1.382 0 0 0 1.379-1.379V1.931a1.38 1.38 0 0 0-1.379-1.38H2.161Z"/>
    <path fill="#6C63FF" d="M53.444 53.627a1.083 1.083 0 0 1-.638-.211l-1.538-1.117a.745.745 0 0 0-.879 0l-1.537 1.117a1.086 1.086 0 0 1-1.67-1.214l.587-1.807a.746.746 0 0 0-.272-.836l-1.538-1.117a1.085 1.085 0 0 1 .638-1.964h1.901a.745.745 0 0 0 .711-.517l.587-1.807a1.085 1.085 0 0 1 2.065 0l.588 1.807a.745.745 0 0 0 .71.517h1.901a1.086 1.086 0 0 1 .638 1.963l-1.537 1.118a.746.746 0 0 0-.272.836l.587 1.807a1.07 1.07 0 0 1-.394 1.214c-.185.136-.408.21-.638.211Zm15.582 0a1.083 1.083 0 0 1-.638-.211l-1.538-1.117a.745.745 0 0 0-.879 0l-1.537 1.117a1.086 1.086 0 0 1-1.67-1.214l.586-1.807a.746.746 0 0 0-.271-.836l-1.538-1.117a1.085 1.085 0 0 1 .638-1.964h1.9a.746.746 0 0 0 .712-.517l.587-1.807a1.086 1.086 0 0 1 2.065 0l.588 1.807a.747.747 0 0 0 .71.517h1.901a1.086 1.086 0 0 1 .639 1.963l-1.538 1.118a.746.746 0 0 0-.272.836l.587 1.807a1.07 1.07 0 0 1-.394 1.214c-.185.136-.408.21-.638.211Zm15.582 0a1.083 1.083 0 0 1-.638-.211l-1.538-1.117a.747.747 0 0 0-.879 0l-1.537 1.117a1.086 1.086 0 0 1-1.67-1.214l.587-1.807a.746.746 0 0 0-.272-.836l-1.538-1.117a1.085 1.085 0 0 1 .638-1.964h1.901a.745.745 0 0 0 .711-.517l.587-1.807a1.086 1.086 0 0 1 2.065 0l.588 1.807a.746.746 0 0 0 .71.517h1.901a1.086 1.086 0 0 1 .638 1.963l-1.537 1.118a.746.746 0 0 0-.272.836l.588 1.807a1.07 1.07 0 0 1-.395 1.214c-.185.136-.408.21-.638.211Z"/>
    <path fill="#3F3D56" d="M110.543 53.734a1.19 1.19 0 0 1-.701-.232 1.173 1.173 0 0 1-.433-1.333l.588-1.807a.638.638 0 0 0-.233-.717l-1.538-1.117a1.191 1.191 0 0 1 .701-2.157h1.901a.636.636 0 0 0 .609-.443l.587-1.808a1.193 1.193 0 0 1 2.268 0l.588 1.808a.638.638 0 0 0 .609.443h1.901a1.193 1.193 0 0 1 .701 2.157l-1.538 1.117a.638.638 0 0 0-.233.716l.588 1.808a1.193 1.193 0 0 1-1.835 1.333l-1.538-1.117a.638.638 0 0 0-.753 0l-1.538 1.117a1.19 1.19 0 0 1-.701.232Zm2.615-2.023c.252 0 .498.08.701.228l1.538 1.117a.639.639 0 0 0 .986-.32.638.638 0 0 0 0-.396l-.587-1.808a1.183 1.183 0 0 1 .433-1.333l1.538-1.117a.638.638 0 0 0 .232-.717.637.637 0 0 0-.609-.443h-1.901a1.188 1.188 0 0 1-1.134-.824l-.587-1.807a.64.64 0 0 0-.986-.32.64.64 0 0 0-.233.32l-.588 1.807a1.185 1.185 0 0 1-1.133.824h-1.901a.641.641 0 0 0-.377 1.16l1.538 1.117a1.191 1.191 0 0 1 .433 1.333l-.587 1.808a.638.638 0 0 0 .232.716.644.644 0 0 0 .754 0l1.538-1.117c.203-.148.448-.228.7-.228ZM94.824 53.69a1.19 1.19 0 0 1-.7-.231 1.175 1.175 0 0 1-.434-1.334l.588-1.807a.64.64 0 0 0-.233-.717l-1.538-1.117a1.192 1.192 0 0 1 .701-2.157h1.9a.639.639 0 0 0 .61-.443l.588-1.808a1.193 1.193 0 0 1 2.268 0l.587 1.808a.64.64 0 0 0 .61.443h1.9a1.193 1.193 0 0 1 .701 2.157l-1.538 1.117a.644.644 0 0 0-.232.717l.587 1.807a1.19 1.19 0 0 1-.433 1.333 1.193 1.193 0 0 1-1.402 0l-1.538-1.117a.64.64 0 0 0-.753 0l-1.538 1.117c-.203.15-.448.231-.7.232Zm2.616-2.023c.252 0 .497.08.7.228l1.538 1.117a.64.64 0 0 0 .986-.716l-.587-1.808a1.192 1.192 0 0 1 .433-1.333l1.538-1.117a.645.645 0 0 0 .233-.717.645.645 0 0 0-.61-.443h-1.9a1.189 1.189 0 0 1-1.135-.824l-.587-1.807a.641.641 0 0 0-1.219 0l-.587 1.807a1.19 1.19 0 0 1-1.134.824h-1.901a.641.641 0 0 0-.377 1.16l1.538 1.117a1.189 1.189 0 0 1 .433 1.333l-.587 1.808a.64.64 0 0 0 .986.716l1.538-1.117a1.19 1.19 0 0 1 .7-.228Z"/>
    <path fill="#CCC" d="M15.398 8.272a1.793 1.793 0 0 0 0 3.585h90.723a1.792 1.792 0 0 0 0-3.585H15.398Zm0 9.376a1.793 1.793 0 0 0 0 3.585h90.723a1.792 1.792 0 0 0 0-3.585H15.398Zm0 9.376a1.793 1.793 0 0 0 0 3.585h90.723a1.792 1.792 0 0 0 0-3.585H15.398Z"/>
    <path fill="#CCC" d="M15.398 8.272a1.793 1.793 0 0 0 0 3.585h90.723a1.792 1.792 0 0 0 0-3.585H15.398Zm0 9.376a1.793 1.793 0 0 0 0 3.585h90.723a1.792 1.792 0 0 0 0-3.585H15.398Zm0 9.376a1.793 1.793 0 0 0 0 3.585h90.723a1.792 1.792 0 0 0 0-3.585H15.398Z"/>
  </g>
  <defs>
    <clipPath id="a">
      <path fill="#fff" d="M.23 0h221.142v148.08H.23z"/>
    </clipPath>
  </defs>
</svg>
