<svg xmlns="http://www.w3.org/2000/svg" width="57" height="52" fill="none" viewBox="0 0 57 52">
  <path stroke="#5263F3" stroke-linecap="round" stroke-linejoin="round" stroke-width="5" d="m18.792 49.149 24.676-4.011M23.91 2.726l7.22 44.417M3.306 16.207l4.936-.803c4.935-.802 11.937-4.473 16.47-7.743 5.337 1.666 13.141 2.93 18.076 2.128l4.935-.802M38.995 33.2l4.194-20.944 10.612 18.537a12.52 12.52 0 0 1-7.002 3.671 12.52 12.52 0 0 1-7.804-1.264ZM4.45 38.816l4.194-20.944 10.61 18.538a12.52 12.52 0 0 1-7.001 3.67 12.52 12.52 0 0 1-7.804-1.264Z"/>
</svg>
