<svg xmlns="http://www.w3.org/2000/svg" width="160" height="46" fill="none" viewBox="0 0 160 46">
  <path fill="#000" d="M153.615 46H6.382c-3.238 0-5.89-2.589-5.89-5.75V5.75C.492 2.589 3.144 0 6.382 0h147.233c3.237 0 5.889 2.589 5.889 5.75v34.5c0 3.161-2.652 5.75-5.889 5.75Z"/>
  <path fill="#A6A6A6" d="M153.615.921c2.727 0 4.945 2.167 4.945 4.829v34.5c0 2.662-2.218 4.829-4.945 4.829H6.382c-2.727 0-4.946-2.167-4.946-4.829V5.75c0-2.662 2.219-4.829 4.946-4.829h147.233Zm0-.921H6.382C3.144 0 .492 2.589.492 5.75v34.5c0 3.161 2.652 5.75 5.89 5.75h147.233c3.237 0 5.889-2.589 5.889-5.75V5.75c0-3.161-2.652-5.75-5.889-5.75Z"/>
  <path fill="#fff" stroke="#fff" stroke-miterlimit="10" stroke-width=".16" d="M56.343 11.78c0 .96-.295 1.73-.875 2.303-.667.68-1.535 1.022-2.6 1.022-1.017 0-1.886-.348-2.598-1.034-.715-.695-1.07-1.55-1.07-2.571 0-1.022.355-1.876 1.07-2.566.712-.692 1.58-1.04 2.598-1.04.507 0 .99.103 1.45.292.46.192.834.45 1.105.77l-.616.606c-.472-.545-1.116-.814-1.939-.814a2.73 2.73 0 0 0-1.931.764c-.54.511-.812 1.174-.812 1.988 0 .813.271 1.482.812 1.994a2.76 2.76 0 0 0 1.931.763c.788 0 1.45-.259 1.973-.77.345-.337.54-.803.592-1.398h-2.565v-.83h3.422c.041.179.053.353.053.521Zm5.429-2.88h-3.214v2.184h2.898v.831h-2.898V14.1h3.214v.847h-4.124V8.053h4.124v.846Zm3.832 6.047h-.91V8.899h-1.971v-.846h4.854v.846h-1.973v6.048Zm5.486 0V8.053h.908v6.894h-.908Zm4.936 0h-.903V8.899h-1.979v-.846h4.86v.846h-1.978v6.048Zm11.166-.887c-.696.697-1.559 1.045-2.588 1.045-1.035 0-1.898-.348-2.594-1.045-.695-.696-1.041-1.55-1.041-2.56s.346-1.865 1.04-2.56c.697-.698 1.56-1.045 2.595-1.045 1.023 0 1.886.347 2.582 1.05.701.702 1.047 1.55 1.047 2.555 0 1.01-.346 1.864-1.04 2.56Zm-4.51-.578c.525.516 1.162.775 1.922.775.754 0 1.397-.259 1.915-.775.523-.516.788-1.179.788-1.982 0-.804-.265-1.466-.788-1.983-.518-.516-1.161-.774-1.915-.774-.76 0-1.397.258-1.921.774-.523.517-.788 1.18-.788 1.983 0 .803.265 1.466.788 1.982Zm6.83 1.465V8.053h1.104l3.433 5.362h.04l-.04-1.326V8.053h.909v6.894h-.948l-3.596-5.626h-.04l.04 1.33v4.296h-.902Z"/>
  <path fill="#fff" d="M80.746 25.015c-2.766 0-5.026 2.056-5.026 4.892 0 2.813 2.26 4.89 5.026 4.89 2.773 0 5.033-2.077 5.033-4.89 0-2.836-2.26-4.892-5.033-4.892Zm0 7.856c-1.518 0-2.824-1.223-2.824-2.964 0-1.764 1.306-2.965 2.824-2.965 1.518 0 2.83 1.201 2.83 2.965 0 1.74-1.312 2.964-2.83 2.964ZM69.78 25.015c-2.772 0-5.027 2.056-5.027 4.892 0 2.813 2.255 4.89 5.027 4.89 2.77 0 5.026-2.077 5.026-4.89 0-2.836-2.255-4.892-5.026-4.892Zm0 7.856c-1.52 0-2.83-1.223-2.83-2.964 0-1.764 1.31-2.965 2.83-2.965 1.518 0 2.824 1.201 2.824 2.965 0 1.74-1.306 2.964-2.824 2.964Zm-13.05-6.357v2.08h5.083c-.149 1.16-.546 2.014-1.156 2.61-.742.718-1.898 1.516-3.928 1.516-3.129 0-5.578-2.465-5.578-5.52 0-3.055 2.45-5.52 5.578-5.52 1.692 0 2.923.646 3.831 1.482l1.5-1.464c-1.27-1.185-2.96-2.095-5.33-2.095-4.291 0-7.897 3.408-7.897 7.597 0 4.19 3.606 7.597 7.896 7.597 2.32 0 4.06-.741 5.43-2.133 1.403-1.37 1.84-3.296 1.84-4.851 0-.483-.04-.928-.114-1.298h-7.156Zm53.365 1.612c-.413-1.094-1.69-3.11-4.29-3.11-2.577 0-4.722 1.982-4.722 4.891 0 2.74 2.123 4.89 4.969 4.89 2.302 0 3.63-1.37 4.176-2.167l-1.708-1.112c-.57.814-1.346 1.353-2.468 1.353-1.114 0-1.914-.499-2.426-1.482l6.7-2.707-.231-.556Zm-6.831 1.629a2.712 2.712 0 0 1 2.616-2.852c.875 0 1.617.427 1.864 1.038l-4.48 1.814ZM97.816 34.5h2.203V20.125h-2.203V34.5Zm-3.607-8.395h-.073c-.495-.572-1.439-1.09-2.634-1.09-2.51 0-4.803 2.15-4.803 4.908 0 2.741 2.294 4.874 4.803 4.874 1.195 0 2.139-.521 2.634-1.11h.073v.7c0 1.87-1.023 2.876-2.674 2.876-1.345 0-2.18-.949-2.525-1.747l-1.915.78c.552 1.297 2.014 2.893 4.44 2.893 2.583 0 4.762-1.483 4.762-5.093v-8.783H94.21v.792ZM91.69 32.87c-1.518 0-2.788-1.24-2.788-2.948 0-1.724 1.27-2.981 2.788-2.981 1.496 0 2.675 1.257 2.675 2.98 0 1.709-1.179 2.95-2.675 2.95Zm28.716-12.746h-5.268V34.5h2.197v-5.447h3.071c2.44 0 4.833-1.723 4.833-4.465 0-2.74-2.399-4.463-4.833-4.463Zm.058 6.929h-3.129v-4.93h3.129c1.64 0 2.576 1.33 2.576 2.464a2.538 2.538 0 0 1-2.576 2.466Zm13.579-2.066c-1.587 0-3.237.684-3.916 2.2l1.949.799c.42-.798 1.191-1.057 2.007-1.057 1.14 0 2.295.668 2.313 1.849v.15c-.398-.224-1.249-.556-2.295-.556-2.1 0-4.239 1.129-4.239 3.235 0 1.926 1.719 3.166 3.653 3.166 1.478 0 2.294-.65 2.806-1.408h.075v1.11h2.122v-5.513c0-2.55-1.95-3.975-4.475-3.975Zm-.265 7.877c-.718 0-1.719-.348-1.719-1.217 0-1.113 1.248-1.54 2.329-1.54.967 0 1.421.209 2.008.483-.172 1.331-1.346 2.274-2.618 2.274Zm12.469-7.562-2.525 6.231h-.075l-2.61-6.231h-2.369l3.922 8.708-2.238 4.846h2.296l6.043-13.554h-2.444ZM126.446 34.5h2.203V20.125h-2.203V34.5Z"/>
  <path fill="url(#a)" d="M12.784 8.67c-.346.353-.546.904-.546 1.617v25.432c0 .713.2 1.263.546 1.617l.086.078 14.597-14.246v-.336L12.87 8.586l-.085.083Z"/>
  <path fill="url(#b)" d="m32.325 27.919-4.86-4.751v-.336l4.866-4.751.109.061 5.763 3.202c1.644.908 1.644 2.403 0 3.318l-5.763 3.195-.115.062Z"/>
  <path fill="url(#c)" d="M32.442 27.857 27.467 23 12.785 37.336c.546.56 1.437.628 2.45.068l17.207-9.547Z"/>
  <path fill="url(#d)" d="M32.442 18.143 15.235 8.596c-1.013-.555-1.904-.487-2.45.074L27.467 23l4.975-4.857Z"/>
  <defs>
    <linearGradient id="a" x1="26.171" x2="6.876" y1="35.984" y2="16.222" gradientUnits="userSpaceOnUse">
      <stop stop-color="#00A0FF"/>
      <stop offset=".007" stop-color="#00A1FF"/>
      <stop offset=".26" stop-color="#00BEFF"/>
      <stop offset=".512" stop-color="#00D2FF"/>
      <stop offset=".76" stop-color="#00DFFF"/>
      <stop offset="1" stop-color="#00E3FF"/>
    </linearGradient>
    <linearGradient id="b" x1="40.344" x2="11.843" y1="22.998" y2="22.998" gradientUnits="userSpaceOnUse">
      <stop stop-color="#FFE000"/>
      <stop offset=".409" stop-color="#FFBD00"/>
      <stop offset=".775" stop-color="orange"/>
      <stop offset="1" stop-color="#FF9C00"/>
    </linearGradient>
    <linearGradient id="c" x1="29.737" x2="3.572" y1="20.36" y2="-6.439" gradientUnits="userSpaceOnUse">
      <stop stop-color="#FF3A44"/>
      <stop offset="1" stop-color="#C31162"/>
    </linearGradient>
    <linearGradient id="d" x1="9.089" x2="20.773" y1="45.797" y2="33.831" gradientUnits="userSpaceOnUse">
      <stop stop-color="#32A071"/>
      <stop offset=".069" stop-color="#2DA771"/>
      <stop offset=".476" stop-color="#15CF74"/>
      <stop offset=".801" stop-color="#06E775"/>
      <stop offset="1" stop-color="#00F076"/>
    </linearGradient>
  </defs>
</svg>
